<svg xmlns="http://www.w3.org/2000/svg" width="17.236" height="17.014" viewBox="0 0 17.236 17.014">
  <defs>
    <style>
      .cls-1 {
        fill: #fff;
      }
    </style>
  </defs>
  <path id="Work" class="cls-1" d="M16.669,10.972a.645.645,0,0,1,.645.645c0,.011-.038.485-.076.986l-.023.3c-.022.3-.042.569-.051.726a3.939,3.939,0,0,1-.84,2.208,3.216,3.216,0,0,1-2.66,1.177H3.776a3.215,3.215,0,0,1-2.66-1.178,3.933,3.933,0,0,1-.839-2.207C.267,13.472.248,13.2.225,12.9L.2,12.6c-.038-.5-.076-.975-.076-.986a.641.641,0,0,1,1.279-.05s.133,1.508.161,1.984a2.675,2.675,0,0,0,.544,1.459,1.914,1.914,0,0,0,1.666.71h9.885a1.914,1.914,0,0,0,1.666-.71,2.675,2.675,0,0,0,.545-1.459c.028-.476.16-1.984.16-1.984A.639.639,0,0,1,16.669,10.972Zm-7.974-.08a.647.647,0,0,1,.647.647v1.116a.647.647,0,1,1-1.293,0V11.538A.647.647,0,0,1,8.695,10.892ZM9.808,0a2.545,2.545,0,0,1,2.517,2.225h1.7a3.286,3.286,0,0,1,3.282,3.283V8.5a.648.648,0,0,1-.29.54,14.787,14.787,0,0,1-6.1,2.266.619.619,0,0,1-.089.006.648.648,0,0,1-.627-.488A1.554,1.554,0,0,0,8.691,9.656a1.574,1.574,0,0,0-1.534,1.169.643.643,0,0,1-.713.47A14.8,14.8,0,0,1,.369,9.037.646.646,0,0,1,.078,8.5V5.508A3.29,3.29,0,0,1,3.369,2.225h1.7A2.545,2.545,0,0,1,7.582,0ZM14.03,3.518H3.369a2,2,0,0,0-2,1.99V8.143A13.5,13.5,0,0,0,6.122,9.935,2.893,2.893,0,0,1,8.691,8.362a2.851,2.851,0,0,1,2.56,1.58,13.5,13.5,0,0,0,4.768-1.8V5.508A1.992,1.992,0,0,0,14.03,3.518ZM9.808,1.293H7.582a1.257,1.257,0,0,0-1.21.932h4.644A1.256,1.256,0,0,0,9.808,1.293Z" transform="translate(-0.078)"/>
</svg>
