<svg xmlns="http://www.w3.org/2000/svg" width="15.897" height="22" viewBox="0 0 15.897 22">
  <defs>
    <style>
      .cls-1 {
        fill: #2f3a7b;
      }
    </style>
  </defs>
  <g id="bitcoin-logo" transform="translate(-65.893)">
    <path id="Path_1681" data-name="Path 1681" class="cls-1" d="M81.164,11.542A3.97,3.97,0,0,0,78.85,10.18a3.135,3.135,0,0,0,1.732-3.411A3.371,3.371,0,0,0,80.1,5.255a3.029,3.029,0,0,0-1.091-1.031,6,6,0,0,0-1.494-.6,11.788,11.788,0,0,0-1.851-.3V0H73.627V3.239q-.529,0-1.613.026V0H69.978V3.332q-.436.013-1.282.013l-2.8-.013V5.5H67.36a1.05,1.05,0,0,1,1.177.9v3.795a1.343,1.343,0,0,1,.212.013h-.212v5.315a.706.706,0,0,1-.767.674H66.3l-.41,2.42h2.644q.251,0,.727.006t.714.007V22h2.036V18.668q.555.014,1.613.013V22h2.036V18.629a15.828,15.828,0,0,0,1.924-.2,7.828,7.828,0,0,0,1.606-.456,4.335,4.335,0,0,0,1.282-.773,3.65,3.65,0,0,0,.853-1.177,5,5,0,0,0,.429-1.653A3.917,3.917,0,0,0,81.164,11.542Zm-9.11-5.9.522-.007.714-.013q.284-.007.767.033a7.294,7.294,0,0,1,.813.106,4.529,4.529,0,0,1,.727.218,1.971,1.971,0,0,1,.635.37,1.836,1.836,0,0,1,.4.555,1.733,1.733,0,0,1,.165.773,1.839,1.839,0,0,1-.119.674,1.271,1.271,0,0,1-.357.509,3.616,3.616,0,0,1-.489.357,2.24,2.24,0,0,1-.641.245q-.39.093-.681.145a5.573,5.573,0,0,1-.727.073q-.436.02-.661.026t-.615,0L72.054,9.7V5.645h0Zm5.56,9a1.879,1.879,0,0,1-.324.529,1.836,1.836,0,0,1-.522.4,4.479,4.479,0,0,1-.628.278,5.054,5.054,0,0,1-.734.185q-.43.079-.754.112t-.773.053q-.449.019-.7.02t-.635-.007l-.489-.006V11.74q.106,0,.628-.013t.853-.013q.331,0,.913.04a7.8,7.8,0,0,1,.978.119,6.433,6.433,0,0,1,.866.245,2.511,2.511,0,0,1,.76.4,1.984,1.984,0,0,1,.489.608,1.889,1.889,0,0,1,.073,1.521Z" transform="translate(0)"/>
  </g>
</svg>
