<svg xmlns="http://www.w3.org/2000/svg" width="23.123" height="32" viewBox="0 0 23.123 32">
  <defs>
    <style>
      .cls-1 {
        fill: #2f3a7b;
      }
    </style>
  </defs>
  <g id="bitcoin-logo" transform="translate(-65.893)">
    <path id="Path_1681" data-name="Path 1681" class="cls-1" d="M88.1,16.788a5.775,5.775,0,0,0-3.365-1.981,4.559,4.559,0,0,0,2.519-4.962,4.9,4.9,0,0,0-.7-2.2,4.406,4.406,0,0,0-1.587-1.5A8.734,8.734,0,0,0,82.8,5.279,17.146,17.146,0,0,0,80.1,4.846V0H77.143V4.712q-.769,0-2.346.038V0H71.835V4.846q-.635.019-1.865.019l-4.077-.019V8h2.134a1.528,1.528,0,0,1,1.712,1.308v5.519a1.954,1.954,0,0,1,.308.019h-.308v7.731a1.027,1.027,0,0,1-1.115.981H66.489l-.6,3.519h3.846q.365,0,1.058.009t1.038.01V32H74.8V27.154q.807.02,2.346.019V32H80.1V27.1a23.023,23.023,0,0,0,2.8-.288,11.387,11.387,0,0,0,2.337-.664A6.306,6.306,0,0,0,87.1,25.019a5.309,5.309,0,0,0,1.241-1.712,7.276,7.276,0,0,0,.624-2.4A5.7,5.7,0,0,0,88.1,16.788ZM74.855,8.211q.135,0,.76-.01t1.039-.019q.414-.009,1.116.048a10.61,10.61,0,0,1,1.183.154,6.587,6.587,0,0,1,1.058.317,2.867,2.867,0,0,1,.923.538,2.671,2.671,0,0,1,.586.808,2.521,2.521,0,0,1,.241,1.125,2.675,2.675,0,0,1-.173.981,1.848,1.848,0,0,1-.519.74,5.26,5.26,0,0,1-.712.519,3.259,3.259,0,0,1-.933.356q-.567.135-.99.212a8.107,8.107,0,0,1-1.058.106q-.635.029-.962.039t-.894,0l-.664-.01v-5.9h0Zm8.087,13.1a2.734,2.734,0,0,1-.471.77,2.671,2.671,0,0,1-.76.577,6.515,6.515,0,0,1-.913.4,7.351,7.351,0,0,1-1.067.269q-.626.115-1.1.163t-1.125.077q-.654.028-1.019.029t-.923-.01q-.558-.009-.712-.009v-6.5q.154,0,.914-.019t1.24-.019q.481,0,1.327.058a11.339,11.339,0,0,1,1.423.173,9.357,9.357,0,0,1,1.26.356,3.653,3.653,0,0,1,1.106.586,2.886,2.886,0,0,1,.711.885,2.747,2.747,0,0,1,.106,2.212Z" transform="translate(0)"/>
  </g>
</svg>
