<svg xmlns="http://www.w3.org/2000/svg" width="17.363" height="22.179" viewBox="0 0 17.363 22.179">
  <defs>
    <style>
      .cls-1 {
        fill: #fff;
        fill-rule: evenodd;
      }
    </style>
  </defs>
  <g id="Group_229" data-name="Group 229" transform="translate(0)">
    <path id="Path_98" data-name="Path 98" class="cls-1" d="M33327.828,4670.04c.074.041.172.11.172.11a1.7,1.7,0,0,1,.3.263,1.063,1.063,0,0,0,.07.08c.023.034.059.079.059.079a.871.871,0,0,1,.066.1c.047.077.1.192.1.192a1.992,1.992,0,0,1,.133.4.667.667,0,0,1,.02.1.7.7,0,0,1,.023.192l0,.033v.059l0,.192c-.012.09-.023.179-.043.266l-.047.18s-.062.167-.062.167a1.413,1.413,0,0,1-.082.17s-.039.064-.043.075c-.023.039-.039.059-.039.059-.023.038-.039.058-.039.058-.016.017-.117.145-.117.145a1.662,1.662,0,0,1-.211.2l-.008.006c-1.273,1-2.547,2.009-3.828,3,0,0-.109.083-.207.148a3.714,3.714,0,0,1-1.836.633c-1.773.1-3.551.178-5.328.3a1.022,1.022,0,0,0-.57.234l-.508.424-.137.091a.739.739,0,0,1-.961-.381.842.842,0,0,1,.1-.825,1.5,1.5,0,0,1,.113-.122c.172-.145.352-.291.52-.432a2.424,2.424,0,0,1,1.363-.549c1.773-.115,3.555-.2,5.328-.3a2.379,2.379,0,0,0,1.266-.482c1.281-1,2.566-2,3.836-3.01.07-.06.063-.062.07-.1a.175.175,0,0,0,.027-.074c.02-.167-.137-.375-.293-.281-1.047.681-2.094,1.373-3.141,2.059a2.1,2.1,0,0,1-.68.286l-.012,0-3.23.689-.164.015a.811.811,0,0,1-.641-.463.84.84,0,0,1,.367-1.032,1.508,1.508,0,0,1,.156-.053l2.977-.635a.305.305,0,0,0-.133-.249.653.653,0,0,0-.262-.077,16.482,16.482,0,0,0-4.434-.328,4.951,4.951,0,0,0-2.07.755,23.2,23.2,0,0,0-2.668,1.956c-.059.047-.113.094-.172.141-.094.083-.2.165-.293.248l-.062.053-.141.092a.758.758,0,0,1-.625,0,.846.846,0,0,1-.246-1.192,1.065,1.065,0,0,1,.246-.235c.211-.177.418-.351.633-.523,0,0,.125-.1.219-.18a15.721,15.721,0,0,1,3.469-2.281,7.768,7.768,0,0,1,3.641-.391,26.325,26.325,0,0,1,2.844.367,1.742,1.742,0,0,1,.609.224l.125.083a2.229,2.229,0,0,1,.211.185l.133.146c.152.195.023-.03.219.353.09.178.047.1.07.164.773-.5,1.535-1.017,2.309-1.515a1.52,1.52,0,0,1,1.488-.091S33327.793,4670.023,33327.828,4670.04Zm-7.035-1.571a.637.637,0,0,1,.016.15.783.783,0,0,1-.566.761,1.114,1.114,0,0,1-.312.017,6.2,6.2,0,0,1-4.055-1.755c-.109-.109-.215-.222-.32-.339,0,0-.289-.345-.461-.588q-.187-.267-.352-.554s-.109-.2-.172-.321c-.039-.077-.074-.155-.109-.234a.175.175,0,0,0-.02-.04,6.871,6.871,0,0,1-.363-1.021s-.039-.152-.07-.262c-.016-.092-.043-.222-.043-.222-.02-.113-.051-.272-.051-.272-.023-.167-.047-.335-.062-.5a.318.318,0,0,0-.008-.063v-.091a.472.472,0,0,1-.008-.129c-.008-.114-.008-.229-.008-.343v-.305c.008-.108.008-.215.023-.323,0,0,.016-.226.039-.382.012-.071.023-.167.023-.167.012-.056.02-.111.031-.166l.008-.044c.031-.164.063-.326.109-.486,0,0,.063-.227.117-.4a7,7,0,0,1,.262-.684s.051-.106.09-.185a6.669,6.669,0,0,1,.383-.7s.094-.15.18-.264a5.83,5.83,0,0,1,.438-.557s.2-.227.359-.384a7.208,7.208,0,0,1,.555-.482s.172-.131.332-.239a5.939,5.939,0,0,1,3.289-1.022h.043a5.974,5.974,0,0,1,3.586,1.236s.2.149.355.3a5.821,5.821,0,0,1,.566.563s.266.314.391.492a6.07,6.07,0,0,1,.422.65s.082.151.141.265a7.074,7.074,0,0,1,.523,1.349s.039.153.07.262l.047.222c.016.113.047.272.047.272.023.167.047.335.063.5,0,0,.008.1.016.193v.064c0,.037.008.074.008.111v.281c0,.249-.008.5-.031.747,0,0-.012.134-.031.261-.012.085-.016.093-.02.134a3.348,3.348,0,0,1-.066.337l-.031.159c-.047.208-.109.413-.172.614l-.039.1a7.629,7.629,0,0,1-.352.826l-.094.182c-.059.1-.109.2-.176.3,0,0-.105.18-.207.32a6.491,6.491,0,0,1-2.062,1.935l-.148.065a.757.757,0,0,1-.836-.379.846.846,0,0,1,.16-.959c.215-.206.477-.309.734-.52a5.037,5.037,0,0,0,1.336-1.649l0-.015a5.193,5.193,0,0,0,.449-1.2,5.773,5.773,0,0,0,.137-1.437s0-.054,0-.1c0-.062,0-.016-.012-.214-.008-.1-.031-.248-.031-.248-.012-.1-.023-.192-.039-.287a.2.2,0,0,1-.016-.076,5.575,5.575,0,0,0-.383-1.177.712.712,0,0,0-.035-.083,5.342,5.342,0,0,0-.328-.594.2.2,0,0,0-.043-.062,4.8,4.8,0,0,0-3.215-2.1v1.178h.02a2.221,2.221,0,0,1,2.055,1.633,1.724,1.724,0,0,1,.063.265,2.5,2.5,0,0,1,.039.566c0,.009,0,.019,0,.028a2.062,2.062,0,0,1-.066.434s-.023.112-.031.126a2.249,2.249,0,0,1-.234.541s-.031.051-.078.124a2.132,2.132,0,0,1,.477.654,2.916,2.916,0,0,1,.141.355,2.657,2.657,0,0,1,.109.723v.044c0,.109-.012.218-.023.325a3.394,3.394,0,0,1-.141.531,1.733,1.733,0,0,1-.07.169,2.2,2.2,0,0,1-1.93,1.289h-.324Zm-1.445-10.951a4.542,4.542,0,0,0-2.168.971,5.2,5.2,0,0,0-1.043,1.178c-.059.087-.059.092-.082.13-.039.062-.086.147-.086.147a5.618,5.618,0,0,0-.59,1.6c-.016.085-.051.28-.062.4-.012.093-.02.187-.031.279s0,.048-.008.169a.341.341,0,0,0,0,.062c0,.12,0,.239,0,.358,0,0,0,.054,0,.1,0,.1,0-.008.012.214.008.1.031.248.031.248.012.118.035.235.055.352.016.058.016.074.023.108.016.084.039.168.059.251a.742.742,0,0,1,.031.1,5.2,5.2,0,0,0,.34.875c.039.089.086.176.133.263a.5.5,0,0,1,.039.065,4.93,4.93,0,0,0,3.348,2.386v-1.256h-.937c-.027,0-.035,0-.066,0a.772.772,0,0,1-.648-.7.243.243,0,0,0-.008-.075v-3.122h0v-3.122a.215.215,0,0,0,.008-.07.772.772,0,0,1,.656-.708.43.43,0,0,1,.059,0h.938Zm1.5,5.874h-1.707v1.559l.879,0,.031,0h.055l.031,0c.328,0,.66,0,.992,0a.754.754,0,0,0,.7-.632c0-.014.008-.028.008-.041a.779.779,0,0,0-.711-.886Zm-.016-1.563a.724.724,0,0,0,.609-.412.873.873,0,0,0,.008-.722.748.748,0,0,0-.641-.424h-1.668v1.558Z" transform="translate(-33311.41 -4655.873)"/>
  </g>
</svg>
