<svg xmlns="http://www.w3.org/2000/svg" width="22" height="14.782" viewBox="0 0 22 14.782">
  <defs>
    <style>
      .cls-1 {
        fill: #fff;
        fill-rule: evenodd;
      }
    </style>
  </defs>
  <g id="Group_113" data-name="Group 113" transform="translate(0 0)">
    <path id="Path_91" data-name="Path 91" class="cls-1" d="M31776.586,3367.926a.652.652,0,0,1,.264.176.823.823,0,0,1,.012,1.073.688.688,0,0,1-.258.183l-13.3,5.221a1.452,1.452,0,0,1-.158.041.645.645,0,0,1-.32-.04,1.238,1.238,0,0,1-.146-.078l-7.3-5.161a.878.878,0,0,1-.281-.4.78.78,0,0,1,.6-.992.791.791,0,0,1,.451.12l7.008,4.953,12.975-5.092.148-.04.158,0Zm-7.287-8.043.141.079,7.3,5.16a.744.744,0,0,1,.217.239.827.827,0,0,1-.1.929.693.693,0,0,1-.258.18l-13.3,5.221a1.507,1.507,0,0,1-.158.041.648.648,0,0,1-.32-.04,1.172,1.172,0,0,1-.146-.079l-7.3-5.16a.721.721,0,0,1-.217-.239.831.831,0,0,1,.1-.929.708.708,0,0,1,.258-.18l13.3-5.221a.846.846,0,0,1,.318-.041Zm-7.654,4.43-4.33,1.7,5.836,4.123,3.223-1.265a8.131,8.131,0,0,1-2.686-.724,3.924,3.924,0,0,1-2.143-2c-.02-.05-.041-.12-.041-.12a1.638,1.638,0,0,1-.051-.176,1.017,1.017,0,0,1-.041-.185s-.02-.14-.023-.264v-.163l0-.034a1.052,1.052,0,0,1,.008-.108,1.865,1.865,0,0,1,.049-.275s.041-.154.08-.265C31761.564,3364.475,31761.6,3364.393,31761.645,3364.313Zm4.129-.276a4.492,4.492,0,0,0-2.465.591c-.045.028-.084.057-.127.088a.706.706,0,0,0-.336.859,2.018,2.018,0,0,0,.814.858,6.486,6.486,0,0,0,4.2.9,3.23,3.23,0,0,0,2.086-.783.658.658,0,0,0,.211-.638,1.892,1.892,0,0,0-.859-.95,6.4,6.4,0,0,0-3.477-.928Zm.418-1.508a7.92,7.92,0,0,1,3.361.865,4.344,4.344,0,0,1,1.52,1.236c.037.049.086.116.086.116.043.069.1.168.1.168a2.515,2.515,0,0,1,.254.609l.035.158c.008.046.018.107.018.107.012.089.021.217.021.217a.849.849,0,0,1-.01.278s-.018.123-.033.2a1.731,1.731,0,0,1-.053.224s-.027.084-.068.181l3.381-1.327-5.834-4.123Z" transform="translate(-31755.059 -3359.843)"/>
  </g>
</svg>
