<svg xmlns="http://www.w3.org/2000/svg" width="18.215" height="17" viewBox="0 0 18.215 17">
  <defs>
    <style>
      .cls-1 {
        fill: #fff;
        fill-rule: evenodd;
      }
    </style>
  </defs>
  <g id="Group_62" data-name="Group 62" transform="translate(-0.001)">
    <path id="Path_43" data-name="Path 43" class="cls-1" d="M17664.352,2582.074l-3,2.4-.129.079a.615.615,0,0,1-.289.061.678.678,0,0,1-.582-.411.781.781,0,0,1-.062-.306v-1.824a2.967,2.967,0,0,1-1.084-.122,2.079,2.079,0,0,1-1.264-1.791c0-.049-.008-.1-.008-.146v-7.189a2.249,2.249,0,0,1,.123-.711l.033-.094a1.977,1.977,0,0,1,1.754-1.254q4.269-.016,8.541,0a1.971,1.971,0,0,1,1.8,1.42,1.171,1.171,0,0,1,.051.2,2.057,2.057,0,0,1,.047.45c0,2.395.023,4.789,0,7.184a3.331,3.331,0,0,1-.041.414,1.974,1.974,0,0,1-.127.421,3.041,3.041,0,0,1-.295.5,1.9,1.9,0,0,1-1.453.716Zm-4.5-9.87a.624.624,0,0,0-.59.626q-.026,3.589,0,7.179a.635.635,0,0,0,.586.626h1.105l.145.018a.792.792,0,0,1,.373.252.942.942,0,0,1,.146.448v1.117l2.125-1.7.119-.077a.844.844,0,0,1,.277-.064c1.41,0,2.822.014,4.238,0a.628.628,0,0,0,.578-.632q.035-3.589,0-7.179a.625.625,0,0,0-.578-.621C17665.535,2572.176,17662.7,2572.2,17659.852,2572.2Zm13.939,6.729v1.823l-.016.157a.748.748,0,0,1-.127.284.651.651,0,0,1-.65.263.669.669,0,0,1-.27-.127l-1.432-1.142a.833.833,0,0,1-.268-.552.723.723,0,0,1,.643-.745.757.757,0,0,1,.418.14l.369.3v-1.117l.018-.16a1.1,1.1,0,0,1,.129-.289.661.661,0,0,1,.373-.252,1.185,1.185,0,0,1,.148-.019c.367,0,.736,0,1.107,0a.6.6,0,0,0,.537-.4.744.744,0,0,0,.043-.227q.029-3.59,0-7.179a.63.63,0,0,0-.586-.627q-4.611-.018-9.217,0a.6.6,0,0,0-.529.369l-.08.136a.787.787,0,0,1-.373.251.688.688,0,0,1-.8-.543,1.256,1.256,0,0,1,.373-.986,1.892,1.892,0,0,1,1.393-.665q4.62-.025,9.24,0a2.031,2.031,0,0,1,1.9,1.913c0,.049.008.1.008.146v7.189a2.251,2.251,0,0,1-.125.711,2.6,2.6,0,0,1-.338.623,1.884,1.884,0,0,1-1.455.725Z" transform="translate(-17657.932 -2567.616)"/>
  </g>
</svg>
