<svg id="Group_161" data-name="Group 161" xmlns="http://www.w3.org/2000/svg" width="25.203" height="27.221" viewBox="0 0 25.203 27.221">
  <defs>
    <style>
      .cls-1 {
        fill: #223869;
        fill-rule: evenodd;
      }
    </style>
  </defs>
  <path id="Path_137" data-name="Path 137" class="cls-1" d="M41571.5,2521.212a12.108,12.108,0,0,1,7.316,2.561,13.27,13.27,0,0,1,2.77,2.942,14.118,14.118,0,0,1,.785,1.3l.055.108a13.257,13.257,0,0,1,.582,1.253l.047.114c.141.358.273.721.379,1.089.043.137.051.169.074.242q.117.421.211.85s.031.143.063.288a.323.323,0,0,1,.016.085q.105.542.164,1.093s.047.333.059.6c0,0,.031.468.043.826v.526c-.008.2-.008.183-.012.3v.043c-.012.16-.012.319-.031.478,0,0-.027.417-.062.685-.02.134-.02.154-.027.213-.023.154-.043.307-.07.46a.678.678,0,0,1-.016.086c-.055.317-.117.633-.2.948,0,0-.035.135-.059.243a1.114,1.114,0,0,1-.047.161,1.973,1.973,0,0,1-.07.243,1.818,1.818,0,0,1-.07.238c-.012.037-.012.042-.055.157-.078.26-.172.52-.273.774l-.043.115c-.18.429-.363.848-.578,1.255l-.059.107a13.621,13.621,0,0,1-.7,1.171s-.086.132-.148.231a12.571,12.571,0,0,1-8.4,5.316,12.016,12.016,0,0,1-8.7-2.183l-.062-.046a13.182,13.182,0,0,1-3.047-3.152,15.121,15.121,0,0,1-.789-1.3l-.055-.107c-.211-.407-.406-.825-.582-1.253l-.043-.114c-.141-.358-.273-.721-.383-1.089-.039-.13-.051-.168-.07-.242q-.117-.421-.211-.85s-.035-.142-.066-.288c0-.038-.008-.047-.012-.085-.074-.361-.125-.726-.168-1.093,0,0-.039-.333-.059-.6,0,0-.027-.468-.039-.826v-.526c.008-.2.008-.183.012-.3v-.043c.008-.159.012-.319.027-.478,0,0,.031-.417.063-.685.023-.134.023-.154.031-.213.023-.154.039-.307.07-.46a.641.641,0,0,0,.016-.086c.055-.317.117-.633.2-.948,0,0,.039-.135.063-.243s.039-.123.047-.161c.02-.086.039-.146.09-.319.02-.08.051-.159.066-.238.051-.133.063-.166.086-.238.066-.208.148-.414.227-.617l.039-.115c.18-.428.367-.848.578-1.255l.063-.108a13.614,13.614,0,0,1,.7-1.171s.2-.3.41-.586a13.281,13.281,0,0,1,2.742-2.731,12.113,12.113,0,0,1,7-2.35Zm-.074,1.938a10.324,10.324,0,0,0-5.977,1.975,10.8,10.8,0,0,0-1.254,1.06s-.172.169-.3.312c-.086.09-.172.183-.258.277,0,0-.137.162-.234.282a9.922,9.922,0,0,0-.676.9s-.121.186-.223.344q-.211.336-.4.686s-.129.244-.238.465c0,0-.078.162-.129.283-.031.073-.074.161-.074.161l-.121.29q-.07.18-.141.363s-.082.241-.133.4c-.09.271-.172.545-.242.823,0,0-.055.22-.086.384a12.444,12.444,0,0,0-.285,2.747s0,.13,0,.264v.073l.023.449s.008.094.016.185c.023.235.023.258.031.331,0,0,.016.126.031.255,0,0,.043.29.07.47,0,0,.039.231.078.391l.031.175c.047.211.094.421.148.629l.055.172c.016.065.035.137.035.137.035.09.066.2.066.2.066.2.09.269.09.269a1.366,1.366,0,0,0,.051.133c.047.153.133.361.133.361.059.137.133.325.133.325.059.129.117.256.172.383,0,0,.086.183.164.343l.07.122a11,11,0,0,0,.633,1.065s.117.179.234.337a11.429,11.429,0,0,0,1.664,1.858s.2.167.359.3a10.328,10.328,0,0,0,7.961,2.259,10.513,10.513,0,0,0,5.82-2.931s.316-.316.559-.588l.238-.283a10.465,10.465,0,0,0,.672-.9s.129-.186.227-.345q.211-.335.4-.686s.125-.244.234-.465c0,0,.078-.162.133-.283.031-.073.07-.161.07-.161.055-.122.125-.29.125-.29.047-.12.09-.241.137-.363,0,0,.066-.172.105-.3q.152-.455.27-.923s.074-.291.113-.49a14.593,14.593,0,0,0,.223-1.556c.027-.359.035-.719.035-1.084v-.338l-.023-.449s-.012-.094-.016-.184c-.023-.24-.023-.261-.031-.331,0,0-.016-.126-.031-.255,0,0-.047-.29-.07-.47,0,0-.039-.231-.074-.391l-.035-.175c-.047-.211-.094-.421-.152-.63l-.051-.172c-.016-.065-.039-.137-.039-.137-.031-.09-.066-.2-.066-.2a1.906,1.906,0,0,0-.09-.268c-.02-.063-.043-.133-.043-.133-.051-.153-.137-.362-.137-.362-.062-.137-.133-.325-.133-.325q-.158-.368-.34-.726l-.066-.122a11.791,11.791,0,0,0-.633-1.065s-.2-.3-.395-.557c-.156-.209-.324-.412-.492-.608l-.023-.025a11.806,11.806,0,0,0-.988-1s-.16-.14-.3-.262a10.432,10.432,0,0,0-6.5-2.4Zm3.926,6.916c-.027-.026-.051-.051-.078-.073a5.5,5.5,0,0,0-6.348-.633,5.426,5.426,0,0,0-1.086.826,4.823,4.823,0,0,0-.41.436l-.078.087a5.864,5.864,0,0,0-.562.813c-.031.054-.039.067-.055.1-.031.061-.066.122-.1.184a.846.846,0,0,0-.043.1c-.078.158-.152.319-.223.481-.016.06-.023.071-.031.1q-.105.282-.187.572l-.031.122c-.043.169-.078.32-.109.509a7.048,7.048,0,0,0-.074,1.676,6.4,6.4,0,0,0,.141.923c.051.208.094.4.176.648a1.09,1.09,0,0,0,.059.156,7.722,7.722,0,0,0,.348.792c.109.209.1.182.133.243a5.84,5.84,0,0,0,3.824,2.8,5.415,5.415,0,0,0,3.582-.529,5.934,5.934,0,0,0,2.336-2.274,6.131,6.131,0,0,0,.313-.62c.031-.063.031-.066.047-.092.059-.152.117-.3.172-.465l.094-.193a.89.89,0,0,1,1.395-.14,1.014,1.014,0,0,1,.242.8,1.107,1.107,0,0,1-.062.255c-.074.211-.152.42-.246.624v.022a9.659,9.659,0,0,1-.574,1.076s-.16.257-.309.451c0,0-.117.167-.23.305a.388.388,0,0,0-.035.044c-.164.2-.336.392-.516.575,0,0-.156.157-.25.246-.109.1-.223.2-.332.291a7.239,7.239,0,0,1-9.738-.536c-.133-.131-.254-.267-.375-.407l-.125-.153c-.086-.1-.172-.21-.25-.318l-.117-.161c-.109-.156-.211-.317-.312-.481l-.133-.235c-.039-.064-.082-.152-.082-.152a8.459,8.459,0,0,1-.371-.8l-.105-.276c-.051-.147-.1-.3-.145-.447l-.055-.186a7.887,7.887,0,0,1-.176-.791l-.027-.195a8.6,8.6,0,0,1-.105-1.311v-.149a7.892,7.892,0,0,1,.082-1.094l.023-.121a9.2,9.2,0,0,1,.188-.934l.055-.186c.039-.136.1-.327.1-.327.039-.125.086-.249.133-.372,0,0,.141-.342.246-.566.047-.093.105-.219.105-.219.051-.093.117-.219.117-.219l.09-.151c.094-.166.2-.329.3-.486l.156-.224c.082-.109.156-.216.246-.321l.125-.154c.129-.155.27-.3.41-.448,0,0,.211-.21.32-.31a7.487,7.487,0,0,1,.926-.713s.238-.155.445-.272a7.174,7.174,0,0,1,3.426-.909h.07a7.316,7.316,0,0,1,4.844,1.921l.027-.67a1.629,1.629,0,0,1,.07-.313.927.927,0,0,1,.863-.6.965.965,0,0,1,.863.987v.036l-.168,3.171a.949.949,0,0,1-.914.915h-.027l-2.941-.178a.973.973,0,0,1,.07-1.936h.031Z" transform="translate(-41558.859 -2521.211)"/>
</svg>
