<svg xmlns="http://www.w3.org/2000/svg" width="213.367" height="203.272" viewBox="0 0 213.367 203.272">
  <defs>
    <style>
      .cls-1, .cls-13, .cls-4, .cls-9 {
        fill: #264df7;
      }

      .cls-2, .cls-6, .cls-7 {
        fill: #fff;
      }

      .cls-2 {
        opacity: 0.7;
      }

      .cls-10, .cls-12, .cls-14, .cls-16, .cls-19, .cls-20, .cls-3, .cls-8 {
        fill: none;
      }

      .cls-10, .cls-12, .cls-14, .cls-15, .cls-16, .cls-17, .cls-18, .cls-19, .cls-3, .cls-4, .cls-5, .cls-6, .cls-8, .cls-9 {
        stroke: #263238;
      }

      .cls-10, .cls-12, .cls-15, .cls-16, .cls-20, .cls-3, .cls-4, .cls-5, .cls-6 {
        stroke-linecap: round;
        stroke-linejoin: round;
      }

      .cls-10, .cls-12, .cls-14, .cls-15, .cls-17, .cls-18, .cls-19, .cls-20, .cls-3, .cls-4, .cls-5, .cls-6 {
        stroke-width: 0.985px;
      }

      .cls-11, .cls-18, .cls-5 {
        fill: #263238;
      }

      .cls-17, .cls-18, .cls-19, .cls-8, .cls-9 {
        stroke-miterlimit: 10;
      }

      .cls-8, .cls-9 {
        stroke-width: 0.5px;
      }

      .cls-10 {
        stroke-dasharray: 2.927 2.927;
      }

      .cls-12 {
        stroke-dasharray: 2.93 2.93;
      }

      .cls-13 {
        font-size: 5px;
        font-family: CarosBold, Caros;
      }

      .cls-15, .cls-17 {
        fill: #cfcfcf;
      }

      .cls-16 {
        stroke-width: 0.493px;
      }

      .cls-20 {
        stroke: #fff;
      }
    </style>
  </defs>
  <g id="Authentication-bro" transform="translate(-12.123 -28.507)">
    <g id="freepik--background-simple--inject-2" transform="translate(12.123 38.066)">
      <path id="Path_577" data-name="Path 577" class="cls-1" d="M188.933,223.045c11.244-10.111,19.6-23.92,25.9-37.312,9.369-19.893,14.356-44.715,1.279-64.058-7.544-11.157-19.329-18.2-32.411-20.854-12.586-2.548-24.826-2-35.651-9.974-10.948-8.077-20.476-18.151-30.277-27.529-25.2-24.116-70.983-17.2-92.246,15.27S10.06,153.24,30.536,172.806c18.387,17.577,44.041,21.013,64.344,34.754,10.06,6.825,17.1,16.868,27.756,22.86,12.4,6.966,27.6,9.824,41.571,6.266A58.477,58.477,0,0,0,188.933,223.045Z" transform="translate(-12.123 -48.924)"/>
      <path id="Path_578" data-name="Path 578" class="cls-2" d="M188.933,223.045c11.244-10.111,19.6-23.92,25.9-37.312,9.369-19.893,14.356-44.715,1.279-64.058-7.544-11.157-19.329-18.2-32.411-20.854-12.586-2.548-24.826-2-35.651-9.974-10.948-8.077-20.476-18.151-30.277-27.529-25.2-24.116-70.983-17.2-92.246,15.27S10.06,153.24,30.536,172.806c18.387,17.577,44.041,21.013,64.344,34.754,10.06,6.825,17.1,16.868,27.756,22.86,12.4,6.966,27.6,9.824,41.571,6.266A58.477,58.477,0,0,0,188.933,223.045Z" transform="translate(-12.123 -48.924)"/>
    </g>
    <g id="freepik--Plants--inject-2" transform="translate(186.155 183.411)">
      <line id="Line_228" data-name="Line 228" class="cls-3" x1="1.761" y1="16.531" transform="translate(21.976 17.823)"/>
      <path id="Path_579" data-name="Path 579" class="cls-4" d="M439.082,386.637s-3.162-2.462-3.162-8.09,4.218-10.2,4.218-10.2,4.573,5.629,3.517,11.253S439.082,386.637,439.082,386.637Z" transform="translate(-417.115 -368.35)"/>
      <line id="Line_229" data-name="Line 229" class="cls-3" y1="12.422" x2="0.805" transform="translate(21.976 5.401)"/>
      <path id="Path_580" data-name="Path 580" class="cls-3" d="M450.33,427.507a73.674,73.674,0,0,1,5.6-11.407" transform="translate(-424.969 -394.373)"/>
      <path id="Path_581" data-name="Path 581" class="cls-4" d="M458.278,403.6s-1.756-3.608.728-8.645,8.29-7.28,8.29-7.28,1.615,7.066-1.82,11.649S458.278,403.6,458.278,403.6Z" transform="translate(-428.972 -378.879)"/>
      <line id="Line_230" data-name="Line 230" class="cls-3" y1="10.525" x2="6.402" transform="translate(29.306 14.192)"/>
      <path id="Path_582" data-name="Path 582" class="cls-3" d="M432.909,428.382a45.768,45.768,0,0,0-3.868-9.141L426.58,415" transform="translate(-412.025 -393.773)"/>
      <path id="Path_583" data-name="Path 583" class="cls-4" d="M411.127,402.458a12.035,12.035,0,0,1-11.376-2.375c-5.46-4.587-5.155-13.946-5.155-13.946s10.584-1.511,14.856,4.486a12.581,12.581,0,0,1,1.674,11.835Z" transform="translate(-394.593 -377.951)"/>
      <line id="Line_231" data-name="Line 231" class="cls-3" x1="12.545" y1="13.073" transform="translate(3.989 11.435)"/>
      <rect id="Rectangle_130" data-name="Rectangle 130" class="cls-5" width="13.391" height="13.132" transform="translate(16.134 30.814)"/>
    </g>
    <g id="freepik--Window--inject-2" transform="translate(43.791 29)">
      <rect id="Rectangle_131" data-name="Rectangle 131" class="cls-6" width="89.575" height="75.465" transform="translate(59.94)"/>
      <circle id="Ellipse_4" data-name="Ellipse 4" class="cls-1" cx="10.274" cy="10.274" r="10.274" transform="matrix(0.159, -0.987, 0.987, 0.159, 93.37, 30.667)"/>
      <path id="Path_607" data-name="Path 607" class="cls-7" d="M311.914,67.122a4.482,4.482,0,1,1-4.482-4.482A4.482,4.482,0,0,1,311.914,67.122Z" transform="translate(-202.286 -47.333)"/>
      <path id="Path_608" data-name="Path 608" class="cls-7" d="M296.59,88.31a10.265,10.265,0,0,0,14.752,0v-.3a3.95,3.95,0,0,0-3.95-3.954h-6.848a3.954,3.954,0,0,0-3.954,3.954Z" transform="translate(-198.82 -59.007)"/>
      <rect id="Rectangle_132" data-name="Rectangle 132" class="cls-8" width="61.983" height="7.535" transform="translate(73.954 45.685)"/>
      <rect id="Rectangle_133" data-name="Rectangle 133" class="cls-9" width="61.983" height="7.535" transform="translate(73.954 56.983)"/>
      <rect id="Rectangle_134" data-name="Rectangle 134" class="cls-4" width="89.575" height="3.649" transform="translate(59.94)"/>
      <line id="Line_232" data-name="Line 232" class="cls-3" y1="0.673" transform="translate(0 115.935)"/>
      <path id="Path_622" data-name="Path 622" class="cls-10" d="M81.72,201.135V143.443A8.873,8.873,0,0,1,90.6,134.57H132.81" transform="translate(-81.72 -86.534)"/>
      <line id="Line_233" data-name="Line 233" class="cls-3" x2="0.669" transform="translate(51.777 48.036)"/>
      <path id="Path_623" data-name="Path 623" class="cls-11" d="M198.043,130.361l-7.253-4.191v8.377Z" transform="translate(-141.161 -81.956)"/>
      <line id="Line_234" data-name="Line 234" class="cls-3" x2="0.673" transform="translate(126.122 172.798)"/>
      <path id="Path_624" data-name="Path 624" class="cls-12" d="M363.31,297.273H365.8a8.9,8.9,0,0,0,8.9-8.9V204.19" transform="translate(-235.181 -124.475)"/>
      <line id="Line_235" data-name="Line 235" class="cls-3" y1="0.669" transform="translate(139.523 78.382)"/>
      <path id="Path_625" data-name="Path 625" class="cls-11" d="M353.32,402.881l7.253,4.186V398.69Z" transform="translate(-229.737 -230.474)"/>
      <text id="CREATE_ACCOUNT" data-name="CREATE ACCOUNT" class="cls-13" transform="translate(82.832 40.565)"><tspan x="0" y="0">CREATE ACCOUNT</tspan></text>
    </g>
    <g id="freepik--Character--inject-2" transform="translate(34.55 109.984)">
      <path id="Path_626" data-name="Path 626" class="cls-6" d="M245.419,284.944a4.55,4.55,0,0,1,4.041-2.434h38.927s2.812,0,1.97,5.346-12.381,37.99-15.2,47.836-3.376,30.673-3.376,30.673H225.07S228.815,316.646,245.419,284.944Z" transform="translate(-150.602 -248.142)"/>
      <path id="Path_627" data-name="Path 627" class="cls-5" d="M333.074,291.8c-3.936,9.182-12.286,45.5-13.614,74.569h3.763s.578-20.84,3.376-30.673,14.351-42.49,15.2-47.836-1.97-5.346-1.97-5.346S336.227,284.435,333.074,291.8Z" transform="translate(-202.043 -248.142)"/>
      <path id="Path_628" data-name="Path 628" class="cls-5" d="M171.414,242.085s-7.144-.869-11.862-5.829,10.256-22.646,18.251-26.814,11.289-3.026,19.862,3.294S214.6,229.2,214.5,236s-3.809,10.056,1.365,13.409,19.816,12.877,21.955,19.42-1.57,14.683-10.156,19.111-22.674,4.223-36.242-.164-16.522-18.264-14.775-23.911,6.37-9.528,4.978-13.823S171.414,242.085,171.414,242.085Z" transform="translate(-114.405 -206.98)"/>
      <path id="Path_629" data-name="Path 629" class="cls-1" d="M142.109,326.713s-7.39-1.028-10.8,1.179-20.276,31.028-20.276,31.028l-9.314-12.536L93.64,350.01s3.786,14.652,8.19,21.941,6.916,8.027,8.427,7.785c4.5-.714,17.518-15.78,17.518-15.78l4.732,15.744L129.3,391.144h59.835l-7.258-12.1s9.469-43.682,7.057-48.31-16.463-4.018-20.881-4.018H155.4a31.532,31.532,0,0,1-5.82.6A73.358,73.358,0,0,1,142.109,326.713Z" transform="translate(-78.975 -272.102)"/>
      <path id="Path_630" data-name="Path 630" class="cls-7" d="M182.977,328.431l.123.05-1.147,2.921-.127-.05Zm-.314,3.249.123.05,1.151-2.921-.127-.05Zm5.219,9.3-.132-.036-.505,1.8h.141Zm.865.246-.132-.036-.455,1.552h.137Zm-5.46.1.428,1.415h.141l-.455-1.456Zm.992-.3-.132.036.505,1.674h.141Zm3.663-6.684,1.561-2.73-.114-.068-1.561,2.73Zm.783.455,1.461-2.553a.589.589,0,0,0-.027-.218l-1.552,2.707Zm1.024,3.881.259-.341.027-.25-.4.51Zm-3.863-2.771,2.175,2.275.1-.091-2.175-2.275Zm-.687.605,2.17,2.275.1-.091-2.175-2.275Zm-2.4,0,.036-.132-1.679-.414v.137Zm-1.665-1.365,1.888.478.032-.132-1.9-.455Zm2.107,4.063-.041-.127-2.043.71v.141Zm-.323-.983-1.784.592v.141l1.82-.605Zm-.987,25.422,1.147-2.921-.123-.05L181.8,363.6Zm1.856-2.644-1.147,2.921.123.05,1.151-2.921Zm-.059,13.7-.35-1.169-.132.036.428,1.411ZM186,355.054l-.127.046,1.065,2.953h.027l.041-.2Zm.714-.259.56,1.543a1.888,1.888,0,0,1,.046-.264l-.478-1.324Zm1.993-7.69.073.241.041-.273Zm-2.994-.177-.182,3.131h.132l.182-3.135Zm.714,3.185h.132l.182-3.135h-.132Zm-3.827-3.322.064-.118-1.547-.833v.155Zm-1.483-1.82,1.907,1.024.064-.118-1.934-1.024Zm1.192,4.737-.086-.1-1.069,1.01v.177Zm-.587-.678-.086-.1-.519.455v.177Zm-.569,5.383v.141l2.83-1.106-.05-.123Zm0-.965v.146l2.5-.978-.05-.127Zm1.67,5.7.032-.132-1.7-.382v.137Zm.2-.874.032-.132-1.9-.428v.137Zm-.223,10.547.036-.127-1.7-.432v.141Zm-1.643-1.365,1.888.482.032-.132-1.92-.482Zm2.107,4.063-.041-.127-2.066.683v.146Zm-.282-.851-.041-.127-1.784.592v.141Zm4.045-26.673.359-1.26h-.141l-.346,1.224Zm1.288-1.26h-.137l-.414,1.465.127.041Zm-4.141,1.588.132-.036-.455-1.552h-.141Zm.987-.3-.387-1.292h-.141l.4,1.333Zm.751,43.386,1.065,2.949.127-.046-1.065-2.949Zm2.034,2.6-1.065-2.949-.127.046,1.069,2.949Zm1.506.728-.132-.036-.191.682h.141Zm-8.3-12.431,1.483.8.064-.118-1.547-.833Zm0-1.019,1.82,1,.027-.136-1.847-1.01Zm1.169,4.728-.086-.1-1.083.969v.173Zm-.587-.683-.086-.1-.519.455v.177Zm2.175,4.259-2.757,1.1v.146l2.83-1.11Zm-2.78.268,2.5-.978-.05-.123-2.453.956Zm0,5.037v.141l1.506.337h.173l.023-.091Zm1.866-.359.032-.132-1.9-.428v.141Zm-33.476-59.2.123.05,1.151-2.921-.127-.05Zm.833.328.127.05,1.147-2.921-.123-.05Zm29.4,4.072,1.365.35v-.136l-1.342-.341Zm.255-1-.036.127,1.156.3v-.141Zm1.142,5.192v-.141l-.91.3.041.127Zm-1.219-.692.041.127,1.156-.382v-.141Zm-2.421,3.495h.155l.592-1.028-.114-.068Zm1.037,0h.155l.332-.582-.114-.068Zm-6.766-1.256-.1.086.96,1.169h.173Zm.592-.482,1.424,1.738h.173l-1.492-1.82Zm-3.394,1.533-.123.045.055.159h.146Zm.719-.259.168.455h.141l-.182-.51Zm-4.923.455.387-1.524-.132-.032-.4,1.556Zm1.124-1.338-.341,1.338h.123l.332-1.3Zm-10.315-.423-.132-.036-.51,1.8h.141Zm.86.246-.127-.036-.455,1.552h.141Zm-5.46.1.428,1.415h.141l-.455-1.456Zm.987-.3-.127.036.505,1.674h.137Zm3.667-6.684,1.561-2.73-.118-.068-1.561,2.73Zm.664.382.114.064,1.561-2.73-.118-.068Zm17.8,2L177,337.941l.05-.123-2.889-1.224Zm-.35.824,2.889,1.224.05-.123-2.912-1.219Zm2.434-4.714.127.036.855-3.017-.132-.041Zm.86.246.132.036.851-3.021-.127-.036Zm-4.7-5.615.91,3,.127-.036-.887-3.012Zm.855-.259.91,3,.127-.036-.91-3ZM163.3,340.061l-.91-3-.127.036.91,3.008Zm.86-.259-.91-3-.132.036.91,3.008Zm3.549-1.738,3.108-.455v-.132l-3.108.455Zm.127.887,3.108-.455v-.132l-3.108.455Zm2.275-3.827.132.032.7-3.058-.132-.032Zm1.574-2.858-.7,3.058.132.032.7-3.058Zm-11.007,1.115.114.073,1.679-2.653-.114-.068Zm2.553-2.1-.114-.073-1.679,2.653.114.073Zm-2.917-3.053,2.876-1.256v-.032h-.246l-2.671,1.165Zm.3.7.055.123,2.876-1.251-.055-.123Zm-2.73-1.984h-.141l-.71,2.466.132.036Zm-1.57,2.275.637-2.275h-.141l-.628,2.221Zm12.313-1.31-.309-.951h-.141l.3.983Zm-.987.3.132-.036-.364-1.206h-.141Zm-10.3,10.4.1.082,1.911-2.489-.109-.082Zm.71.546.109.082,1.907-2.493-.1-.082Zm-4.468-3.235,2.175,2.275.1-.091-2.175-2.275Zm-.673.6,2.175,2.275.1-.091-2.17-2.275Zm11.912-4.022-.055.123,2.889,1.229.055-.127Zm.3-.7,2.889,1.224.055-.123-2.889-1.224Zm-14.6,4.723.032-.132-1.7-.414v.137Zm-1.665-1.365,1.884.478.036-.132-1.925-.455Zm2.107,4.063-.046-.127-2.066.71v.141Zm-.328-.983-1.779.592v.141l1.82-.605Zm.036,22.451-1.147,2.921.123.05,1.151-2.921Zm.837.328-1.151,2.921.127.05,1.147-2.921Zm28.348-15.7,1.279.692v-.155l-1.215-.655Zm.487-.91-.064.114.855.455v-.155Zm.814,6.225-1.27,1.1.086.1,1.183-1.024Zm-1.77.523,1.77-1.529v-.177l-1.856,1.6Zm1.629,3.349.046.127.1-.041v-.141Zm-.328-.833.046.123.423-.164v-.146Zm.455,5.005-1.365-.309-.032.132,1.392.314Zm0-.91-1.165-.264-.027.132,1.192.268Zm0,10.534-1.351-.378-.032.132,1.365.35Zm-1.119-1.21-.036.132,1.169.246v-.137Zm1.133,5.142v-.146l-.91.3.041.127Zm0-.946v-.141l-1.2.4.041.127Zm-18.474-26.942-2.889-1.229-.05.123,2.889,1.229Zm-3.29-.278,2.889,1.224.05-.123-2.889-1.224Zm18.861,29.936-.114-.064-.623,1.1h.155Zm.778.455-.114-.068-.373.655h.155Zm-7.358-.587.96,1.174h.173l-1.028-1.26Zm.7-.569,1.424,1.743h.173l-1.492-1.82Zm-3.394,1.538-.123.046.055.159h.146Zm.719-.259.168.455H170l-.182-.51Zm-4.55-1.06-.132-.036-.4,1.561h.159Zm.737.187-.341,1.338h.146l.332-1.306Zm-10.315-.428-.132-.036-.51,1.82h.141Zm.86.246-.127-.036-.455,1.556h.141Zm-5.46.1.428,1.42h.141l-.455-1.456Zm.86-.255.505,1.674h.137l-.514-1.715Zm5.237-9.51-1.561,2.73.118.068,1.561-2.73Zm.91.51-.118-.068-1.556,2.73.114.068ZM170.664,349.4l-2-2.425-.1.086,1.984,2.43Zm-.692.569-2.011-2.439-.1.086,1.988,2.43Zm-4.919-1.329,1.065,2.949.127-.046-1.065-2.949Zm.846-.3,1.065,2.949.123-.046-1.065-2.949Zm11.143,21.777-2.889-1.224-.05.123,2.889,1.224Zm-.35.828-2.889-1.229-.05.127,2.889,1.224Zm.346-8.836-.851,3.021.127.036.855-3.021Zm.992.282-.127-.036-.855,3.017.132.036Zm-4.628.323-.91-3-.127.036.91,3.008Zm.86-.259-.91-3-.132.036.91,3.008Zm-9.1-7.858-1.561,2.73.114.064,1.561-2.73Zm-.664-.378-.118-.068-1.556,2.73.114.064Zm-5.3,2.48-1.988-2.439-.1.086,1.988,2.43Zm.692-.569-1.984-2.43-.1.086,1.984,2.43Zm-6.279-.987,1.065,2.953.127-.045-1.069-2.953Zm.842-.3,1.065,2.953.127-.046-1.065-2.953Zm21.7,2.389.132.032.774-3.039-.132-.036Zm1.775-2.789-.132-.032-.774,3.04.132.032Zm-5.133,2.553-2.889-1.224-.05.123,2.889,1.229Zm.35-.824-2.908-1.224-.05.123,2.889,1.224ZM163.3,372.345l-.91-3.008-.127.041.91,3Zm.86-.259-.91-3.008-.132.041.91,3Zm6.657-2.18v-.132l-3.108.455v.132Zm.127.887v-.132l-3.108.455v.132Zm-.71-3.34.7-3.058-.132-.032-.7,3.062Zm.874.2.7-3.058-.132-.032-.7,3.062Zm-8.645-4.55-.114-.073-1.67,2.635.114.073Zm.76.478-.114-.073-1.679,2.653.114.073Zm-.041-4.309-.05-.123-2.88,1.256.055.123Zm.359.824-.055-.123-2.876,1.256.055.123Zm-5.529-1.365-.127-.041-.846,3,.132.036Zm-1.715,2.776.851-3.021-.127-.036-.855,3.021Zm12.308-1.333-.91-3-.132.036.91,3.008Zm-1.888-2.73.91,3,.132-.036-.91-3Zm-4.364-7.735-2.507,1.893.082.1,2.507-1.888Zm-1.884,2.73,2.5-1.893-.077-.1-2.507,1.888Zm-2.166-2.6-.869-3.017-.132.041.874,3.012Zm-1.861-2.73.869,3.053.132-.036-.86-3.026Zm-2.994-.177-.182,3.131h.132l.182-3.135Zm.71,3.185h.137l.182-3.135h-.137Zm5.155,18.342-.109-.082L157.3,370.87l.1.082Zm.71.546-.1-.082-1.911,2.494.109.082Zm-6.484-.828,2.175,2.275.1-.1-2.175-2.275Zm-.628.642,2.175,2.275.1-.091-2.17-2.275Zm22.851-17.477-.1-.082-1.975,2.439.1.086Zm-.8-.646-1.975,2.439.1.086,1.97-2.443Zm.551-4.628h-.132l-.355,3.117h.136Zm-1.024-.118-.35,3.121h.132l.35-3.117Zm-6.775,20.066-2.889-1.224-.055.123,2.889,1.224Zm-2.594-1.929,2.889,1.224.055-.123-2.889-1.224Zm-14.784-17.25.064-.118-1.547-.833v.155Zm-1.483-1.82,1.907,1.024.064-.118-1.975-1.069Zm1.192,4.737-.091-.1-1.106.965v.177Zm-.587-.678-.091-.1-.514.455v.177Zm2.17,4.259-2.776,1.087v.141l2.826-1.106Zm-.278-.71-.046-.127-2.457.951v.146Zm-.828,6.53.027-.132-1.7-.382v.136Zm-1.674-1.306,1.866.423.032-.132-1.9-.428Zm1.67,10.971.032-.127-1.7-.432v.141Zm-1.67-1.365,1.884.482.036-.132-1.92-.482Zm2.107,4.063-.046-.127-2.061.683v.146Zm-.282-.851-.046-.127-1.779.592v.141Zm25.9-26.3.114.064.969-1.693h-.141Zm.778.455.114.064,1.229-2.139h-.155Zm-3.59-.91-.96-1.174h-.173l1.028,1.256Zm.592-.482.1-.086-.5-.605h-.173Zm-4.314,2.057-.992-2.73H168.9l1.01,2.794Zm.714-.259.127-.045L170,342.732h-.141Zm-6.507-1.006.132.032.387-1.515h-.141Zm.869.223.132.032.455-1.738h-.141Zm-10.4-.455.355-1.26h-.141l-.346,1.224Zm1.288-1.26h-.141l-.414,1.465.132.041Zm-4.141,1.588.127-.036-.455-1.552H151.4Zm.987-.3-.391-1.292h-.137l.4,1.333Zm27.06,33.467-.064.118,1.279.692v-.155Zm.423-.787-.064.118.855.455v-.15Zm.819,6.357v-.173l-1.27,1.1.086.1Zm0-1.183v-.177L179.3,383.3l.086.1Zm-.141,4.878.046.127.1-.036v-.146Zm-.328-.833.046.127.423-.168v-.146Zm-.91,4.691-.032.132,1.392.314v-.141Zm1.365-.614-1.165-.264-.027.132,1.192.273Zm-18.46-13.382-2.889-1.224-.05.123,2.889,1.224Zm-3.29-.278,2.889,1.229.05-.127-2.889-1.224Zm9.169,3,1.984,2.43.1-.086-1.988-2.425Zm1.4,2.912-2-2.425-.1.082,1.988,2.43Zm-3.727,1.593-1.065-2.953-.127.046,1.065,2.953Zm.842-.3-1.065-2.953-.123.046,1.065,2.953Zm-1.82,3.417-.114-.068-1.561,2.73.114.068Zm-.778-.455-.118-.064-1.556,2.73.114.068Zm-5.3,2.48-1.966-2.407-.1.082,1.988,2.43Zm.692-.569-1.984-2.425-.1.082,1.984,2.43Zm-5.087,1.92-1.069-2.949-.123.046,1.065,2.949Zm.842-.3-1.065-2.949-.127.046,1.065,2.949Zm21.386-3.517-.132-.032-.774,3.04.132.032Zm.869.218-.132-.032-.774,3.044.132.032Zm-5.083,2.575L169.9,388.07l-.05.123,2.889,1.224Zm.35-.828-2.908-1.247-.05.123,2.889,1.229Zm-15.261,2.507-.127.455h.141l.114-.4Zm-.737-.209-.127-.036-.2.683h.141Zm10.429-1.256.573,1.9h.141l-.582-1.943Zm-.728.218-.127.036.491,1.647h.141Zm-4.409-7.567-.082-.1-2.507,1.888.082.109Zm.537.719-.077-.109-2.507,1.888.082.109Zm-4.8-.669.127-.041-.869-3.012-.132.036Zm-.733.209-.86-3.035-.127.036.869,3.012Zm-4.045,0,.182-3.131h-.132l-.182,3.135Zm.91.055.182-3.135h-.137l-.182,3.131Zm21.468,1.174-.1-.086L173.7,386l.1.086Zm-.8-.651L173,385.436l.1.086,1.97-2.439Zm.551-4.623H175.4l-.355,3.117h.137Zm-1.024-.114-.35,3.117h.132l.35-3.121Zm-24.152.883.064-.118-1.547-.833v.155Zm.487-.91-1.988-1.1v.15l1.907,1.028Zm-.792,3.781-.091-.1-1.106.965v.177Zm-.587-.683-.091-.1-.514.455v.177Zm2.17,4.259-2.776,1.088v.146l2.826-1.11Zm-2.776.268,2.5-.978-.046-.123-2.453.956Zm0,5.037v.141l1.506.337h.168l.023-.091Zm1.866-.359.032-.132-1.9-.428v.141ZM176.693,376.7l.969-1.693h-.146l-.91,1.624Zm1.852-1.693-1.188,2.07.114.068,1.229-2.139Zm-4.882,1.256.1-.086-.96-1.169h-.173Zm.7-.569.1-.086-.5-.6h-.173Zm-4.314,2.057-.992-2.73h-.146l1.01,2.789Zm.714-.255.127-.05L170,375.007h-.141Zm-6.37-.974.387-1.515h-.141l-.378,1.483Zm.737.187.132.032.455-1.734h-.141Zm-10.4-.455.355-1.256h-.141l-.346,1.219ZM155.876,375l-.414,1.465.132.036.423-1.5Zm-4,1.588.127-.041L151.549,375h-.141Zm.855-.259.132-.036L152.472,375h-.137Zm-5.246-40.574,1.365.35v-.137l-1.342-.341Zm.255-1-.032.127,1.156.3v-.141Zm1.11,5.178v-.141l-.91.3.046.127Zm-1.192-.692.041.127,1.156-.382v-.141Zm-2.448,3.495h.155l.592-1.028-.118-.068Zm1.033,0h.155l.337-.582-.118-.068Zm-6.762-1.256-.1.086.96,1.169h.173Zm.592-.482,1.42,1.738h.177l-1.492-1.82Zm-3.394,1.533-.127.045.059.159h.141Zm.719-.259.164.455h.146l-.182-.51Zm-4.928.455.387-1.524-.127-.032-.4,1.556Zm1.128-1.338-.341,1.338h.141l.328-1.3Zm-10.816,1.338.5-1.761-.127-.036-.51,1.8Zm1.365-1.515-.132-.036-.455,1.552h.141Zm17.646-4.5,2.889,1.224.055-.123-2.889-1.224Zm-.35.824,2.9,1.247.055-.123-2.889-1.242Zm2.434-4.714.132.036.851-3.017-.127-.041Zm.865.246.127.036.855-3.021-.127-.036Zm-4.664-5.615.91,3,.127-.036-.91-3.012Zm.86-.259.91,3,.127-.036-.91-3Zm-10.948,9.9.91,3.008.127-.041-.91-3Zm1.893,2.73-.91-3-.127.036.91,3.008Zm3.549-1.738,3.108-.455V337.5l-3.108.455Zm.1.755v.132l3.108-.455v-.132Zm3.121-6.721-.132-.032-.7,3.058.127.032Zm.746.168-.7,3.058.127.032.7-3.058Zm-11.03,1.092.114.073,1.679-2.653-.114-.068Zm.76.482.114.073,1.679-2.653-.114-.073Zm7.18-5.974-.291-.969h-.137l.3.987Zm-.987.3.127-.036-.323-1.083-.132.027Zm-10.3,10.4.1.082,1.907-2.489-.1-.082Zm2.73-1.866-.109-.082-1.907,2.494.109.082Zm4.778-4.227-.05.123,2.889,1.229.05-.127Zm.3-.7,2.889,1.224.05-.123-2.889-1.224ZM118.382,360.71l-1.147,2.921.123.05,1.147-2.921Zm.833.328-1.147,2.921.123.05,1.151-2.921Zm28.348-15.7,1.283.692v-.155l-1.219-.655Zm.491-.91-.064.114.855.455v-.155Zm.8,6.193-1.274,1.1.091.1,1.183-1.024Zm-1.77.523,1.77-1.529v-.177l-1.856,1.6Zm1.624,3.349.05.127.1-.041v-.141Zm.146-1.019-.455.187.05.123.423-.164Zm0,5.183-1.365-.309-.027.132,1.392.314Zm-1.165-1.183-.032.132,1.2.268v-.137Zm1.165,10.775-1.342-.341-.036.132,1.365.35Zm-1.124-1.21-.032.132,1.156.287v-.137Zm1.124,5.183v-.146l-.91.3.046.127Zm0-.946v-.141l-1.2.4.041.127Zm-21.386-28.047,2.889,1.229.055-.123-2.889-1.229Zm-.35.828L130,345.276l.055-.123-2.889-1.224Zm18.865,29.936-.118-.064-.651,1.1h.155Zm.778.455-.118-.068-.373.655h.155Zm-7.358-.587.96,1.174h.173l-1.028-1.26Zm.7-.569,1.42,1.743h.177l-1.492-1.82Zm-3.394,1.538-.127.046.059.159h.141Zm.719-.259.164.455h.146l-.182-.51Zm-5.064.455h.137l.387-1.524-.127-.036Zm1.265-1.338-.341,1.338h.141l.328-1.306Zm-14.8-.118-.127.036.25.828.109-.1Zm.86-.259-.132.041.123.391.1-.1Zm5.228-9.405-.118-.064-1.561,2.73.118.068Zm-.783,3.185,1.561-2.73-.118-.068-1.561,2.73Zm14.26-17.691-2-2.416-.1.086,1.988,2.43Zm-.7.569-1.988-2.43-.1.086,1.984,2.43Zm-4.914-1.329,1.065,2.949.127-.046-1.065-2.949Zm.842-.3,1.065,2.949.127-.046-1.065-2.949Zm11.139,21.777-2.889-1.224-.055.123,2.889,1.224Zm-.35.828-2.889-1.229-.055.127,2.889,1.224Zm.346-8.836-.855,3.021.132.036.851-3.021Zm.992.282-.127-.036-.86,3.017.127.036Zm-4.628.323-.91-3-.127.036.91,3.008Zm.86-.259-.91-3-.127.036.91,3.008Zm-9.1-7.858-1.561,2.73.118.064,1.561-2.73Zm-.778-.455-1.561,2.73.118.064,1.561-2.73Zm-7.28.2,1.988,2.43.1-.086-1.975-2.421Zm.692-.569,1.988,2.43.1-.086-1.957-2.421Zm-4.191,1.365,1.065,2.953.127-.045-1.065-2.953Zm.846-.3,1.065,2.953.123-.045-1.065-2.953Zm21.682,2.4.132.032.769-3.039-.127-.036Zm1.775-2.789-.132-.032-.774,3.04.132.032Zm-5.105,2.553-2.889-1.224-.055.123,2.889,1.229Zm.35-.824-2.889-1.224-.055.123,2.889,1.224Zm-10.01,12.954.91,3,.127-.036-.91-3.008Zm7.69.787v-.132l-3.108.455v.132Zm.123.887v-.132l-3.108.455v.132Zm-.71-3.34.7-3.058-.132-.032-.7,3.062Zm.874.2.7-3.058-.127-.032-.7,3.062Zm-8.764-4.623-1.183,1.87.05.173,1.26-1.988Zm.76.478-1.6,2.53.05.168,1.665-2.625Zm-2.858-3.1.055.123,2.876-1.256-.055-.123Zm3.29-.309-.055-.123-2.876,1.256.05.123Zm-5.528-1.365-.132-.041-.865,3,.127.036Zm-1.72,2.776.855-3.021-.127-.036-.855,3.021Zm12.317-1.333-.91-3-.127.036.91,3.008Zm-1.893-2.73.91,3,.127-.036-.91-3Zm-4.364-7.735-2.5,1.893.082.1,2.5-1.888Zm-1.966,2.607.082.109,2.507-1.893-.082-.1Zm-3.08-5.46.869,3.012.132-.036-.874-3.017Zm-.86.246.869,3.017.127-.036-.883-2.98Zm-3.185,2.953h.137l.182-3.135h-.137Zm1.21-3.071h-.132l-.182,3.135h.132Zm1.1,23.065-1.92-2-.1.091,1.925,2Zm-2.566-1.365-.086.136,1.947,2.025.091-.1ZM143.477,351.3l-.1-.082-1.97,2.439.1.086Zm-.8-.646-1.975,2.439.1.086,1.975-2.443Zm.56-4.587H143.1l-.35,3.117h.132Zm-1.028-.118-.35,3.121h.137l.35-3.117Zm-6.775,20.066-2.889-1.224-.05.123,2.889,1.224Zm.35-.828-2.889-1.224-.05.123,2.889,1.224Zm-18.019-15.43-.086-.1-.1.091-.228.373Zm1.588,3.581-2.776,1.088v.141l2.826-1.106Zm-.278-.71-.05-.127-2.448.96v.146Zm-.833,6.53.032-.132-1.7-.382v.137Zm.2-.874.027-.132-1.893-.428v.136Zm-.2,10.534.036-.127-1.7-.432v.141Zm-1.661-1.365,1.884.482.032-.132-1.916-.487Zm2.1,4.063-.041-.127-2.061.678v.146Zm-.282-.851-.041-.127-1.779.587v.141Zm25.9-26.3.118.064.969-1.693h-.177Zm.778.455.118.064,1.224-2.139h-.155Zm-3.586-.91-.96-1.174h-.173l1.028,1.256Zm.587-.482.1-.086-.491-.605h-.177Zm-4.314,2.057-.992-2.73h-.141l1.006,2.794Zm.719-.259.127-.046-.883-2.443h-.146Zm-6.507-1.006.132.032.382-1.515h-.137Zm.869.223.127.032.455-1.738h-.141Zm-10.529-.482.132.036.355-1.26h-.141Zm1.42-1.224H123.6l-.414,1.465.127.041Zm23.838,34.877,1.283.692v-.155l-1.219-.655Zm.491-.91-.064.118.855.455v-.15Zm.783,6.348v-.177l-1.274,1.1.091.1Zm0-1.183v-.177l-1.856,1.606.086.1Zm-.146,4.878.05.127.1-.036v-.146Zm-.328-.833.05.127.423-.168v-.146Zm-.91,4.691-.027.132,1.392.314v-.141Zm1.365-.614-1.165-.264-.032.132,1.2.273Zm-12.554-10.661,1.988,2.43.1-.086-1.988-2.425Zm1.4,2.912-1.988-2.425-.1.082,1.984,2.43Zm-3.722,1.593-.91-2.539-.064.223.851,2.362Zm.842-.3-1.065-2.953-.127.046,1.065,2.953Zm-1.82,3.417-.118-.068-1.561,2.73.118.068Zm-.91-.51-.96,1.72-.15.532,1.26-2.2Zm12.654.073-.127-.032-.774,3.04.132.032Zm.874.218-.132-.032-.774,3.044.132.032Zm-5.078,2.566-2.889-1.224-.055.123,2.889,1.224Zm.35-.828-2.889-1.224-.055.123,2.889,1.229Zm-5.569,1.042.573,1.9h.141l-.587-1.943Zm-.728.218-.132.036.5,1.647h.141Zm8.914-6.1-.1-.086-1.97,2.439.1.086Zm-.8-.651-1.975,2.439.1.086,1.975-2.439Zm.555-4.623H143.1l-.35,3.117h.132Zm-1.028-.114-.35,3.117h.137l.35-3.121Zm2.207-1.506.969-1.693h-.173l-.91,1.624Zm1.847-1.693-1.188,2.07.118.068,1.224-2.139Zm-4.878,1.256.1-.086-.96-1.169h-.173Zm.692-.569.1-.086-.491-.6h-.177Zm-4.314,2.057-.992-2.73h-.141l1.006,2.789Zm.719-.255.127-.05-.883-2.439h-.146Zm-6.325-1.734.077.25.255-1.006h-.137Zm.687.946.127.032.455-1.734h-.141ZM116.43,354.49l.05.127.1-.041v-.141Zm.146-1.019-.455.187.05.123.423-.164Zm-1.4,5.005,1.4.314v-.137l-1.365-.309Zm.2-.874,1.2.268v-.137l-1.169-.291Zm1.2,10.666-1.365-.341-.032.132,1.365.35Zm-1.124-1.21-.032.132,1.156.291v-.137Zm1.124,5.183v-.146l-.91.3.041.127Zm0-.946v-.141l-1.2.4.041.127Zm-2.885,2.73-.114-.064-.628,1.1h.155Zm.778.455-.114-.068-.373.655h.155Zm-7.353-.587.956,1.174h.177l-1.028-1.26Zm.692-.569,1.424,1.743h.173l-1.492-1.82Zm-2.548,1.233-.127.046.168.455h.146ZM103.3,347.664l.455.582-.455-.605Zm-2.826,1.015,1.069,2.949.123-.046-1.051-2.994Zm.846-.3,1.065,2.949.127-.046-1.065-2.949Zm11.125,21.732-2.889-1.224-.05.123,2.889,1.224Zm-.35.828-2.885-1.229-.055.127,2.889,1.224Zm.35-8.836-.855,3.021.127.036.855-3.021Zm.992.282-.132-.036-.851,3.017.127.036Zm-4.628.323-.91-3-.127.036.91,3.008Zm.855-.259-.91-3-.127.036.91,3.008Zm-8.973-7.79-.114-.068-1.561,2.73.118.064Zm-.778-.455-.114-.068-1.561,2.73.118.064Zm8.313,2.789-2.889-1.224-.05.123,2.889,1.229Zm.35-.824-2.889-1.224-.05.123,2.889,1.224Zm-5.433,14.178,3.108-.455v-.132l-3.108.455Zm.127.887,3.108-.455v-.132l-3.108.455Zm2.275-3.822.132.027.7-3.058-.132-.032Zm1.574-2.862-.7,3.062.132.027.7-3.058Zm-8.554-5.415-1.2.523.046.127,1.206-.528Zm.355.824-1.26.551.046.127,1.27-.555Zm4.1-2.73.91,3.008.132-.041-.91-3Zm-.86.259.91,3,.132-.036-.91-3Zm-6.871-5.82.082.1,2.507-1.888-.082-.109Zm3.131-1.069-.082-.1-2.507,1.888.082.109Zm4.737,15.43-2.889-1.224-.055.123,2.889,1.224Zm-2.594-1.929,2.889,1.224.055-.123-2.889-1.247Zm14.8,13.423-.064.118.114-.091Zm.423-.787-.064.118.332.177.109-.1Zm-5.155,3.285h.137l.187-1.684h-.132Zm-.91-.155.132.041.187-1.67h-.132Zm3.363-4.841h-.155l-.91,1.624.114.068Zm1.033,0h-.155l-1.188,2.07.118.068Zm-5.033,1.256.1-.086-.956-1.169h-.177Zm.692-.569.1-.086-.5-.6h-.173Zm-4.5-.687.651,1.82.25.291-.755-2.093Z" transform="translate(-79.875 -272.345)"/>
      <path id="Path_631" data-name="Path 631" class="cls-14" d="M142.109,326.713s-7.39-1.028-10.8,1.179-20.276,31.028-20.276,31.028l-9.314-12.536L93.64,350.01s3.786,14.652,8.19,21.941,6.916,8.027,8.427,7.785c4.5-.714,17.518-15.78,17.518-15.78l4.732,15.744L129.3,391.144h59.835l-7.258-12.1s9.469-43.682,7.057-48.31-16.463-4.018-20.881-4.018H155.4a31.532,31.532,0,0,1-5.82.6A73.358,73.358,0,0,1,142.109,326.713Z" transform="translate(-78.975 -272.102)"/>
      <path id="Path_632" data-name="Path 632" class="cls-5" d="M162.882,380.059a19.671,19.671,0,0,1-1.934-11.2c.878-6.129,4.673-12.841,4.673-12.841s-7.572,10.921-7.572,14.561,2.252,8.964,2.252,8.964l-1.966,5.61Z" transform="translate(-114.078 -288.204)"/>
      <path id="Path_633" data-name="Path 633" class="cls-15" d="M207.544,304.127l.2,6.425-5.419.2s-1.119,23.575,3.7,27.793,19.384-28.38,19.384-28.38l-5.005-1.006L218.8,296.11Z" transform="translate(-138.145 -255.554)"/>
      <path id="Path_634" data-name="Path 634" class="cls-5" d="M226.059,301.71,214.47,312.63v-3.863Z" transform="translate(-144.825 -258.606)"/>
      <path id="Path_635" data-name="Path 635" class="cls-6" d="M210.6,378.885a27.4,27.4,0,0,1,3.5-8.755" transform="translate(-142.716 -295.893)"/>
      <path id="Path_636" data-name="Path 636" class="cls-15" d="M193,234.11l-13.2,13.719a25.809,25.809,0,0,1,1.483,9.1c-.155,4.86,4.264,12.008,7.876,15.33s10.984-1.784,13.737-3.586a34.581,34.581,0,0,0,5.119-4.241,5.943,5.943,0,0,0,4.905-2.994S193.746,240.949,193,234.11Z" transform="translate(-125.931 -221.765)"/>
      <path id="Path_637" data-name="Path 637" class="cls-3" d="M199.715,265.07a9.164,9.164,0,0,1,.874,2.958c.041,1.27-2.184,7.217-1.866,7.612s1.315,1.706,2.093,1.538" transform="translate(-136.226 -238.638)"/>
      <path id="Path_638" data-name="Path 638" class="cls-16" d="M213,278.712a8.5,8.5,0,0,1,5.779-.068" transform="translate(-144.024 -245.778)"/>
      <path id="Path_639" data-name="Path 639" class="cls-16" d="M190.43,279.888a11.49,11.49,0,0,1,3.053-.428" transform="translate(-131.724 -246.48)"/>
      <path id="Path_640" data-name="Path 640" class="cls-11" d="M191.584,256.364a3.317,3.317,0,0,0-2.73,1.11c-1.142,1.315-1.7,2.462-1.984,1.533s.987-2.635,1.438-2.98S190.87,254.325,191.584,256.364Z" transform="translate(-129.761 -233.294)"/>
      <path id="Path_641" data-name="Path 641" class="cls-11" d="M209.69,254.836a8.481,8.481,0,0,1,3.854.91c1.743.956.91-.983-.314-1.538S209.886,253.708,209.69,254.836Z" transform="translate(-142.22 -232.531)"/>
      <path id="Path_642" data-name="Path 642" class="cls-4" d="M249.982,300.509c.082,1.365-.623,2.5-1.565,2.557s-1.775-1-1.856-2.357.487-4.855,1.429-4.91S249.905,299.148,249.982,300.509Z" transform="translate(-162.31 -255.384)"/>
      <path id="Path_643" data-name="Path 643" class="cls-11" d="M193.974,273.135c.064.91-.282,1.647-.769,1.679s-.91-.664-.987-1.556.282-1.647.769-1.679S193.933,272.261,193.974,273.135Z" transform="translate(-132.692 -242.184)"/>
      <path id="Path_644" data-name="Path 644" class="cls-11" d="M215.553,272.365c.064.91-.282,1.643-.764,1.679s-.91-.664-.992-1.561.287-1.643.769-1.674S215.494,271.473,215.553,272.365Z" transform="translate(-144.452 -241.765)"/>
      <path id="Path_645" data-name="Path 645" class="cls-3" d="M203.22,295.037s2.316.742,5.46-1.947" transform="translate(-138.694 -253.908)"/>
      <path id="Path_646" data-name="Path 646" class="cls-17" d="M86.109,337.6l-4.236-5.674c-.2-1.511-.573-4.632-.637-6.739-.086-2.867.055-4.618-1.574-7.162s-6.175-6.561-6.6-7.494-1.665,1.7-.887,3.4a5.939,5.939,0,0,0,1.488,2.23s-8.368-4.159-8.645-3.481,3.895,12.668,5.806,15.83c.8,1.32,3,3.085,4.068,4.614a14.2,14.2,0,0,1,1.333,2.4c.992,4.218,2.148,8.859,2.73,9.028C80.276,344.935,85.9,345.026,86.109,337.6Z" transform="translate(-63.368 -263.305)"/>
      <path id="Path_647" data-name="Path 647" class="cls-18" d="M76.374,310.73h0a.6.6,0,0,1-.737-.428L68.98,285.69a.6.6,0,0,1,.41-.714h0a.605.605,0,0,1,.737.423L76.8,310A.605.605,0,0,1,76.374,310.73Z" transform="translate(-65.527 -249.475)"/>
      <path id="Path_648" data-name="Path 648" class="cls-17" d="M67.458,307.19s-6.425,3.394-6.029,4.059,1.57,3.035,2.107,2.98,4.436-3.24,4.719-3.64S67.458,307.19,67.458,307.19Z" transform="translate(-61.411 -261.592)"/>
      <path id="Path_649" data-name="Path 649" class="cls-17" d="M71.03,316.35s-5.337,3.936-5.164,4.509,2.789,7.358,3.244,7.908,4.632-1.365,4.632-1.365Z" transform="translate(-63.836 -266.584)"/>
      <path id="Path_650" data-name="Path 650" class="cls-19" d="M73.264,324.39s-5.11,4.013-4.773,4.141" transform="translate(-65.261 -270.966)"/>
      <line id="Line_236" data-name="Line 236" class="cls-19" x1="4.295" y2="2.516" transform="translate(4.672 57.774)"/>
      <path id="Path_651" data-name="Path 651" class="cls-19" d="M84,323.14l2.357,2.3s-3.131,6.684-.132,10.374" transform="translate(-73.722 -270.285)"/>
      <path id="Path_652" data-name="Path 652" class="cls-1" d="M286.581,330.079s5.72-.746,8.19,3.981,17.91,46.512,18.16,50.507-10.2,4.973-13.682,3.235-13.2-22.387-14.178-25.126" transform="translate(-183.301 -274.043)"/>
      <rect id="Rectangle_135" data-name="Rectangle 135" class="cls-7" width="3.131" height="0.136" transform="translate(104.25 87.984) rotate(-74.291)"/>
      <path id="Path_653" data-name="Path 653" class="cls-7" d="M295.531,371.427l-.869-3.017-.132.041.874,3.012Z" transform="translate(-188.456 -294.956)"/>
      <rect id="Rectangle_136" data-name="Rectangle 136" class="cls-7" width="3.14" height="0.137" transform="translate(105.792 88.289) rotate(-74.16)"/>
      <path id="Path_654" data-name="Path 654" class="cls-7" d="M296.183,387.12l-1.988-2.43-.1.086,1.988,2.425Z" transform="translate(-188.217 -303.828)"/>
      <rect id="Rectangle_137" data-name="Rectangle 137" class="cls-7" width="3.14" height="0.137" transform="matrix(0.917, -0.4, 0.4, 0.917, 109.38, 87.802)"/>
      <path id="Path_655" data-name="Path 655" class="cls-7" d="M305.383,405.053l-.114-.073-1.679,2.653.114.073Z" transform="translate(-193.394 -314.886)"/>
      <path id="Path_656" data-name="Path 656" class="cls-7" d="M292.64,369l.869,3.017.132-.041-.874-3.012Z" transform="translate(-187.426 -295.256)"/>
      <path id="Path_657" data-name="Path 657" class="cls-7" d="M301.92,406.578l.114.073L303.713,404l-.114-.073Z" transform="translate(-192.484 -314.314)"/>
      <path id="Path_658" data-name="Path 658" class="cls-7" d="M297.709,385.87l-1.984-2.43-.1.086,1.984,2.425Z" transform="translate(-189.05 -303.147)"/>
      <rect id="Rectangle_138" data-name="Rectangle 138" class="cls-7" width="3.14" height="0.137" transform="translate(109.158 78.946) rotate(-36.93)"/>
      <path id="Path_659" data-name="Path 659" class="cls-7" d="M305.44,346.926l.905,3.008.127-.041-.9-3Z" transform="translate(-194.402 -283.228)"/>
      <path id="Path_660" data-name="Path 660" class="cls-7" d="M302.709,374.889l-.082-.109-2.507,1.888.082.109Z" transform="translate(-191.503 -298.428)"/>
      <path id="Path_661" data-name="Path 661" class="cls-7" d="M302.034,337.093l.942-1.488c-.032-.032-.059-.068-.091-.1l-.965,1.52Z" transform="translate(-192.484 -277.021)"/>
      <path id="Path_662" data-name="Path 662" class="cls-7" d="M296.12,348.464l.109.082,1.907-2.494-.1-.082Z" transform="translate(-189.323 -282.727)"/>
      <path id="Path_663" data-name="Path 663" class="cls-7" d="M299.88,360.293l2.889,1.224.055-.123-2.889-1.224Z" transform="translate(-191.372 -290.465)"/>
      <path id="Path_664" data-name="Path 664" class="cls-7" d="M307.33,346.356l.905,3.008.127-.041-.9-3Z" transform="translate(-195.432 -282.917)"/>
      <path id="Path_665" data-name="Path 665" class="cls-7" d="M306.774,387.219l1.561-2.726-.118-.064-1.556,2.721Z" transform="translate(-195.067 -303.687)"/>
      <rect id="Rectangle_139" data-name="Rectangle 139" class="cls-7" width="0.132" height="3.14" transform="matrix(0.391, -0.921, 0.921, 0.391, 108.164, 70.663)"/>
      <rect id="Rectangle_140" data-name="Rectangle 140" class="cls-7" width="3.14" height="0.137" transform="matrix(0.917, -0.4, 0.4, 0.917, 109.013, 86.997)"/>
      <path id="Path_666" data-name="Path 666" class="cls-7" d="M322.94,457.13l-.05.123,1.452.619h.355Z" transform="translate(-203.912 -343.307)"/>
      <path id="Path_667" data-name="Path 667" class="cls-7" d="M322.952,432.149l-.883-2.443-.182-.505-.127.045.168.46.9,2.489Z" transform="translate(-203.296 -328.085)"/>
      <path id="Path_668" data-name="Path 668" class="cls-7" d="M317.74,440.936l1.988,2.43.1-.086-1.984-2.43Z" transform="translate(-201.105 -334.434)"/>
      <path id="Path_669" data-name="Path 669" class="cls-7" d="M321.1,432.819l-.987-2.748-.077-.2-.123.041.055.159,1.01,2.794Z" transform="translate(-202.288 -328.451)"/>
      <path id="Path_670" data-name="Path 670" class="cls-7" d="M320.738,420.74l-3.108.437.018.132,3.108-.437Z" transform="translate(-201.045 -323.475)"/>
      <path id="Path_671" data-name="Path 671" class="cls-7" d="M344.186,449.168l.842-.728-.027-.15-.91.778Z" transform="translate(-215.466 -338.489)"/>
      <path id="Path_672" data-name="Path 672" class="cls-7" d="M294.56,347.263l.1.082,1.911-2.493-.109-.082Z" transform="translate(-188.473 -282.073)"/>
      <rect id="Rectangle_141" data-name="Rectangle 141" class="cls-7" width="0.137" height="3.14" transform="translate(102.377 81.738) rotate(-19.85)"/>
      <path id="Path_673" data-name="Path 673" class="cls-7" d="M342.9,447.313l1.2-1.037a1.372,1.372,0,0,1-.036-.146l-1.251,1.083Z" transform="translate(-214.768 -337.312)"/>
      <path id="Path_674" data-name="Path 674" class="cls-7" d="M321.353,442.035l-1.988-2.425-.1.082,1.988,2.43Z" transform="translate(-201.934 -333.759)"/>
      <rect id="Rectangle_142" data-name="Rectangle 142" class="cls-7" width="3.14" height="0.137" transform="translate(102.938 76.759) rotate(-86.67)"/>
      <path id="Path_675" data-name="Path 675" class="cls-7" d="M318.133,394.083l-.9-3-.132.036.905,3.008Z" transform="translate(-200.757 -307.311)"/>
      <rect id="Rectangle_143" data-name="Rectangle 143" class="cls-7" width="0.132" height="3.14" transform="translate(114.654 74.923) rotate(-19.84)"/>
      <path id="Path_676" data-name="Path 676" class="cls-7" d="M312.142,357.768l-.432,1.706.132.032.441-1.738.332-1.306-.132-.032Z" transform="translate(-197.819 -288.427)"/>
      <path id="Path_677" data-name="Path 677" class="cls-7" d="M310.178,357.506l-.378,1.483.132.032.382-1.515.391-1.524-.132-.032Z" transform="translate(-196.778 -288.166)"/>
      <path id="Path_678" data-name="Path 678" class="cls-7" d="M315.21,391.681l.905,3,.127-.036-.9-3.008Z" transform="translate(-199.727 -307.616)"/>
      <rect id="Rectangle_144" data-name="Rectangle 144" class="cls-7" width="0.132" height="3.14" transform="translate(113.804 75.24) rotate(-19.85)"/>
      <rect id="Rectangle_145" data-name="Rectangle 145" class="cls-7" width="0.137" height="3.14" transform="translate(103.225 81.425) rotate(-19.84)"/>
      <path id="Path_679" data-name="Path 679" class="cls-7" d="M303.7,338.4l.764-1.206-.082-.127-.8,1.265Z" transform="translate(-193.394 -277.876)"/>
      <path id="Path_680" data-name="Path 680" class="cls-7" d="M311.71,406.113l2.889,1.224.05-.123-2.889-1.224Z" transform="translate(-197.819 -315.436)"/>
      <path id="Path_681" data-name="Path 681" class="cls-7" d="M292.249,334.858l-.118-.068-1.561,2.721.118.068Z" transform="translate(-186.298 -276.634)"/>
      <path id="Path_682" data-name="Path 682" class="cls-7" d="M339.7,431.1l-.059-.168-1.024,1.793.114.064Z" transform="translate(-212.485 -329.028)"/>
      <path id="Path_683" data-name="Path 683" class="cls-7" d="M333.967,437.584l-.132-.014-.355,3.117.137.014Z" transform="translate(-209.683 -332.647)"/>
      <rect id="Rectangle_146" data-name="Rectangle 146" class="cls-7" width="0.132" height="3.14" transform="matrix(0.391, -0.921, 0.921, 0.391, 122.513, 96.446)"/>
      <path id="Path_684" data-name="Path 684" class="cls-7" d="M337.967,429.28l.4-.687-.055-.173-.5.86-.933,1.629.118.064Z" transform="translate(-211.536 -327.66)"/>
      <path id="Path_685" data-name="Path 685" class="cls-7" d="M332.609,449.086l-.1-.086-1.975,2.439.1.086Z" transform="translate(-208.076 -338.876)"/>
      <path id="Path_686" data-name="Path 686" class="cls-7" d="M333.873,417.849l-2.4-1.019-.05.123,2.512,1.065Z" transform="translate(-208.561 -321.344)"/>
      <path id="Path_687" data-name="Path 687" class="cls-7" d="M331.075,447.846l-.1-.086L329,450.2l.1.086Z" transform="translate(-207.242 -338.2)"/>
      <path id="Path_688" data-name="Path 688" class="cls-7" d="M325.423,407.332l-.132-.032-.7,3.058.132.032Z" transform="translate(-204.838 -316.15)"/>
      <path id="Path_689" data-name="Path 689" class="cls-7" d="M328.1,430.066l.1-.086-.96-1.174-1.028-1.256-.1.086.96,1.169Z" transform="translate(-205.667 -327.186)"/>
      <path id="Path_690" data-name="Path 690" class="cls-7" d="M292.28,338.491l.118.068,1.561-2.726-.118-.064Z" transform="translate(-187.23 -277.168)"/>
      <rect id="Rectangle_147" data-name="Rectangle 147" class="cls-7" width="0.132" height="3.14" transform="translate(113.804 107.516) rotate(-19.85)"/>
      <path id="Path_691" data-name="Path 691" class="cls-7" d="M337.453,455.5l-.132-.036-.241.946.15-.041Z" transform="translate(-211.645 -342.397)"/>
      <rect id="Rectangle_148" data-name="Rectangle 148" class="cls-7" width="0.132" height="3.14" transform="translate(114.657 107.202) rotate(-19.84)"/>
      <path id="Path_692" data-name="Path 692" class="cls-7" d="M322.88,386.318l1.2.51a.61.61,0,0,0-.064-.173l-1.088-.455Z" transform="translate(-203.907 -304.651)"/>
      <path id="Path_693" data-name="Path 693" class="cls-7" d="M339.521,455.962l-.132-.032-.109.423.155-.055Z" transform="translate(-212.844 -342.653)"/>
      <path id="Path_694" data-name="Path 694" class="cls-7" d="M302.724,434.41l-2.384-1.01.1.187,2.23.946Z" transform="translate(-191.623 -330.374)"/>
      <path id="Path_695" data-name="Path 695" class="cls-7" d="M287.67,345.542l1.552,1.615.1-.091-1.643-1.706Z" transform="translate(-184.718 -282.394)"/>
      <path id="Path_696" data-name="Path 696" class="cls-7" d="M317.74,370l1.065,1.3-.15-.391-.8-.992Z" transform="translate(-201.105 -295.774)"/>
      <path id="Path_697" data-name="Path 697" class="cls-7" d="M288.51,349.258l.1-.1-1.047-1.092-.009.187Z" transform="translate(-184.652 -283.871)"/>
      <path id="Path_698" data-name="Path 698" class="cls-7" d="M327.61,396.686l.906,3.008.127-.041-.9-3Z" transform="translate(-206.484 -310.346)"/>
      <path id="Path_699" data-name="Path 699" class="cls-7" d="M302.824,432.339l-2.889-1.229-.055.123,2.889,1.229Z" transform="translate(-191.372 -329.126)"/>
      <path id="Path_700" data-name="Path 700" class="cls-7" d="M296.576,415.8l-.109-.082-1.907,2.489.1.082Z" transform="translate(-188.473 -320.739)"/>
      <path id="Path_701" data-name="Path 701" class="cls-7" d="M308.363,420.268l-.9-3.008-.132.041.905,3Z" transform="translate(-195.432 -321.578)"/>
      <path id="Path_702" data-name="Path 702" class="cls-7" d="M306.473,420.838l-.9-3.008-.132.041.905,3Z" transform="translate(-194.402 -321.889)"/>
      <path id="Path_703" data-name="Path 703" class="cls-7" d="M298.136,417l-.1-.077-1.911,2.489.109.082Z" transform="translate(-189.323 -321.393)"/>
      <path id="Path_704" data-name="Path 704" class="cls-7" d="M290.47,358.971l.132.036.423-1.5.428-1.515-.127-.041-.441,1.556Z" transform="translate(-186.244 -288.166)"/>
      <path id="Path_705" data-name="Path 705" class="cls-7" d="M288.916,357.217l-.346,1.224.132.036.355-1.26.5-1.761-.127-.036Z" transform="translate(-185.208 -287.877)"/>
      <path id="Path_706" data-name="Path 706" class="cls-7" d="M292.249,405.8l-.118-.068-1.561,2.726.118.064Z" transform="translate(-186.298 -315.295)"/>
      <path id="Path_707" data-name="Path 707" class="cls-7" d="M293.959,406.778l-.118-.068-1.561,2.726.118.064Z" transform="translate(-187.23 -315.829)"/>
      <path id="Path_708" data-name="Path 708" class="cls-7" d="M309.931,385.41l-1.561,2.721.114.068,1.561-2.726Z" transform="translate(-195.999 -304.221)"/>
      <path id="Path_709" data-name="Path 709" class="cls-7" d="M323.371,406.86l-.7,3.058.132.032.7-3.058Z" transform="translate(-203.792 -315.911)"/>
      <path id="Path_710" data-name="Path 710" class="cls-7" d="M324.021,388.787,322.16,388l-.05.123,1.975.837C324.062,388.91,324.044,388.846,324.021,388.787Z" transform="translate(-203.487 -305.632)"/>
      <path id="Path_711" data-name="Path 711" class="cls-7" d="M320.486,418.922l-.018-.132-3.108.437.018.132Z" transform="translate(-200.898 -322.412)"/>
      <path id="Path_712" data-name="Path 712" class="cls-7" d="M327.745,426.3l-.1.086,1.424,1.738.564.692.1-.086-.5-.605Z" transform="translate(-206.501 -326.505)"/>
      <path id="Path_713" data-name="Path 713" class="cls-7" d="M312.283,428.713l.332-1.3-.132-.032-.341,1.333-.432,1.706.132.032Z" transform="translate(-197.819 -327.094)"/>
      <rect id="Rectangle_149" data-name="Rectangle 149" class="cls-7" width="0.132" height="3.14" transform="matrix(0.391, -0.921, 0.921, 0.391, 113.541, 91.514)"/>
      <path id="Path_714" data-name="Path 714" class="cls-7" d="M310.314,428.446l.391-1.524-.132-.032-.4,1.556-.378,1.483.132.036Z" transform="translate(-196.778 -326.827)"/>
      <path id="Path_715" data-name="Path 715" class="cls-7" d="M331.656,440.481l.35-3.117-.132-.014-.355,3.117Z" transform="translate(-208.615 -332.527)"/>
      <path id="Path_716" data-name="Path 716" class="cls-14" d="M286.581,330.079s5.72-.746,8.19,3.981,17.91,46.512,18.16,50.507-10.2,4.973-13.682,3.235-13.2-22.387-14.178-25.126" transform="translate(-183.301 -274.043)"/>
      <path id="Path_717" data-name="Path 717" class="cls-15" d="M182.906,453.794s-11.689-1.492-13.682-1.247-10.943,6.22-10.943,6.22h25.354Z" transform="translate(-114.203 -340.794)"/>
      <path id="Path_718" data-name="Path 718" class="cls-1" d="M260.682,434.844l-48.232,7.963.705,4.973h59.471a43.632,43.632,0,0,0,.746-7.462c0-3.731-2.239-7.958-2.239-7.958" transform="translate(-143.724 -329.808)"/>
      <path id="Path_719" data-name="Path 719" class="cls-7" d="M327.23,455.821l.905,3,.127-.036-.9-3.008Z" transform="translate(-206.277 -342.571)"/>
      <path id="Path_720" data-name="Path 720" class="cls-7" d="M332.125,437.19l-1.975,2.439.1.086,1.975-2.439Z" transform="translate(-207.869 -332.44)"/>
      <path id="Path_721" data-name="Path 721" class="cls-7" d="M328.62,438.389l.1.086,1.97-2.439-.1-.086Z" transform="translate(-207.035 -331.764)"/>
      <path id="Path_722" data-name="Path 722" class="cls-7" d="M314.83,450.816l.905,3.008.127-.041-.9-3Z" transform="translate(-199.519 -339.846)"/>
      <path id="Path_723" data-name="Path 723" class="cls-7" d="M330.153,458.218l-.905-3.008-.127.041.905,3Z" transform="translate(-207.307 -342.26)"/>
      <path id="Path_724" data-name="Path 724" class="cls-7" d="M317.753,453.218l-.9-3.008-.132.041.905,3Z" transform="translate(-200.549 -339.535)"/>
      <rect id="Rectangle_150" data-name="Rectangle 150" class="cls-7" width="3.14" height="0.137" transform="translate(124.733 110.734) rotate(-75.75)"/>
      <path id="Path_725" data-name="Path 725" class="cls-7" d="M336.02,463.416h.141l.66-2.33-.132-.036Z" transform="translate(-211.068 -345.443)"/>
      <path id="Path_726" data-name="Path 726" class="cls-7" d="M311.38,465.12l-.05.123.919.391h.346Z" transform="translate(-197.612 -347.661)"/>
      <rect id="Rectangle_151" data-name="Rectangle 151" class="cls-7" width="3.14" height="0.137" transform="matrix(0.246, -0.969, 0.969, 0.246, 125.59, 110.933)"/>
      <rect id="Rectangle_152" data-name="Rectangle 152" class="cls-7" width="0.137" height="3.14" transform="translate(103.048 108.33) rotate(-19.84)"/>
      <path id="Path_727" data-name="Path 727" class="cls-7" d="M321.73,447.257l2.885,1.224.055-.123-2.889-1.229Z" transform="translate(-203.28 -337.857)"/>
      <path id="Path_728" data-name="Path 728" class="cls-7" d="M323.8,466l-.027.114h.137l.023-.086Z" transform="translate(-204.392 -348.141)"/>
      <rect id="Rectangle_153" data-name="Rectangle 153" class="cls-7" width="0.132" height="3.14" transform="matrix(0.391, -0.921, 0.921, 0.391, 118.799, 108.581)"/>
      <path id="Path_729" data-name="Path 729" class="cls-7" d="M293.71,443.906l1.988,2.43.1-.086-1.988-2.43Z" transform="translate(-188.009 -336.053)"/>
      <path id="Path_730" data-name="Path 730" class="cls-7" d="M297.329,445.005l-1.988-2.425-.1.082,1.984,2.43Z" transform="translate(-188.843 -335.377)"/>
      <path id="Path_731" data-name="Path 731" class="cls-7" d="M342.526,436.473l.278-.241-.055-.132-.309.273Z" transform="translate(-214.566 -331.846)"/>
      <rect id="Rectangle_154" data-name="Rectangle 154" class="cls-7" width="3.14" height="0.137" transform="translate(104.756 114.952) rotate(-74.16)"/>
      <path id="Path_732" data-name="Path 732" class="cls-7" d="M343.9,450.962l1.1.25v-.137l-1.074-.246Z" transform="translate(-215.362 -339.873)"/>
      <path id="Path_733" data-name="Path 733" class="cls-7" d="M306.164,464.12l-.614.969h.159l.569-.9Z" transform="translate(-194.462 -347.116)"/>
      <path id="Path_734" data-name="Path 734" class="cls-7" d="M344.725,453.038l-1.233-.278-.032.127,1.256.287C344.72,453.129,344.725,453.083,344.725,453.038Z" transform="translate(-215.122 -340.925)"/>
      <path id="Path_735" data-name="Path 735" class="cls-7" d="M343.816,438.214l.032-.027-.05-.137-.068.064Z" transform="translate(-215.269 -332.909)"/>
      <rect id="Rectangle_155" data-name="Rectangle 155" class="cls-7" width="3.14" height="0.137" transform="matrix(0.917, -0.4, 0.4, 0.917, 108.839, 113.899)"/>
      <path id="Path_736" data-name="Path 736" class="cls-7" d="M304.243,463.133l-.114-.073-.919,1.452h.159Z" transform="translate(-193.187 -346.538)"/>
      <rect id="Rectangle_156" data-name="Rectangle 156" class="cls-7" width="3.14" height="0.137" transform="translate(105.629 115.22) rotate(-74.16)"/>
      <rect id="Rectangle_157" data-name="Rectangle 157" class="cls-7" width="3.14" height="0.137" transform="matrix(0.917, -0.4, 0.4, 0.917, 109.207, 114.711)"/>
      <path id="Path_737" data-name="Path 737" class="cls-7" d="M309.664,444.608l-.114-.068-1.561,2.726.114.068Z" transform="translate(-195.792 -336.445)"/>
      <path id="Path_738" data-name="Path 738" class="cls-7" d="M306.28,446.286l.114.064,1.561-2.721-.118-.068Z" transform="translate(-194.86 -335.911)"/>
      <rect id="Rectangle_158" data-name="Rectangle 158" class="cls-7" width="3.14" height="0.137" transform="matrix(0.917, -0.4, 0.4, 0.917, 76.561, 113.902)"/>
      <path id="Path_739" data-name="Path 739" class="cls-7" d="M222.368,464.934l-.118-.064-.359.628h.155Z" transform="translate(-148.869 -347.525)"/>
      <path id="Path_740" data-name="Path 740" class="cls-7" d="M220.827,456.387l.783-2.767-.146.023-.764,2.707Z" transform="translate(-148.22 -341.394)"/>
      <path id="Path_741" data-name="Path 741" class="cls-7" d="M224.383,465.914l-.118-.064-.1.182h.155Z" transform="translate(-150.106 -348.059)"/>
      <path id="Path_742" data-name="Path 742" class="cls-7" d="M257.464,448.051l.055-.123-.173-.068-.246.036Z" transform="translate(-168.058 -338.255)"/>
      <path id="Path_743" data-name="Path 743" class="cls-7" d="M265.08,463.416h.141l.655-2.33-.127-.036Z" transform="translate(-172.407 -345.443)"/>
      <path id="Path_744" data-name="Path 744" class="cls-7" d="M267.032,446.173l-.532,2.1.127.036.551-2.161Z" transform="translate(-173.181 -337.323)"/>
      <path id="Path_745" data-name="Path 745" class="cls-7" d="M233.3,463.133l-.114-.073-.919,1.452h.159Z" transform="translate(-154.526 -346.538)"/>
      <path id="Path_746" data-name="Path 746" class="cls-7" d="M235.333,464.188l-.114-.068-.619.969h.159Z" transform="translate(-155.796 -347.116)"/>
      <path id="Path_747" data-name="Path 747" class="cls-7" d="M295.2,465.85l-.1.182h.155l.068-.118Z" transform="translate(-188.767 -348.059)"/>
      <path id="Path_748" data-name="Path 748" class="cls-7" d="M338.671,461.59l-.6,2.12h.141l.587-2.084Z" transform="translate(-212.185 -345.737)"/>
      <rect id="Rectangle_159" data-name="Rectangle 159" class="cls-7" width="0.137" height="3.14" transform="translate(102.204 108.641) rotate(-19.85)"/>
      <path id="Path_749" data-name="Path 749" class="cls-7" d="M267.726,461.59l-.6,2.12h.137l.592-2.084Z" transform="translate(-173.524 -345.737)"/>
      <path id="Path_750" data-name="Path 750" class="cls-7" d="M240.435,465.12l-.055.123.924.391h.341Z" transform="translate(-158.946 -347.661)"/>
      <path id="Path_751" data-name="Path 751" class="cls-7" d="M293.308,464.934l-.118-.064-.359.628h.155Z" transform="translate(-187.53 -347.525)"/>
      <rect id="Rectangle_160" data-name="Rectangle 160" class="cls-7" width="3.131" height="0.136" transform="translate(72.663 115.005) rotate(-74.291)"/>
      <path id="Path_752" data-name="Path 752" class="cls-7" d="M278.324,458.06l-.127-.05-1.147,2.921.123.05Z" transform="translate(-178.93 -343.786)"/>
      <rect id="Rectangle_161" data-name="Rectangle 161" class="cls-7" width="3.14" height="0.137" transform="matrix(0.917, -0.4, 0.4, 0.917, 76.92, 114.722)"/>
      <path id="Path_753" data-name="Path 753" class="cls-7" d="M280.154,458.776l-.127-.046-1.147,2.921.127.046Z" transform="translate(-179.927 -344.179)"/>
      <path id="Path_754" data-name="Path 754" class="cls-7" d="M272.52,452.892l1.392.314,1.665.373.032-.132-1.7-.382-1.365-.3Z" transform="translate(-176.461 -340.925)"/>
      <path id="Path_755" data-name="Path 755" class="cls-7" d="M276.012,451.654l.032-.132-1.9-.428-1.165-.264-.032.132,1.2.268Z" transform="translate(-176.696 -339.873)"/>
      <path id="Path_756" data-name="Path 756" class="cls-7" d="M264.722,448.279l.45-1.779-.146.023-.437,1.725Z" transform="translate(-172.14 -337.514)"/>
      <path id="Path_757" data-name="Path 757" class="cls-7" d="M255.19,449.078l-1.474-.628-.246.041,1.665.71Z" transform="translate(-166.079 -338.576)"/>
      <path id="Path_758" data-name="Path 758" class="cls-7" d="M246.681,453.254l.132-.036-.905-3.008-.127.041Z" transform="translate(-161.889 -339.535)"/>
      <path id="Path_759" data-name="Path 759" class="cls-7" d="M244.923,453.783l-.906-3-.127.036.905,3.008Z" transform="translate(-160.859 -339.846)"/>
      <path id="Path_760" data-name="Path 760" class="cls-7" d="M256.29,455.821l.905,3,.127-.036-.905-3.008Z" transform="translate(-167.616 -342.571)"/>
      <path id="Path_761" data-name="Path 761" class="cls-7" d="M252.847,466l-.027.114h.141l.018-.086Z" transform="translate(-165.725 -348.141)"/>
      <path id="Path_762" data-name="Path 762" class="cls-7" d="M259.213,458.218l-.905-3.008-.127.041.9,3Z" transform="translate(-168.646 -342.26)"/>
      <path id="Path_763" data-name="Path 763" class="cls-14" d="M260.682,434.844l-48.232,7.963.705,4.973h59.471a43.632,43.632,0,0,0,.746-7.462c0-3.731-2.239-7.958-2.239-7.958" transform="translate(-143.724 -329.808)"/>
    </g>
    <g id="freepik--Device--inject-2" transform="translate(100.165 191.56)">
      <path id="Path_764" data-name="Path 764" class="cls-5" d="M267.563,421.852H207.609l-1.966-32.98a2.243,2.243,0,0,1,2.211-2.612h59.453a2.239,2.239,0,0,1,2.211,2.612Z" transform="translate(-205.613 -386.26)"/>
      <path id="Path_765" data-name="Path 765" class="cls-20" d="M216.47,388h56.322a2.184,2.184,0,0,1,2.18,2.53" transform="translate(-211.53 -387.208)"/>
      <path id="Path_766" data-name="Path 766" class="cls-20" d="M206.66,390.025a2.193,2.193,0,0,1,2.2-2.025" transform="translate(-206.184 -387.208)"/>
      <rect id="Rectangle_162" data-name="Rectangle 162" class="cls-6" width="60.463" height="3.212" transform="translate(1.737 32.379)"/>
      <path id="Path_767" data-name="Path 767" class="cls-6" d="M274.558,422.581c0,1.42-1.92,2.571-4.286,2.571s-4.282-1.151-4.282-2.571,1.92-2.571,4.282-2.571S274.558,421.161,274.558,422.581Z" transform="translate(-238.517 -404.653)"/>
    </g>
    <g id="freepik--Mug--inject-2" transform="translate(26.236 186.296)">
      <path id="Path_768" data-name="Path 768" class="cls-5" d="M73.372,440.366a10.307,10.307,0,0,1-3.681-.878,1.274,1.274,0,0,1,1.006-2.339,6.372,6.372,0,0,0,3.085.637c.737-.833,1.879-5.861.4-8.259a1.165,1.165,0,0,0-.842-.66,4.079,4.079,0,0,0-2.512,1.156,1.274,1.274,0,0,1-1.738-1.861c.232-.218,2.343-2.116,4.587-1.82a3.681,3.681,0,0,1,2.671,1.847c2.17,3.531.687,10.265-.983,11.585a3.158,3.158,0,0,1-2,.592Z" transform="translate(-57.082 -402.823)"/>
      <rect id="Rectangle_163" data-name="Rectangle 163" class="cls-5" width="14.037" height="18.633" transform="translate(0 22.483)"/>
      <path id="Path_769" data-name="Path 769" class="cls-3" d="M45.94,396.153s0-1.552,2.844-3.1,4.4-3.877,2.844-8.272-1.292-7.5,1.82-10.088" transform="translate(-44.666 -374.69)"/>
      <path id="Path_770" data-name="Path 770" class="cls-3" d="M47.36,379.613a6.828,6.828,0,0,1,2.73-4.923" transform="translate(-45.44 -374.69)"/>
      <path id="Path_771" data-name="Path 771" class="cls-3" d="M48.527,393.982a18.1,18.1,0,0,1-.687-2.4" transform="translate(-45.701 -383.895)"/>
      <path id="Path_772" data-name="Path 772" class="cls-3" d="M70.519,397.536a11.406,11.406,0,0,0-.432-1.515l-.237-.7" transform="translate(-57.696 -385.933)"/>
      <path id="Path_773" data-name="Path 773" class="cls-3" d="M57.87,412.851s0-1.552,2.844-3.1c1.866-1.019,3.185-2.371,3.417-4.418" transform="translate(-51.168 -391.388)"/>
    </g>
    <g id="freepik--Table--inject-2" transform="translate(13.245 227.093)">
      <rect id="Rectangle_164" data-name="Rectangle 164" class="cls-11" width="211.785" height="4.687"/>
    </g>
  </g>
</svg>
