<svg xmlns="http://www.w3.org/2000/svg" width="21.871" height="32.561" viewBox="0 0 21.871 32.561">
  <defs>
    <style>
      .cls-1 {
        fill: #223869;
        fill-rule: evenodd;
      }
    </style>
  </defs>
  <g id="Group_234" data-name="Group 234" transform="translate(0.002)">
    <path id="Path_96" data-name="Path 96" class="cls-1" d="M34023.434,3234.487l-1.738-5.1a.666.666,0,0,1-.035-.121,1.084,1.084,0,0,1,.676-1.238,1.341,1.341,0,0,1,.773.072,9.437,9.437,0,0,0,1.949.413.994.994,0,0,0,.328-.051,4.972,4.972,0,0,1,2.016-.395c.555.111,1.1.384,1.664.449,0,0,.469-.118.871-.264.445-.162.887-.342,1.324-.531a1.444,1.444,0,0,1,.422-.083.7.7,0,0,1,.109.013,1.075,1.075,0,0,1,.77,1.328.706.706,0,0,0-.035.118l-2.332,5.686c.238.248.457.509.672.765a22.279,22.279,0,0,1,2.117,3.008s.25.432.457.806c0,0,.121.218.207.383,0,0,.133.255.23.445a28.943,28.943,0,0,1,1.383,3.207l.027.057a19.741,19.741,0,0,1,.77,2.744l.031.167c.066.31.117.62.156.934,0,0,.02.19.031.327l0,.232a1.057,1.057,0,0,1-.844.911.992.992,0,0,1-1.02-.7,2.489,2.489,0,0,1-.066-.426.076.076,0,0,1-.008-.04,1.4,1.4,0,0,0-.02-.161,13.52,13.52,0,0,0-.387-1.845s-.094-.321-.16-.565a23.415,23.415,0,0,0-.984-2.588s-.113-.25-.219-.474c0,0-.227-.492-.43-.887l-.129-.257c-.187-.357-.383-.708-.59-1.054,0,0-.258-.431-.473-.765a15.614,15.614,0,0,0-2.43-3.052,1.854,1.854,0,0,0-.859-.385,4.522,4.522,0,0,0-2.293-.052c-.5.142-.848.715-1.121,1.02a23.11,23.11,0,0,0-2.344,3.182s-.09.15-.168.278a27.183,27.183,0,0,0-1.43,2.628c-.012.04-.035.08-.051.121-.324.681-.621,1.385-.871,2.084-.035.09-.074.208-.074.208-.043.133-.086.268-.133.4a14.3,14.3,0,0,0-.414,1.582l0,.025a8.959,8.959,0,0,0-.176,1.281v.066a8.578,8.578,0,0,0,.035,1.142s.023.263.051.464c.031.235.07.466.117.7a.131.131,0,0,1,0,.037,4.44,4.44,0,0,0,.531,1.414,1.19,1.19,0,0,0,.234.294,19.388,19.388,0,0,1,2.426-1.552c2.094-1.106,4.609-.932,7.027-.614.387.051.777.108,1.164.171l.387.067.2.035.031.005a2.288,2.288,0,0,1,1.027.508l.051.045c.074.073.145.146.145.146.07.079.164.2.164.2a1.416,1.416,0,0,1,.09.132,1.459,1.459,0,0,1,.082.137c.043.071.078.141.078.141.031.064.059.125.059.125.973-.637,1.93-1.287,2.914-1.91a3.253,3.253,0,0,1,.352-.18,1.857,1.857,0,0,1,1.48.074s.133.068.227.127a2.431,2.431,0,0,1,.516.471l.086.121a.633.633,0,0,1,.1.156.916.916,0,0,1,.063.093c.027.052.016.036.043.091s.055.115.055.115l.016.052c0,.012.078.215.078.215.031.106.059.262.059.262a1.078,1.078,0,0,1,.023.143c.012.067.02.155.02.155a1.194,1.194,0,0,1,.008.121v.11c-.008.11-.016.155-.016.155a1.752,1.752,0,0,1-.047.33s-.059.241-.125.418l-.039.084c-.039.08-.055.116-.059.122-.074.129-.172.275-.172.275a1.371,1.371,0,0,1-.09.121,2.142,2.142,0,0,1-.367.366c-1.566,1.231-3.133,2.469-4.7,3.692a5,5,0,0,1-2.719,1.038c-2.184.127-4.371.219-6.555.373a1.359,1.359,0,0,0-.766.307l-.605.507-.184.121a.991.991,0,0,1-1.016-.141,1.132,1.132,0,0,1-.133-1.464,4.806,4.806,0,0,1,.77-.673,3.217,3.217,0,0,1,1.836-.735c2.176-.13,4.363-.244,6.551-.372a3.106,3.106,0,0,0,1.7-.651c1.574-1.219,3.141-2.44,4.688-3.681a.521.521,0,0,0,.1-.123.263.263,0,0,0,.012-.223c-.023-.06-.035-.071-.043-.094-.051-.059-.117-.116-.16-.089-1.332.848-2.641,1.735-3.969,2.6a2.79,2.79,0,0,1-.9.377l-.012,0-4.039.861-.211.019a1.059,1.059,0,0,1-.918-.838,1.084,1.084,0,0,1,.551-1.151,1.971,1.971,0,0,1,.207-.07l3.652-.78c-.078-.237-.293-.287-.488-.32a19.923,19.923,0,0,0-5.559-.388,9.187,9.187,0,0,0-4.18,2.084c-.773.576-1.527,1.185-2.262,1.814a1.59,1.59,0,0,1-.227.156.937.937,0,0,1-1.168-.3,1.141,1.141,0,0,1,.008-1.3,1.066,1.066,0,0,1,.156-.163s.074-.069.074-.07c.059-.047.113-.094.164-.141.242-.2.473-.4.715-.591-.035-.04-.062-.085-.1-.127a4.629,4.629,0,0,1-.543-.981,10.055,10.055,0,0,1-.391-1.251,2.362,2.362,0,0,1-.051-.263s-.039-.2-.074-.386c-.023-.121-.012-.079-.031-.207-.008-.082-.023-.193-.023-.193-.035-.257-.062-.541-.078-.8,0,0-.027-.4-.031-.663v-.357c0-.068,0-.148,0-.148,0-.152.027-.363.027-.363a12.95,12.95,0,0,1,.391-2.212s.105-.416.188-.677c.1-.314.2-.627.313-.937l.059-.164c.031-.1.086-.225.086-.225.254-.671.535-1.326.848-1.986.027-.065.063-.129.094-.194.184-.365.355-.728.551-1.086l.031-.062c.313-.583.641-1.16.992-1.721l.035-.06q.188-.295.363-.585l.047-.057a23.537,23.537,0,0,1,2.344-3.053C34023.156,3234.774,34023.289,3234.629,34023.434,3234.487Zm13.1,17.475S34036.531,3251.96,34036.531,3251.962Zm-.148-.094Zm-10.715-13.43v-.368a1.028,1.028,0,0,1,.953-1.04h.027a1.034,1.034,0,0,1,.941,1.039v.505a2.7,2.7,0,0,1,.875.688s.125.159.129.171a1.4,1.4,0,0,1,.316,1.19.975.975,0,0,1-1.285.663,1.435,1.435,0,0,1-.539-.563.773.773,0,0,0-1.4.45.991.991,0,0,0,.039.3,1.336,1.336,0,0,0,.188.336.782.782,0,0,0,.5.244.937.937,0,0,1,.121.028l.074-.006h.074c.082,0,.109.008.156.014a2.658,2.658,0,0,1,1.891,1.226s.1.158.172.3l.027.059a3.074,3.074,0,0,1,.285,1.155,5.3,5.3,0,0,1-.051.741l-.055.266c-.043.121-.105.29-.105.29a1.873,1.873,0,0,1-.156.349.8.8,0,0,0-.066.1,2.7,2.7,0,0,1-.219.323,4.185,4.185,0,0,1-.375.382,3.718,3.718,0,0,1-.594.379,1.956,1.956,0,0,1-.094.851.964.964,0,0,1-1.266.519,1.049,1.049,0,0,1-.566-.932c0-.116-.008-.234-.016-.352a2.687,2.687,0,0,1-.719-.4,4.307,4.307,0,0,1-.633-.7c-.035-.062-.09-.151-.09-.151a1.235,1.235,0,0,1-.035-1.166.953.953,0,0,1,1.313-.344c.266.17.367.531.617.7a.782.782,0,0,0,1.176-.542.881.881,0,0,0-.41-.913,1.049,1.049,0,0,0-.336-.1.69.69,0,0,1-.121-.028.988.988,0,0,1-.215,0,2.646,2.646,0,0,1-1.734-.944s-.117-.15-.176-.233c-.039-.054-.086-.128-.086-.128a2.912,2.912,0,0,1-.238-.5c-.012-.023-.078-.23-.078-.23-.02-.071-.008-.021-.027-.091l-.02-.1c-.023-.126-.047-.306-.047-.306a1.594,1.594,0,0,1-.027-.288c0-.058,0-.133,0-.133,0-.07.008-.164.008-.164a.314.314,0,0,1,0-.061c.016-.121.027-.243.047-.362l.043-.163a2.663,2.663,0,0,1,.145-.421l.129-.269a2.167,2.167,0,0,1,.141-.233l.043-.055c.027-.046.074-.107.074-.107l.035-.042a3.316,3.316,0,0,1,.313-.327,3.6,3.6,0,0,1,.531-.373A2.832,2.832,0,0,1,34025.668,3238.438Zm2.875-4.766,1.32-3.223a2.6,2.6,0,0,1-1.121.115,15.564,15.564,0,0,1-1.609-.434s-.223.042-.434.1a4.972,4.972,0,0,1-1.93.335c-.2-.021-.4-.053-.6-.09l-.051-.01,1.008,2.968a5.775,5.775,0,0,1,1.207-.106A6.761,6.761,0,0,1,34028.543,3233.672Z" transform="translate(-34016.648 -3227.634)"/>
  </g>
</svg>
