<svg xmlns="http://www.w3.org/2000/svg" width="28.719" height="23.001" viewBox="0 0 28.719 23.001">
  <defs>
    <style>
      .cls-1 {
        fill: #2f3a7b;
        fill-rule: evenodd;
      }
    </style>
  </defs>
  <g id="Group_232" data-name="Group 232" transform="translate(0.002 0)">
    <path id="Path_105" data-name="Path 105" class="cls-1" d="M35701.012,4684.571a.367.367,0,0,1,.055,0h7.32l.215.027a.924.924,0,0,1,.391.21c.055.05.1.114.152.17l3.664,5.259a.069.069,0,0,1,.02.03,1.06,1.06,0,0,1,.168.485.866.866,0,0,1,0,.1v3.339a4.362,4.362,0,0,1-.1.9s-.051.2-.082.333a4.261,4.261,0,0,1-.4.9,4.643,4.643,0,0,1-.273.4,3.5,3.5,0,0,1-.562.581.216.216,0,0,1,.012.07.6.6,0,0,1,.008.119v8.029h2.859l.215.026a1.085,1.085,0,0,1,.738,1,1.037,1.037,0,0,1-.738,1,1.706,1.706,0,0,1-.215.025h-26.832a1.059,1.059,0,0,1-.59-.223,1.1,1.1,0,0,1,0-1.6,1.07,1.07,0,0,1,.59-.223h2.867V4697.5c0-.052,0-.065,0-.117a.335.335,0,0,0,.008-.087,3.884,3.884,0,0,1-1.031-1.349,2.963,2.963,0,0,1-.281-.847s-.027-.114-.027-.12a4.412,4.412,0,0,1-.074-.785v-3.357a.62.62,0,0,1,0-.082,1.072,1.072,0,0,1,.152-.452.244.244,0,0,0,.031-.063l3.672-5.259a1.311,1.311,0,0,1,.148-.17.929.929,0,0,1,.391-.21,1.9,1.9,0,0,1,.215-.027h3.766a.4.4,0,0,1,.055,0Zm5.531,12.259a3.688,3.688,0,0,1-2.043,1.263,3.607,3.607,0,0,1-3.445-1.261c-.086.1-.168.189-.254.279a3.539,3.539,0,0,1-5.262-.281,3.693,3.693,0,0,1-1.414,1.065,3.324,3.324,0,0,1-1.734.221v7.409H35698v-3c0-.08.012-.188.012-.188,0-.039,0-.083,0-.083a3.788,3.788,0,0,1,.168-.838l.066-.166a3.113,3.113,0,0,1,2.754-1.989h.059a3.047,3.047,0,0,1,2.563,1.546,4.706,4.706,0,0,1,.3.708l.051.17c.008.049.023.115.023.115a.263.263,0,0,1,.016.063,3.721,3.721,0,0,1,.063.663v3h5.617v-7.389a3.269,3.269,0,0,1-.723.013A3.644,3.644,0,0,1,35706.543,4696.83Zm-5.5,4.479a1.164,1.164,0,0,0-1.086.85,1.213,1.213,0,0,0-.055.375v2.578h2.289c0-.862.008-1.726,0-2.588a1.244,1.244,0,0,0-.711-1.127A1.123,1.123,0,0,0,35701.043,4701.309Zm-.945-9.432h-3.605v2.316a1.92,1.92,0,0,0,1.77,1.925,1.872,1.872,0,0,0,1.754-1.348,2.213,2.213,0,0,0,.082-.58Zm11.012,0h-3.609v2.3a1.964,1.964,0,0,0,1.375,1.884,1.792,1.792,0,0,0,2.086-1.112,2.164,2.164,0,0,0,.148-.756Zm-9.113,0v2.316a2,2,0,0,0,1.176,1.8,1.768,1.768,0,0,0,2.121-.73,2.013,2.013,0,0,0,.309-1.083v-2.307Zm-11.012,0v2.306a2.011,2.011,0,0,0,1.137,1.8,1.8,1.8,0,0,0,2.395-1.229,2.1,2.1,0,0,0,.078-.584v-2.289Zm16.93-5.26H35706l1.2,3.213h2.965Zm-13.734,0-2.242,3.213h2.965l1.2-3.213Zm7.816,0v3.213h3.152l-1.187-3.213Zm-3.863,0-1.187,3.213h3.152v-3.213Z" transform="translate(-35686.695 -4684.57)"/>
  </g>
</svg>
