<svg xmlns="http://www.w3.org/2000/svg" width="18.557" height="22.22" viewBox="0 0 18.557 22.22">
  <defs>
    <style>
      .cls-1 {
        fill: #2f3a7b;
      }

      .cls-2 {
        fill: #0085cc;
      }

      .cls-3 {
        fill: #00186a;
      }
    </style>
  </defs>
  <g id="paypal" transform="translate(-42.193)">
    <path id="Path_1688" data-name="Path 1688" class="cls-1" d="M58.975,5.741a7.635,7.635,0,0,0,.057-.933A4.808,4.808,0,0,0,54.224,0H46.189a1.035,1.035,0,0,0-1.021.863l-2.961,17.6a1.035,1.035,0,0,0,1.021,1.207h2.939A1.043,1.043,0,0,0,47.2,18.8l.014-.082h0l-.41,2.434a.912.912,0,0,0,.9,1.064h2.571a.912.912,0,0,0,.9-.761l.73-4.341a1.554,1.554,0,0,1,1.532-1.3h.675A6.642,6.642,0,0,0,60.751,9.18,4.213,4.213,0,0,0,58.975,5.741Z" transform="translate(0)"/>
    <path id="Path_1689" data-name="Path 1689" class="cls-2" d="M160.242,132.28a7.57,7.57,0,0,1-7.512,6.636h-2.242a1.125,1.125,0,0,0-1.08.814l-1.34,7.966a.912.912,0,0,0,.9,1.064h2.571a.912.912,0,0,0,.9-.761l.73-4.341a1.554,1.554,0,0,1,1.532-1.3h.675a6.642,6.642,0,0,0,6.642-6.642h0A4.213,4.213,0,0,0,160.242,132.28Z" transform="translate(-101.268 -126.539)"/>
    <path id="Path_1690" data-name="Path 1690" class="cls-3" d="M180.313,121.719h2.242a7.57,7.57,0,0,0,7.512-6.636,4.2,4.2,0,0,0-2.443-.78h-5.852a1.365,1.365,0,0,0-1.346,1.138l-1.193,7.092A1.125,1.125,0,0,1,180.313,121.719Z" transform="translate(-131.092 -109.343)"/>
  </g>
</svg>
