<svg xmlns="http://www.w3.org/2000/svg" width="20" height="20" viewBox="0 0 20 20">
  <defs>
    <style>
      .cls-1 {
        fill: #2f3a7b;
      }

      .cls-2 {
        fill: #fff;
        fill-rule: evenodd;
      }
    </style>
  </defs>
  <g id="Page-1" transform="translate(0.351)">
    <g id="perfect_money" transform="translate(-0.351)">
      <circle id="Oval-1" class="cls-1" cx="10" cy="10" r="10"/>
      <path id="Combined-Shape" class="cls-2" d="M34.456,97.861s4.452.961,5.077-1.108a1.843,1.843,0,0,0-1.421-2.448h-.894v3.4h-.957V94.416h-.848v-.348s3.212-.013,3.567.029a2.045,2.045,0,0,1-.2,4.04A8.573,8.573,0,0,1,34.456,97.861Zm1.8.733v2.042s-.006.434-.4.434h-.488v.341h2.763v-.375h-.611a.356.356,0,0,1-.315-.356v-2.1h-.946Zm3.532,2.834h2.783V101h-.8a.542.542,0,0,1-.26-.444V95.418l3.1,6,3.034-5.888-.067,5.08a.34.34,0,0,1-.353.42c-.429,0-.52.013-.52.013l-.005.327h2.783v-.389h-.65a.246.246,0,0,1-.271-.271V94.548s0-.135.244-.135h.564V94H47.646L44.8,99.89l-2.825-5.85H40.432v.352h.491s.17-.019.17.24-.067,5.953-.067,5.953a.422.422,0,0,1-.463.442h-.774v.4Z" transform="translate(-31.955 -87.731)"/>
    </g>
  </g>
</svg>
