<svg xmlns="http://www.w3.org/2000/svg" width="29.107" height="29.158" viewBox="0 0 29.107 29.158">
  <defs>
    <style>
      .cls-1 {
        fill: none;
        stroke: #00117a;
        stroke-linecap: round;
        stroke-linejoin: round;
        stroke-width: 2px;
      }
    </style>
  </defs>
  <path id="Icon_feather-phone-call" data-name="Icon feather-phone-call" class="cls-1" d="M19.892,6.67A6.463,6.463,0,0,1,25,11.776M19.892,1.5A11.633,11.633,0,0,1,30.168,11.763M28.875,22.078v3.878a2.585,2.585,0,0,1-2.818,2.585A25.581,25.581,0,0,1,14.9,24.573a25.206,25.206,0,0,1-7.756-7.756A25.581,25.581,0,0,1,3.178,5.61,2.585,2.585,0,0,1,5.751,2.793H9.628a2.585,2.585,0,0,1,2.585,2.223,16.6,16.6,0,0,0,.9,3.632,2.585,2.585,0,0,1-.582,2.727L10.9,13.017a20.682,20.682,0,0,0,7.756,7.756l1.642-1.642a2.585,2.585,0,0,1,2.727-.582,16.6,16.6,0,0,0,3.632.9A2.585,2.585,0,0,1,28.875,22.078Z" transform="translate(-2.167 -0.396)"/>
</svg>
