<svg xmlns="http://www.w3.org/2000/svg" width="212.703" height="208.576" viewBox="0 0 212.703 208.576">
  <defs>
    <style>
      .cls-1, .cls-7 {
        fill: #264df7;
      }

      .cls-10, .cls-15, .cls-2, .cls-3, .cls-4 {
        fill: #fff;
      }

      .cls-2 {
        opacity: 0.7;
      }

      .cls-3 {
        opacity: 0.5;
      }

      .cls-11, .cls-16, .cls-17, .cls-5, .cls-8, .cls-9 {
        fill: none;
      }

      .cls-11, .cls-15, .cls-5, .cls-7, .cls-9 {
        stroke: #263238;
      }

      .cls-15, .cls-16, .cls-17, .cls-5, .cls-8, .cls-9 {
        stroke-linecap: round;
        stroke-linejoin: round;
      }

      .cls-6 {
        fill: #263238;
      }

      .cls-11, .cls-7 {
        stroke-miterlimit: 10;
      }

      .cls-8 {
        stroke: #264df7;
      }

      .cls-9 {
        stroke-width: 1.177px;
      }

      .cls-10 {
        opacity: 0.4;
      }

      .cls-12 {
        opacity: 0.3;
      }

      .cls-13 {
        opacity: 0.1;
      }

      .cls-14 {
        opacity: 0.05;
      }

      .cls-16, .cls-17 {
        stroke: #fff;
      }

      .cls-16 {
        opacity: 0.8;
      }
    </style>
  </defs>
  <g id="Revenue-bro" transform="translate(-34.414 -43.43)">
    <g id="freepik--background-simple--inject-2" transform="translate(37.291 47.88)">
      <path id="Path_836" data-name="Path 836" class="cls-1" d="M184.626,58.069c-10.807,6.181-18.43,16.577-27.667,24.923a89,89,0,0,1-40.574,20.8c-12.382,2.68-25.319,2.719-37.251,6.934C55.856,118.9,39.913,143.135,39.511,167.78s13.62,48.538,34.229,62.05a82.039,82.039,0,0,0,22.783,10.376c15.156,4.264,31.228,4.076,46.889,2.447,27.053-2.818,55.413-18.182,72.466-39.841a155.392,155.392,0,0,0,19.138-31.426,156.735,156.735,0,0,0,14.126-58.518c.718-17.335,0-36.552-13.754-49.187A43.661,43.661,0,0,0,184.626,58.069Z" transform="translate(-39.503 -52.415)"/>
      <path id="Path_837" data-name="Path 837" class="cls-2" d="M184.626,58.069c-10.807,6.181-18.43,16.577-27.667,24.923a89,89,0,0,1-40.574,20.8c-12.382,2.68-25.319,2.719-37.251,6.934C55.856,118.9,39.913,143.135,39.511,167.78s13.62,48.538,34.229,62.05a82.039,82.039,0,0,0,22.783,10.376c15.156,4.264,31.228,4.076,46.889,2.447,27.053-2.818,55.413-18.182,72.466-39.841a155.392,155.392,0,0,0,19.138-31.426,156.735,156.735,0,0,0,14.126-58.518c.718-17.335,0-36.552-13.754-49.187A43.661,43.661,0,0,0,184.626,58.069Z" transform="translate(-39.503 -52.415)"/>
    </g>
    <g id="freepik--Shadow--inject-2" transform="translate(65.159 204.161)">
      <ellipse id="Ellipse_6" data-name="Ellipse 6" class="cls-1" cx="88.82" cy="23.922" rx="88.82" ry="23.922"/>
      <ellipse id="Ellipse_7" data-name="Ellipse 7" class="cls-3" cx="88.82" cy="23.922" rx="88.82" ry="23.922"/>
    </g>
    <g id="freepik--Window--inject-2" transform="translate(55.952 43.43)">
      <rect id="Rectangle_169" data-name="Rectangle 169" class="cls-4" width="113.287" height="67.404" rx="8.95" transform="translate(0 12.318)"/>
      <path id="Path_838" data-name="Path 838" class="cls-1" d="M190.467,72.708v1.753H77.18V72.708a4.458,4.458,0,0,1,4.433-4.458H186.054a4.428,4.428,0,0,1,4.413,4.458Z" transform="translate(-77.18 -55.957)"/>
      <rect id="Rectangle_170" data-name="Rectangle 170" class="cls-5" width="113.287" height="67.404" rx="8.95" transform="translate(0 12.318)"/>
      <path id="Path_839" data-name="Path 839" class="cls-5" d="M190.467,72.708v1.753H77.18V72.708a4.458,4.458,0,0,1,4.433-4.458H186.054a4.428,4.428,0,0,1,4.413,4.458Z" transform="translate(-77.18 -55.957)"/>
      <path id="Path_840" data-name="Path 840" class="cls-6" d="M100.558,73.389a1.134,1.134,0,1,1-1.134-1.129,1.134,1.134,0,0,1,1.134,1.129Z" transform="translate(-87.834 -57.981)"/>
      <path id="Path_841" data-name="Path 841" class="cls-6" d="M112.508,73.389a1.134,1.134,0,1,1-1.134-1.129A1.134,1.134,0,0,1,112.508,73.389Z" transform="translate(-93.866 -57.981)"/>
      <circle id="Ellipse_8" data-name="Ellipse 8" class="cls-6" cx="1.134" cy="1.134" r="1.134" transform="translate(22.293 14.274)"/>
      <rect id="Rectangle_171" data-name="Rectangle 171" class="cls-5" width="35.686" height="19.064" rx="3.69" transform="translate(6.716 23.412)"/>
      <line id="Line_240" data-name="Line 240" class="cls-5" x2="30.941" transform="translate(8.816 40.079)"/>
      <rect id="Rectangle_172" data-name="Rectangle 172" class="cls-7" width="3.591" height="3.591" transform="translate(11.114 36.438)"/>
      <rect id="Rectangle_173" data-name="Rectangle 173" class="cls-7" width="3.591" height="8.36" transform="translate(16.369 31.718)"/>
      <rect id="Rectangle_174" data-name="Rectangle 174" class="cls-7" width="3.591" height="7.008" transform="translate(22.288 33.155)"/>
      <rect id="Rectangle_175" data-name="Rectangle 175" class="cls-7" width="3.591" height="13.744" transform="translate(28.509 26.176)"/>
      <rect id="Rectangle_176" data-name="Rectangle 176" class="cls-7" width="3.591" height="13.744" transform="translate(34.725 26.285)"/>
      <circle id="Ellipse_9" data-name="Ellipse 9" class="cls-7" cx="10.039" cy="10.039" r="10.039" transform="translate(76.606 23.383)"/>
      <path id="Path_842" data-name="Path 842" class="cls-6" d="M249.678,109.741v1.03h-1.684v-1.03a3.061,3.061,0,0,1-2.338-3.12v-.466l1.907-.208v.5c0,.956.5,1.535,1.273,1.535a1.174,1.174,0,0,0,1.268-1.253c0-.916-.857-1.7-1.867-2.541-1.2-.991-2.392-2.169-2.392-3.834a2.9,2.9,0,0,1,2.15-3.125V96.19h1.684v1.025a2.924,2.924,0,0,1,2.184,3.145v.337l-1.907.2v-.347c0-.991-.391-1.535-1.085-1.535s-1.085.431-1.085,1.253c0,.916.882,1.684,1.872,2.541,1.179.991,2.392,2.169,2.392,3.834a3.046,3.046,0,0,1-2.372,3.1Z" transform="translate(-162.21 -70.059)"/>
      <line id="Line_241" data-name="Line 241" class="cls-5" x2="2.932" transform="translate(5.884 52.213)"/>
      <line id="Line_242" data-name="Line 242" class="cls-5" x2="2.932" transform="translate(5.884 57.879)"/>
      <line id="Line_243" data-name="Line 243" class="cls-5" x2="2.932" transform="translate(5.884 63.55)"/>
      <line id="Line_244" data-name="Line 244" class="cls-5" x2="2.932" transform="translate(5.884 69.217)"/>
      <line id="Line_245" data-name="Line 245" class="cls-5" y1="2.278" transform="translate(15.28 71.218)"/>
      <line id="Line_246" data-name="Line 246" class="cls-5" y1="2.278" transform="translate(19.925 71.218)"/>
      <line id="Line_247" data-name="Line 247" class="cls-5" y1="2.278" transform="translate(24.571 71.218)"/>
      <line id="Line_248" data-name="Line 248" class="cls-5" y1="2.278" transform="translate(29.222 71.218)"/>
      <line id="Line_249" data-name="Line 249" class="cls-5" y1="2.278" transform="translate(33.868 71.218)"/>
      <line id="Line_250" data-name="Line 250" class="cls-5" y1="2.278" transform="translate(38.514 71.218)"/>
      <line id="Line_251" data-name="Line 251" class="cls-5" y1="2.278" transform="translate(43.159 71.218)"/>
      <line id="Line_252" data-name="Line 252" class="cls-5" y1="2.278" transform="translate(47.81 71.218)"/>
      <line id="Line_253" data-name="Line 253" class="cls-5" y1="2.278" transform="translate(52.456 71.218)"/>
      <line id="Line_254" data-name="Line 254" class="cls-5" y1="2.278" transform="translate(57.102 71.218)"/>
      <line id="Line_255" data-name="Line 255" class="cls-5" y1="2.278" transform="translate(61.748 71.218)"/>
      <line id="Line_256" data-name="Line 256" class="cls-5" y1="2.278" transform="translate(66.398 71.218)"/>
      <line id="Line_257" data-name="Line 257" class="cls-5" y1="2.278" transform="translate(71.044 71.218)"/>
      <line id="Line_258" data-name="Line 258" class="cls-5" y1="2.278" transform="translate(75.69 71.218)"/>
      <line id="Line_259" data-name="Line 259" class="cls-5" y1="2.278" transform="translate(80.336 71.218)"/>
      <line id="Line_260" data-name="Line 260" class="cls-5" y1="2.278" transform="translate(84.808 71.218)"/>
      <line id="Line_261" data-name="Line 261" class="cls-5" y1="2.278" transform="translate(89.281 71.218)"/>
      <line id="Line_262" data-name="Line 262" class="cls-5" y1="2.278" transform="translate(93.748 71.218)"/>
      <path id="Path_843" data-name="Path 843" class="cls-8" d="M188.721,139.069V161.09c0,1.511-1.535,2.729-3.427,2.729H92.467a3.675,3.675,0,0,1-2.972-1.342,2.343,2.343,0,0,1-.5-1.387V139.069c0-1.486,1.535-2.729,3.427-2.729h92.867C187.186,136.34,188.721,137.558,188.721,139.069Z" transform="translate(-83.146 -90.323)"/>
      <path id="Path_844" data-name="Path 844" class="cls-6" d="M160.879,54.049l-29.633,39.92-11.332,15.265-12.382-7.885-15.151,20.1h-.218a2.729,2.729,0,0,1-2.353-1.342l17.023-22.59,12.382,7.87,8.474-11.392,30.9-41.6Z" transform="translate(-83.555 -47.952)"/>
      <path id="Path_845" data-name="Path 845" class="cls-6" d="M218.12,50.032l10.891-6.6L226,54.851l-1.922-5.285Z" transform="translate(-148.314 -43.43)"/>
    </g>
    <g id="freepik--Floor--inject-2" transform="translate(35.12 84.217)">
      <path id="Path_846" data-name="Path 846" class="cls-5" d="M228.832,310.52H54.644L35.12,327.88" transform="translate(-35.12 -219.02)"/>
      <line id="Line_263" data-name="Line 263" class="cls-5" y1="33.754" transform="translate(19.633 45.591)"/>
      <line id="Line_264" data-name="Line 264" class="cls-5" y1="6.528" transform="translate(19.633 83.01)"/>
      <g id="freepik--freepik--Plants--inject-120--inject-2" transform="translate(158.76 0)">
        <path id="Path_847" data-name="Path 847" class="cls-1" d="M396.976,135.161s0-2.041-2.858-4.893-4.69-4.487-4.69-4.487-1.431,4.69,1.223,7.548a50.028,50.028,0,0,0,6.325,5.518Z" transform="translate(-372.508 -125.78)"/>
        <path id="Path_848" data-name="Path 848" class="cls-1" d="M388.608,160.886s0-2.041-2.858-4.9-4.69-4.487-4.69-4.487-1.426,4.69,1.223,7.548a50.832,50.832,0,0,0,6.325,5.522Z" transform="translate(-368.286 -138.761)"/>
        <path id="Path_849" data-name="Path 849" class="cls-1" d="M404.3,143.044s.218-2.031,3.358-4.572,5.141-3.962,5.141-3.962.921,4.829-2.016,7.375a50.274,50.274,0,0,1-6.87,4.809Z" transform="translate(-380.012 -130.186)"/>
        <path id="Path_850" data-name="Path 850" class="cls-1" d="M393.808,174.378s.431-1.981,3.819-4.19,5.522-3.408,5.522-3.408.411,4.888-2.764,7.127a49.921,49.921,0,0,1-7.335,4.056Z" transform="translate(-374.531 -146.473)"/>
        <path id="Path_851" data-name="Path 851" class="cls-1" d="M396.49,205.671s0-2.041,2.853-4.893,4.69-4.487,4.69-4.487,1.431,4.7-1.223,7.548a49.639,49.639,0,0,1-6.32,5.522Z" transform="translate(-376.267 -161.367)"/>
        <path id="Path_852" data-name="Path 852" class="cls-1" d="M389.241,212.761s.287-2.021-2.135-5.25-4-5.111-4-5.111-2.07,4.458.144,7.647a50.242,50.242,0,0,0,5.478,6.35Z" transform="translate(-369.068 -164.451)"/>
        <path id="Path_853" data-name="Path 853" class="cls-1" d="M390.7,237.741s0-2.036,2.858-4.893,4.69-4.458,4.69-4.458,1.431,4.69-1.223,7.543a50.021,50.021,0,0,1-6.325,5.522Z" transform="translate(-373.345 -177.568)"/>
        <path id="Path_854" data-name="Path 854" class="cls-1" d="M394.5,257.821s-.5-1.981,1.53-5.448,3.4-5.522,3.4-5.522,2.566,4.18.728,7.613a50.132,50.132,0,0,1-4.725,6.934Z" transform="translate(-375.234 -186.885)"/>
        <path id="Path_855" data-name="Path 855" class="cls-9" d="M397.927,143.7a57.815,57.815,0,0,1-.783,6.33c-1.129,5.835-3.962,9.6-5.082,14.859s2.115,12.06,1.248,18.821-3.507,10.53-2.764,15.047,4.705,16.741,4.705,16.741" transform="translate(-373.202 -134.824)"/>
        <line id="Line_265" data-name="Line 265" class="cls-9" y1="2.367" x2="3.076" transform="translate(24.259 11.847)"/>
        <line id="Line_266" data-name="Line 266" class="cls-9" x1="1.283" y1="2.293" transform="translate(23.115 9.202)"/>
        <path id="Path_856" data-name="Path 856" class="cls-9" d="M394.09,182.058s2.576-1.937,5.225-3.868" transform="translate(-375.056 -152.232)"/>
        <path id="Path_857" data-name="Path 857" class="cls-9" d="M392.021,170.7a41.279,41.279,0,0,0-4.581-7" transform="translate(-371.7 -144.919)"/>
        <path id="Path_858" data-name="Path 858" class="cls-9" d="M396.69,213.58a31.986,31.986,0,0,1,5.522-7.37" transform="translate(-376.368 -166.374)"/>
        <path id="Path_859" data-name="Path 859" class="cls-9" d="M391.057,218.911a36.351,36.351,0,0,0-2.813-5.3c-1.486-2.219-1.724-2.506-1.724-2.506" transform="translate(-371.235 -168.842)"/>
        <path id="Path_860" data-name="Path 860" class="cls-9" d="M390.7,246.028a34.463,34.463,0,0,1,2.323-4.7,30.488,30.488,0,0,1,3-3.962" transform="translate(-373.345 -182.101)"/>
        <path id="Path_861" data-name="Path 861" class="cls-9" d="M396.389,265.586a8.727,8.727,0,0,1,.773-4.517c1.075-2.075,2.288-4.8,2.793-5.869" transform="translate(-376.196 -191.1)"/>
        <path id="Path_862" data-name="Path 862" class="cls-1" d="M367.288,192.906s-.223-1.273,1.258-3.378,2.476-3.328,2.476-3.328,1.4,2.784.05,4.864A31.781,31.781,0,0,1,367.7,195.2Z" transform="translate(-361.523 -156.275)"/>
        <path id="Path_863" data-name="Path 863" class="cls-1" d="M375.328,208.166s-.223-1.283,1.258-3.383,2.476-3.323,2.476-3.323,1.4,2.788.05,4.864a31.451,31.451,0,0,1-3.368,4.141Z" transform="translate(-365.58 -163.977)"/>
        <path id="Path_864" data-name="Path 864" class="cls-1" d="M361.915,199.608s-.347-1.248-2.6-2.476-3.655-1.932-3.655-1.932-.054,3.105,2.07,4.408a31.767,31.767,0,0,0,4.829,2.268Z" transform="translate(-355.66 -160.817)"/>
        <path id="Path_865" data-name="Path 865" class="cls-1" d="M371.111,218.234s-.5-1.2-2.853-2.209-3.838-1.535-3.838-1.535.272,3.105,2.516,4.165a31.957,31.957,0,0,0,5.042,1.748Z" transform="translate(-360.081 -170.553)"/>
        <path id="Path_866" data-name="Path 866" class="cls-1" d="M374.434,237.837s-.223-1.278-2.323-2.759-3.432-2.308-3.432-2.308-.386,3.105,1.59,4.6a31.647,31.647,0,0,0,4.562,2.759Z" transform="translate(-362.215 -179.779)"/>
        <path id="Path_867" data-name="Path 867" class="cls-1" d="M381.192,240.792s-.4-1.233.768-3.522,1.981-3.64,1.981-3.64,1.783,2.556.743,4.809a32.288,32.288,0,0,1-2.764,4.576Z" transform="translate(-368.513 -180.213)"/>
        <path id="Path_868" data-name="Path 868" class="cls-1" d="M388.232,263.454s.149-1.288,2.159-2.888,3.294-2.476,3.294-2.476.565,3.071-1.322,4.685a32.136,32.136,0,0,1-4.393,3.021Z" transform="translate(-371.967 -192.558)"/>
        <path id="Path_869" data-name="Path 869" class="cls-1" d="M381.539,257.337s-.223-1.283-2.323-2.764-3.427-2.3-3.427-2.3-.386,3.105,1.585,4.6a31.874,31.874,0,0,0,4.567,2.759Z" transform="translate(-365.804 -189.621)"/>
        <path id="Path_870" data-name="Path 870" class="cls-1" d="M382.581,270.054s.114-1.3-1.545-3.259-2.734-3.105-2.734-3.105-1.159,2.9.371,4.854a32.371,32.371,0,0,0,3.715,3.839Z" transform="translate(-366.875 -195.385)"/>
        <path id="Path_871" data-name="Path 871" class="cls-9" d="M366.85,199.14a36.642,36.642,0,0,0,1.184,3.888c1.337,3.531,3.517,5.587,4.794,8.767s0,7.791,1.263,11.936,3.343,6.211,3.358,9.138-1.114,11.015-1.114,11.015" transform="translate(-361.308 -162.806)"/>
        <line id="Line_267" data-name="Line 267" class="cls-9" x1="2.184" y1="1.144" transform="translate(4.235 38.494)"/>
        <line id="Line_268" data-name="Line 268" class="cls-9" y1="1.575" x2="0.56" transform="translate(6.033 36.374)"/>
        <path id="Path_872" data-name="Path 872" class="cls-9" d="M374.895,222.527s-1.828-.931-3.695-1.857" transform="translate(-363.503 -173.672)"/>
        <path id="Path_873" data-name="Path 873" class="cls-9" d="M376.14,214.664a26.18,26.18,0,0,1,2.115-4.884" transform="translate(-365.996 -168.176)"/>
        <path id="Path_874" data-name="Path 874" class="cls-9" d="M376.5,242.622a20.382,20.382,0,0,0-4.259-4.022" transform="translate(-364.028 -182.722)"/>
        <path id="Path_875" data-name="Path 875" class="cls-9" d="M382.1,244.754a22.713,22.713,0,0,1,1.174-3.621c.688-1.56.807-1.763.807-1.763" transform="translate(-369.004 -183.11)"/>
        <path id="Path_876" data-name="Path 876" class="cls-9" d="M388.06,267.859a19.054,19.054,0,0,1,2.348-2.437,12.612,12.612,0,0,0,1.525-1.332" transform="translate(-372.013 -195.587)"/>
        <path id="Path_877" data-name="Path 877" class="cls-9" d="M383.874,262.314a22.223,22.223,0,0,0-1.981-2.689,19.316,19.316,0,0,0-2.313-2.145" transform="translate(-367.733 -192.251)"/>
        <path id="Path_878" data-name="Path 878" class="cls-9" d="M383.558,274.982a5.587,5.587,0,0,0-.991-2.759c-.9-1.189-1.981-2.764-2.387-3.383" transform="translate(-368.035 -197.984)"/>
        <path id="Path_879" data-name="Path 879" class="cls-6" d="M390.014,301.989H377.008a.991.991,0,0,1-.991-.966L374.15,286.63h18.682l-1.867,14.393A.991.991,0,0,1,390.014,301.989Z" transform="translate(-364.992 -206.963)"/>
        <path id="Path_880" data-name="Path 880" class="cls-6" d="M391.215,288.577H372.7a1.456,1.456,0,0,1-1.461-1.446h0a1.486,1.486,0,0,1,1.456-1.461h18.519a1.456,1.456,0,0,1,1.461,1.456h0a1.456,1.456,0,0,1-1.461,1.451Z" transform="translate(-363.523 -206.478)"/>
      </g>
    </g>
    <g id="freepik--Coins--inject-2" transform="translate(143.531 63.486)">
      <path id="Path_881" data-name="Path 881" class="cls-1" d="M290.31,156.979A17.983,17.983,0,0,1,276.38,174.5h-.058c-.471.1-.941.2-1.426.267a18.365,18.365,0,0,1-2.571.183,17.982,17.982,0,1,1-.664-35.957c.164,0,.337,0,.5,0a.851.851,0,0,1,.158,0,1.138,1.138,0,0,1,.183,0,17.706,17.706,0,0,1,7.043,1.511,17.984,17.984,0,0,1,10.768,16.473Z" transform="translate(-254.007 -111.717)"/>
      <path id="Path_882" data-name="Path 882" class="cls-10" d="M283.337,140.531c-20.767-1.08-20.867,21.976-20.867,21.976a18.239,18.239,0,0,1,2.006-15.849c2.892-4.661,7.925-6.716,11.818-7.627a17.707,17.707,0,0,1,7.043,1.5Z" transform="translate(-257.792 -111.736)"/>
      <path id="Path_883" data-name="Path 883" class="cls-5" d="M290.306,156.984a17.984,17.984,0,0,1-13.986,17.533,17.686,17.686,0,0,1-4,.451A17.987,17.987,0,0,1,271.659,139h.664a17.989,17.989,0,0,1,17.984,17.984Z" transform="translate(-254.004 -111.721)"/>
      <path id="Path_884" data-name="Path 884" class="cls-5" d="M294.087,156.984A17.984,17.984,0,0,1,280.1,174.517h-.665a17.989,17.989,0,0,1-4-35.517h.664a17.989,17.989,0,0,1,17.984,17.984Z" transform="translate(-257.784 -111.721)"/>
      <path id="Path_885" data-name="Path 885" class="cls-11" d="M291.692,172.487l.466,1.9-3.11.758-.466-1.9a5.821,5.821,0,0,1-5.73-4.71l-.213-.862,3.432-1.243.218.9c.431,1.763,1.595,2.61,3.046,2.254a2.229,2.229,0,0,0,1.778-2.888c-.416-1.694-2.358-2.754-4.606-3.848-2.66-1.288-5.4-2.922-6.156-6-.733-3,.188-5.5,2.561-6.741l-.466-1.9,3.105-.758.466,1.9c2.7-.04,4.71,1.738,5.448,4.809l.154.624-3.427,1.243-.173-.688c-.456-1.867-1.417-2.655-2.694-2.343s-1.808,1.288-1.436,2.8c.416,1.694,2.382,2.714,4.606,3.853,2.63,1.332,5.4,2.922,6.156,5.993A5.732,5.732,0,0,1,291.692,172.487Z" transform="translate(-267.177 -115.986)"/>
      <path id="Path_886" data-name="Path 886" class="cls-12" d="M291.692,172.487l.466,1.9-3.11.758-.466-1.9a5.821,5.821,0,0,1-5.73-4.71l-.213-.862,3.432-1.243.218.9c.431,1.763,1.595,2.61,3.046,2.254a2.229,2.229,0,0,0,1.778-2.888c-.416-1.694-2.358-2.754-4.606-3.848-2.66-1.288-5.4-2.922-6.156-6-.733-3,.188-5.5,2.561-6.741l-.466-1.9,3.105-.758.466,1.9c2.7-.04,4.71,1.738,5.448,4.809l.154.624-3.427,1.243-.173-.688c-.456-1.867-1.417-2.655-2.694-2.343s-1.808,1.288-1.436,2.8c.416,1.694,2.382,2.714,4.606,3.853,2.63,1.332,5.4,2.922,6.156,5.993A5.732,5.732,0,0,1,291.692,172.487Z" transform="translate(-267.177 -115.986)"/>
      <line id="Line_269" data-name="Line 269" class="cls-5" y1="0.173" x2="3.799" transform="translate(9.126 60.552)"/>
      <line id="Line_270" data-name="Line 270" class="cls-5" y1="0.282" x2="3.313" transform="translate(7.299 59.181)"/>
      <line id="Line_271" data-name="Line 271" class="cls-5" y1="0.282" x2="3.313" transform="translate(5.813 57.848)"/>
      <line id="Line_272" data-name="Line 272" class="cls-5" x2="2.838" transform="translate(5.357 32.792)"/>
      <line id="Line_273" data-name="Line 273" class="cls-5" y1="0.129" x2="2.828" transform="translate(6.759 31.355)"/>
      <line id="Line_274" data-name="Line 274" class="cls-5" y1="0.282" x2="2.982" transform="translate(8.532 29.889)"/>
      <path id="Path_887" data-name="Path 887" class="cls-12" d="M276.377,174.5h-.054a17.685,17.685,0,0,1-4,.451,17.982,17.982,0,1,1-.664-35.957c.164,0,.337,0,.5,0-4.383,1.382-11.738,4.913-13.7,12.278C255.674,161.739,261.93,173.621,276.377,174.5Z" transform="translate(-254.007 -111.717)"/>
      <path id="Path_888" data-name="Path 888" class="cls-13" d="M311.593,158.513a17.983,17.983,0,0,1-13.929,17.518h-.058c-.471.1-.941.2-1.426.267l4.656-34.269A17.984,17.984,0,0,1,311.593,158.513Z" transform="translate(-275.291 -113.25)"/>
      <path id="Path_889" data-name="Path 889" class="cls-1" d="M328.111,100.875a10.9,10.9,0,0,1-13.031,3.784l-.064-.03q-.507-.223-.991-.5a9.726,9.726,0,0,1-1.05-.654,10.9,10.9,0,0,1,11.981-18.142l.243.154c.114.064.223.144.337.223s.332.243.5.371A10.9,10.9,0,0,1,328.111,100.875Z" transform="translate(-281.605 -83.923)"/>
      <path id="Path_890" data-name="Path 890" class="cls-10" d="M313.357,101.974s-1.778-5.235.584-9.089c2.972-4.829,7.523-7.033,13.719-5.844,0,0-3.358-2.268-8.98-.659S310.043,95.728,313.357,101.974Z" transform="translate(-283.265 -84.873)"/>
      <path id="Path_891" data-name="Path 891" class="cls-5" d="M328.1,100.9a10.9,10.9,0,0,1-13.031,3.774,10.671,10.671,0,0,1-2.13-1.169,10.9,10.9,0,0,1,12.239-17.989c.109.064.223.139.332.218A10.9,10.9,0,0,1,328.1,100.9Z" transform="translate(-281.599 -83.943)"/>
      <path id="Path_892" data-name="Path 892" class="cls-5" d="M329.695,101.688a10.9,10.9,0,0,1-13.031,3.774l-.332-.218A10.9,10.9,0,0,1,326.773,86.3c.109.064.223.139.332.218a10.9,10.9,0,0,1,2.59,15.166Z" transform="translate(-283.189 -84.731)"/>
      <path id="Path_893" data-name="Path 893" class="cls-11" d="M324.848,105.575l-.431,1.1-1.8-.708.431-1.1a3.527,3.527,0,0,1-1.189-4.324l.2-.5,2.13.579-.2.525c-.4,1.02-.129,1.842.713,2.174a1.347,1.347,0,0,0,1.887-.807c.386-.991-.2-2.184-.931-3.507-.862-1.565-1.644-3.328-.946-5.111s2.016-2.655,3.616-2.437l.436-1.1,1.8.708-.431,1.095c1.347.921,1.719,2.476,1.02,4.284L331,96.8l-2.13-.579.158-.4c.426-1.08.228-1.808-.5-2.1s-1.342,0-1.689.887c-.386.991.233,2.169.931,3.507.837,1.58,1.649,3.333.951,5.111a3.512,3.512,0,0,1-3.878,2.348Z" transform="translate(-288.094 -87.172)"/>
      <path id="Path_894" data-name="Path 894" class="cls-12" d="M324.848,105.575l-.431,1.1-1.8-.708.431-1.1a3.527,3.527,0,0,1-1.189-4.324l.2-.5,2.13.579-.2.525c-.4,1.02-.129,1.842.713,2.174a1.347,1.347,0,0,0,1.887-.807c.386-.991-.2-2.184-.931-3.507-.862-1.565-1.644-3.328-.946-5.111s2.016-2.655,3.616-2.437l.436-1.1,1.8.708-.431,1.095c1.347.921,1.719,2.476,1.02,4.284L331,96.8l-2.13-.579.158-.4c.426-1.08.228-1.808-.5-2.1s-1.342,0-1.689.887c-.386.991.233,2.169.931,3.507.837,1.58,1.649,3.333.951,5.111a3.512,3.512,0,0,1-3.878,2.348Z" transform="translate(-288.094 -87.172)"/>
      <path id="Path_895" data-name="Path 895" class="cls-12" d="M324.906,85.363c-2.972-.53-6.736-.822-8.767.5-3.73,2.392-6.052,5.409-6.018,10.3s4.6,8.316,4.6,8.316l.267.193a10.727,10.727,0,0,1-2.065-1.144,10.9,10.9,0,0,1,11.981-18.142Z" transform="translate(-281.58 -83.943)"/>
      <path id="Path_896" data-name="Path 896" class="cls-13" d="M333.546,103.084a10.9,10.9,0,0,1-13.031,3.784l-.064-.03q-.507-.223-.991-.5L331.436,88.3a10.9,10.9,0,0,1,2.11,14.784Z" transform="translate(-287.04 -86.132)"/>
    </g>
    <g id="freepik--Character--inject-2" transform="translate(65.979 91.782)">
      <path id="Path_897" data-name="Path 897" class="cls-1" d="M215.906,303.362A65.378,65.378,0,0,1,199.64,317.4a57.48,57.48,0,0,1-5.943,3.1c-14.071,6.325-30.109,6.736-45.106,3.1-31.535-7.642-48.266-35.478-50.391-66.379-.57-8.351-1.847-17.37,1.535-25.314s10.223-12.877,17.959-16.3a104.552,104.552,0,0,1,17.2-5.552,44.234,44.234,0,0,1,29.762,3.071c6.483,3.076,11.1,8.42,16.553,12.922q.867.713,1.743,1.421a163.4,163.4,0,0,0,17.335,12.189c9.168,5.592,18.553,10.867,24.413,20.257C234.043,274.883,226.158,291.178,215.906,303.362Z" transform="translate(-97.455 -175.227)"/>
      <path id="Path_898" data-name="Path 898" class="cls-10" d="M215.906,303.362A65.378,65.378,0,0,1,199.64,317.4a57.48,57.48,0,0,1-5.943,3.1c-14.071,6.325-30.109,6.736-45.106,3.1-31.535-7.642-48.266-35.478-50.391-66.379-.57-8.351-1.847-17.37,1.535-25.314s10.223-12.877,17.959-16.3a104.552,104.552,0,0,1,17.2-5.552,44.234,44.234,0,0,1,29.762,3.071c6.483,3.076,11.1,8.42,16.553,12.922q.867.713,1.743,1.421a163.4,163.4,0,0,0,17.335,12.189c9.168,5.592,18.553,10.867,24.413,20.257C234.043,274.883,226.158,291.178,215.906,303.362Z" transform="translate(-97.455 -175.227)"/>
      <path id="Path_899" data-name="Path 899" class="cls-11" d="M182.9,227.471q-.877-.7-1.743-1.426c-5.448-4.512-10.074-9.841-16.553-12.917a44.264,44.264,0,0,0-29.762-3.071c-13.11,3.254-29.371,8.266-35.165,21.862-3.383,7.925-2.1,16.959-1.53,25.309,2.15,30.9,18.88,58.736,50.415,66.379,17.157,4.16,35.661,3.021,51.049-6.2a65.378,65.378,0,0,0,16.265-14.041c10.252-12.184,18.137-28.479,8.8-43.447-5.854-9.411-15.24-14.666-24.413-20.257A163.4,163.4,0,0,1,182.9,227.471Z" transform="translate(-97.426 -175.229)"/>
      <path id="Path_900" data-name="Path 900" class="cls-5" d="M165.793,357.78a45.354,45.354,0,0,0-7.613,3.081" transform="translate(-128.089 -250.438)"/>
      <path id="Path_901" data-name="Path 901" class="cls-5" d="M194.392,351.6A81.222,81.222,0,0,0,183,353.408" transform="translate(-140.616 -247.319)"/>
      <path id="Path_902" data-name="Path 902" class="cls-5" d="M165.969,345.529a40.257,40.257,0,0,0-32.659-1.709" transform="translate(-115.537 -242.04)"/>
      <path id="Path_903" data-name="Path 903" class="cls-13" d="M223.7,303.362A65.378,65.378,0,0,1,207.432,317.4a57.489,57.489,0,0,1-5.943,3.1,46.4,46.4,0,0,1-4.74-1.738c-9.242-3.962-17-10.664-24.576-17.271-4.572-3.962-9.217-8.024-14.69-10.634a33.789,33.789,0,0,0-23.695-1.951,26.612,26.612,0,0,1,15.671-8.623c-3.913-3.561-9.356-5.057-14.646-5.151s-8.2.555-13.373,1.714c1.729-3.18,6.315-6.057,9.936-5.973a89.982,89.982,0,0,1-10.292-.728c-4.671-.753-6.761-6.251-7.459-10.926-1.932-12.878.025-26.592,7.053-37.538a38.212,38.212,0,0,1,4.8-6.077,104.551,104.551,0,0,1,17.2-5.552,44.234,44.234,0,0,1,29.762,3.071c6.483,3.076,11.1,8.42,16.553,12.922q.867.713,1.743,1.421a163.4,163.4,0,0,0,17.335,12.189c9.168,5.592,18.553,10.867,24.413,20.257C241.834,274.883,233.949,291.178,223.7,303.362Z" transform="translate(-105.247 -175.227)"/>
      <path id="Path_904" data-name="Path 904" class="cls-4" d="M339.254,399a95.756,95.756,0,0,0,8.7,6.439c5.889.4,3.249,7.514,3.249,7.514l-5.042,3.244s-8.633-6.86-13.348-9.084S339.254,399,339.254,399Z" transform="translate(-215.643 -271.242)"/>
      <path id="Path_905" data-name="Path 905" class="cls-12" d="M197.269,226.7s-.807-7.989-2.1-10.233l-19.554-3.982v-1.516s.451-2.635-3.908-4.284-13.442.5-15.785,2.268-1.486,4.824-1.486,4.824-7.875,3.977-11.411,5.493a90.356,90.356,0,0,0-8.455,4.458s-1.6,18.365-1.288,22.63-.258,8.276.109,10.639.654,3.7,3.13,5.716,4.73,4.953,11.223,2.036l-.906-.718,42.743-14.4Z" transform="translate(-115.505 -173.882)"/>
      <path id="Path_906" data-name="Path 906" class="cls-1" d="M197.269,226.7s-.807-7.989-2.1-10.233l-19.554-3.982v-1.516s.451-2.635-3.908-4.284-13.442.5-15.785,2.268-1.486,4.824-1.486,4.824-7.875,3.977-11.411,5.493a90.356,90.356,0,0,0-8.455,4.458s-1.6,18.365-1.288,22.63-.258,8.276.109,10.639.654,3.7,3.13,5.716,4.73,4.953,11.223,2.036l-.906-.718,42.743-14.4Z" transform="translate(-115.505 -173.882)"/>
      <path id="Path_907" data-name="Path 907" class="cls-14" d="M197.269,226.7s-.807-7.989-2.1-10.233l-19.554-3.982v-1.516s.451-2.635-3.908-4.284-13.442.5-15.785,2.268-1.486,4.824-1.486,4.824-7.875,3.977-11.411,5.493a90.356,90.356,0,0,0-8.455,4.458s-1.6,18.365-1.288,22.63-.258,8.276.109,10.639.654,3.7,3.13,5.716,4.73,4.953,11.223,2.036l-.906-.718,42.743-14.4Z" transform="translate(-115.505 -173.882)"/>
      <path id="Path_908" data-name="Path 908" class="cls-13" d="M197.594,229h-8.182a3.254,3.254,0,0,0-3.2,2.719l-4.032,24.269s-5.552.461-9.485,3.328-13.606-17.593-28.89-17.6c0,0,4.4,10.054,5.374,18.078,0,0-9.554-1.04-11.139,2.7s.718,10.748,4.76,8.034,7.845-7.241,10.545-4.378,14.76,4.4,14.76,4.4l18.558-9.356,7.2-3.383Z" transform="translate(-117.667 -185.441)"/>
      <path id="Path_909" data-name="Path 909" class="cls-10" d="M190.772,204.71s4.646,1.288,5.4,2.848.674,5.508.674,5.508a19.069,19.069,0,0,1-5,6.875l-3.467-6.875.312,7.8s-6.577-1.095-9.371-3.195l-2.788-2.1s-1.2-3.962-1.03-5.3,5.191-4.066,5.191-4.066Z" transform="translate(-136.823 -173.182)"/>
      <path id="Path_910" data-name="Path 910" class="cls-1" d="M338.51,427.444c-.129-.282,1.907-3.878.312-7.538s-4.136-2.249-4.136-2.249-7.236-4.606-10.277-6.062a51.867,51.867,0,0,1-6.315-3.754l-3.214,4.329,2.972,9.193Z" transform="translate(-207.177 -275.704)"/>
      <path id="Path_911" data-name="Path 911" class="cls-1" d="M354.34,408.455l9.292,5.676a91.073,91.073,0,0,0,9.648-7.083c3.115-2.892,10.114-9.054,10.114-9.054l4.458-6s-3.091-3.824-8.242-.753c-6.657,3.962-14.774,9.718-20.188,9.663,0,0,1.065,6.652-5.047,7.548" transform="translate(-227.093 -266.725)"/>
      <path id="Path_912" data-name="Path 912" class="cls-4" d="M186.745,156.23s4.215,6.379,4.983,8.445a18.847,18.847,0,0,1,1.233,6.592c-.154,1.471-1.7,9.351-2.476,9.579l-.748.847.5,3.338s-3.3,5.7-13,1.521c0,0-.376-6.657-1.555-8.747s-2.942.4-4.71-5.641,3.863-12.382,3.863-12.382Z" transform="translate(-134.371 -148.713)"/>
      <path id="Path_913" data-name="Path 913" class="cls-3" d="M392.143,390.22s-4.78.832-6.33,3.66-4.527,8.083-5.542,10.624-9.41,8.677-9.41,8.677l1.114,1.035a77.556,77.556,0,0,0,10.961-8.242c4.126-4.017,13.224-14.121,13.224-14.121S395.506,391.206,392.143,390.22Z" transform="translate(-235.431 -266.811)"/>
      <path id="Path_914" data-name="Path 914" class="cls-3" d="M316.064,413.37l-1.184,1.59,3.635,7.538,19.995,7.187.926-2.927s.307-2.972-6.711-5.23-11.3-3.749-13.294-5.3S316.064,413.37,316.064,413.37Z" transform="translate(-207.177 -278.495)"/>
      <path id="Path_915" data-name="Path 915" class="cls-4" d="M172.227,293.708s-6.122-.921-8.98,4.086-2.566,7.177-2.566,7.177a14.814,14.814,0,0,0,9.609,3.467c5.562-.208,13.66-6.577,16.3-8.653s9.3-8.014,13.838-6.785l.5-4.294s-.446-1.927-4.329-1.407-5.409,2.734-6.662,2.734-2.437-1.2-4.953,3.1C184.975,293.129,176.144,294.694,172.227,293.708Z" transform="translate(-129.347 -214.82)"/>
      <path id="Path_916" data-name="Path 916" class="cls-5" d="M200.06,174.75a17.729,17.729,0,0,0,.555,2.372,2.764,2.764,0,0,0,.5,1.045,3.2,3.2,0,0,0,1.907.728.52.52,0,0,1,.307.129.5.5,0,0,1,.074.3,3.962,3.962,0,0,1-.674,2.189" transform="translate(-149.226 -158.06)"/>
      <path id="Path_917" data-name="Path 917" class="cls-13" d="M321.376,403l-4.106,5.116s4.507,4.165,9.173,5.711,12.833,4.458,14.2,6.7l-.525-2.67s-12.773-7.835-15.706-9.708A6.766,6.766,0,0,1,321.376,403Z" transform="translate(-208.384 -273.261)"/>
      <path id="Path_918" data-name="Path 918" class="cls-13" d="M354.34,408.541l8.177,4.641a51.348,51.348,0,0,0,6.018-4.8c1.981-2.036,4.423-4.294,5.943-8.856,2.075-6.305,8.019-9.306,8.019-9.306a108.968,108.968,0,0,0-12.57,6.934c-4.3,3.041-8.5,4.329-10.936,4.121C358.966,401.29,360.922,407.481,354.34,408.541Z" transform="translate(-227.093 -266.811)"/>
      <path id="Path_919" data-name="Path 919" class="cls-15" d="M194.24,190.67s3.214,2.521,6.553,1.575C200.793,192.245,197.643,198.486,194.24,190.67Z" transform="translate(-146.289 -166.095)"/>
      <path id="Path_920" data-name="Path 920" class="cls-6" d="M192.685,178.471c.094.693-.119,1.293-.466,1.342s-.708-.5-.8-1.174.114-1.293.466-1.342S192.611,177.777,192.685,178.471Z" transform="translate(-144.853 -159.344)"/>
      <path id="Path_921" data-name="Path 921" class="cls-6" d="M206.817,175.926c.089.7-.119,1.3-.466,1.342s-.713-.5-.8-1.169.114-1.3.466-1.342S206.722,175.233,206.817,175.926Z" transform="translate(-151.986 -158.063)"/>
      <path id="Path_922" data-name="Path 922" class="cls-5" d="M189.735,173.5a2.449,2.449,0,0,0-3.2,1.1" transform="translate(-142.398 -157.316)"/>
      <path id="Path_923" data-name="Path 923" class="cls-5" d="M202.69,170.361s1.981-1.7,3.125,0" transform="translate(-150.554 -155.464)"/>
      <path id="Path_924" data-name="Path 924" class="cls-5" d="M176.121,184.842s-1.2-1.778-2.476-1.724-1.778,1.838-1.322,3.561,2.353,4.131,3.789,3.9a3.19,3.19,0,0,0,2.065-1.149" transform="translate(-135.144 -162.284)"/>
      <path id="Path_925" data-name="Path 925" class="cls-5" d="M196.954,159.13a11.124,11.124,0,0,1,3.467,4c.6,1.407.738,2.972,1.293,4.393a14.694,14.694,0,0,1,1.283,4.77,20.2,20.2,0,0,1-.6,4.552,25.086,25.086,0,0,1-.916,3.809,6.74,6.74,0,0,1-3.556,3.715c-1.2.614-3.209,1.486-4.512.664a15.408,15.408,0,0,1-2.843-3.214" transform="translate(-144.437 -150.177)"/>
      <path id="Path_926" data-name="Path 926" class="cls-5" d="M180.16,198.19s2.13,5.22,1.615,8.89" transform="translate(-139.183 -169.891)"/>
      <path id="Path_927" data-name="Path 927" class="cls-6" d="M169.821,162.735a2.051,2.051,0,0,0,.822-1.838c-.079-.8-.634-1.545-.525-2.348a4.323,4.323,0,0,1,.426-1.1,4.611,4.611,0,0,0-.258-4.17s6.766.317,9.935-1.7,5.587-7.172,3.67-9.633-5.651.9-8.42,1.268-12.615,1.942-14.185,5.735.822,5.156.9,8.777.074,10.48,5.488,9.851c0,0-2.026-2.62-.619-5.319C168.008,161.126,169.821,162.735,169.821,162.735Z" transform="translate(-129.388 -141.053)"/>
      <path id="Path_928" data-name="Path 928" class="cls-6" d="M202.479,151.5a8.489,8.489,0,0,1,3.239,5.943c.3,2.714,5.116,7.989,1.644,11,0,0-.807-3.195-1.283-4.77s-1.085-4.458-1.882-5.448-5.027-4.458-5.027-4.458Z" transform="translate(-148.777 -146.326)"/>
      <path id="Path_929" data-name="Path 929" class="cls-5" d="M178.378,212.675s3.338,2.2,9.539,2.288l.728,8.316a22.449,22.449,0,0,1-12.159-5.3s-1.4-3.71-1.03-5.3,3.7-3.175,3.7-3.175" transform="translate(-136.777 -175.599)"/>
      <path id="Path_930" data-name="Path 930" class="cls-5" d="M205.167,207.789l.2,2.972a12.293,12.293,0,0,1-4.685,3.046l3.883,7.395s4.631-3.606,5.092-7.395c0,0,.04-3.878-.768-4.988s-3.749-1.629-3.749-1.629" transform="translate(-149.539 -174.433)"/>
      <path id="Path_931" data-name="Path 931" class="cls-16" d="M171.8,153.748a3.966,3.966,0,0,1,3.175-2.179,32.9,32.9,0,0,1,4.017-.094,10.312,10.312,0,0,0,5.25-1.486,7.018,7.018,0,0,0,3.17-4.339" transform="translate(-134.963 -143.373)"/>
      <path id="Path_932" data-name="Path 932" class="cls-16" d="M165.35,155.11c.837-2.541,3.551-4.111,6.221-4.334,1.322-.114,2.66.04,3.962-.114a4.478,4.478,0,0,0,3.378-1.833" transform="translate(-131.708 -144.978)"/>
      <path id="Path_933" data-name="Path 933" class="cls-5" d="M147.764,272.565c-6.439,3.338-8.727-.1-12.313-2.942s-1.233-7.925-1.981-16.072,1.114-22.006,1.114-22.006,1.6-.367,6.057-3.091,13.824-6.875,13.824-6.875" transform="translate(-115.528 -181.696)"/>
      <path id="Path_934" data-name="Path 934" class="cls-5" d="M160.541,296.235s-1.02-3.234-3.9-3.318-7.429,1.213-10.669,7.34" transform="translate(-121.927 -217.698)"/>
      <path id="Path_935" data-name="Path 935" class="cls-5" d="M158.11,291.649a1.594,1.594,0,0,1-.52-.124,12.536,12.536,0,0,0-7.4-.337" transform="translate(-124.056 -216.625)"/>
      <path id="Path_936" data-name="Path 936" class="cls-5" d="M146.84,250.63c5.245,5.795,7.8,13.462,10.223,20.891" transform="translate(-122.366 -196.358)"/>
      <path id="Path_937" data-name="Path 937" class="cls-5" d="M218.8,219s9.51,2.268,14.155,2.808,5.4,1.189,5.4,1.189l.867,3.239" transform="translate(-158.685 -180.394)"/>
      <path id="Path_938" data-name="Path 938" class="cls-4" d="M272.572,230.38l-32.387,1.243-2.645,33.308h5.547l28.122-6.3,3.536-27.459Z" transform="translate(-168.143 -186.138)"/>
      <path id="Path_939" data-name="Path 939" class="cls-1" d="M240.94,267.532l35.423-33.952-3.437,26.671Z" transform="translate(-169.859 -187.753)"/>
      <path id="Path_940" data-name="Path 940" class="cls-2" d="M240.94,267.532l35.423-33.952-3.437,26.671Z" transform="translate(-169.859 -187.753)"/>
      <path id="Path_941" data-name="Path 941" class="cls-5" d="M240.94,265.838l2.833-32.129,32.689-1.719-3.536,27.459Z" transform="translate(-169.859 -186.95)"/>
      <path id="Path_942" data-name="Path 942" class="cls-6" d="M280.857,259.577c-.218,1.956-1.263,3.442-2.333,3.323s-1.753-1.808-1.535-3.764,1.268-3.442,2.338-3.323S281.08,257.621,280.857,259.577Z" transform="translate(-188.033 -198.971)"/>
      <path id="Path_943" data-name="Path 943" class="cls-6" d="M278.129,287.41s14.968-.426,19.648,2.665,7.429,18.588,6.781,26.82-6.3,27.122-6.3,27.122l-10.817-12.244s-5.329-19.376-2.422-26.964c0,0-14.363.807-20.02-.966,0,0-5.067-8.3-13.754-11.04Z" transform="translate(-175.063 -214.911)"/>
      <path id="Path_944" data-name="Path 944" class="cls-11" d="M266.6,348.986A74.2,74.2,0,0,1,256.312,337.1,97.938,97.938,0,0,0,236.4,315.193c-6-4.864-7.355-12.788-14.755-16.766-12.258-6.572-22.858,6.488-26.82,9.133A88.572,88.572,0,0,1,184,313.2s2.506,9.411,9.866,10.525,14.8-3.962,18.326-1.511,6.127,13.4,17.756,19.812c9.5,5.24,22.456,10.352,29.138,13.8,1.486.773,2.6,1.585,3.437,2.045,2.308,1.258,4.775,2.739,7.1,4.205l8.019,4.884s8.048-4.76,11.139-9.148c.411-.589,1.268-2.159,2.07-3.675,1.748-3.313,3.962-6.285,7.028-7.925a36.446,36.446,0,0,1,3.962-1.6c-.2-.376-4.046-2.343-6.657-1.268-5.527,2.283-16.577,11.055-21.793,10.4A39.042,39.042,0,0,1,266.6,348.986Z" transform="translate(-141.121 -219.559)"/>
      <path id="Path_945" data-name="Path 945" class="cls-6" d="M266.6,349c-4.819,1.946-6.761,4.953-7.5,6.845-6.681-3.467-19.633-8.559-29.138-13.8-11.629-6.439-14.215-17.365-17.756-19.812s-10.99,2.645-18.326,1.511S184,313.215,184,313.215a86.867,86.867,0,0,0,10.827-5.617c3.962-2.645,13.1-15.711,26.815-9.133,7.573,3.63,8.757,11.887,14.755,16.766a97.863,97.863,0,0,1,19.916,21.907A72.809,72.809,0,0,0,266.6,349Z" transform="translate(-141.121 -219.577)"/>
      <path id="Path_946" data-name="Path 946" class="cls-17" d="M267.818,308.419s-3.71-7.538-9.658-9" transform="translate(-178.55 -220.983)"/>
      <path id="Path_947" data-name="Path 947" class="cls-5" d="M199.174,287.171c-4.091-.892-8.583,3.63-10.475,2.784-1.407-.629-3.72,3.1-3.72,3.1a61.969,61.969,0,0,1-11.5.579c-5.513-.352-8.123.723-10.074,3.67l-2.724,7.216s7.187,6.439,14.859,2.689,17.865-15.062,24.888-15.022" transform="translate(-129.351 -214.741)"/>
      <path id="Path_948" data-name="Path 948" class="cls-11" d="M353.71,419.2s6.716.55,5.141-7.474" transform="translate(-226.775 -277.667)"/>
      <path id="Path_949" data-name="Path 949" class="cls-6" d="M405.426,397.581c-.5.991-6.652,6.231-11.956,10.812,0-.069,1.486-2.868,2.1-4.061,1.412-2.635,5.057-9.861,12-10.812C408.552,394.114,405.426,397.581,405.426,397.581Z" transform="translate(-246.843 -268.476)"/>
      <path id="Path_950" data-name="Path 950" class="cls-11" d="M391.375,390.33c-7.018,1.4-8.613,10.4-11.1,14.23s-9.41,9.034-9.41,9.034" transform="translate(-235.431 -266.866)"/>
      <path id="Path_951" data-name="Path 951" class="cls-11" d="M338.822,419.25a7.246,7.246,0,0,1,0,6.038,12.6,12.6,0,0,1-1.1,2.164c-9.936-1.634-19.871-6.974-19.871-6.974l-2.561-7.925-.411-1.268,3.858-5.2" transform="translate(-207.177 -274.82)"/>
      <path id="Path_952" data-name="Path 952" class="cls-6" d="M339.241,431.874a12.6,12.6,0,0,1-1.1,2.164c-9.935-1.634-19.871-6.974-19.871-6.974l-2.561-7.925a14.165,14.165,0,0,0,7.226,5.131C327.775,425.643,336.705,427.248,339.241,431.874Z" transform="translate(-207.596 -281.407)"/>
      <path id="Path_953" data-name="Path 953" class="cls-5" d="M237.54,263.772l2.645-32.149,32.387-1.243,2.174.8" transform="translate(-168.143 -186.138)"/>
      <path id="Path_954" data-name="Path 954" class="cls-11" d="M364,407.82a10.58,10.58,0,0,0,7.83-1.981,103.38,103.38,0,0,0,8.886-9.049" transform="translate(-231.969 -270.127)"/>
      <path id="Path_955" data-name="Path 955" class="cls-5" d="M372.616,411s-1.07,1.61,0,4.839" transform="translate(-236.077 -277.299)"/>
      <path id="Path_956" data-name="Path 956" class="cls-5" d="M379.151,407.89a6.592,6.592,0,0,0,.4,4.839" transform="translate(-239.472 -275.729)"/>
      <path id="Path_957" data-name="Path 957" class="cls-5" d="M386.594,403.51a8.565,8.565,0,0,0,0,5.062" transform="translate(-243.171 -273.518)"/>
      <path id="Path_958" data-name="Path 958" class="cls-11" d="M320.821,404.74l-3.551,4.274a22.474,22.474,0,0,0,8.623,5.532c5.047,1.625,14.061,4.383,14.809,7.32" transform="translate(-208.384 -274.139)"/>
    </g>
  </g>
</svg>
