<svg xmlns="http://www.w3.org/2000/svg" width="16.758" height="17" viewBox="0 0 16.758 17">
  <defs>
    <style>
      .cls-1 {
        fill: #fff;
        fill-rule: evenodd;
      }
    </style>
  </defs>
  <g id="Group_265" data-name="Group 265" transform="translate(0)">
    <path id="Path_37" data-name="Path 37" class="cls-1" d="M15207.87,3359.806a.654.654,0,0,1,.428.614.618.618,0,0,1-.457.587,1.015,1.015,0,0,1-.13.012l-1.626-.047c-.01.012-.017.024-.026.036-.095.141-.2.279-.3.41l.4,1.708.017.122a.679.679,0,0,1-.032.243,1.119,1.119,0,0,1-.491.5,6.634,6.634,0,0,1-1.765.865l-.034.011-.115.021a.622.622,0,0,1-.422-.152c-.026-.027-.05-.061-.075-.091l-.983-1.405-.039,0c-.162.007-.327.007-.488,0l-.984,1.405-.078.091a.588.588,0,0,1-.193.123.63.63,0,0,1-.342.008s-.185-.058-.33-.112a6.643,6.643,0,0,1-1.725-.951l-.029-.022-.086-.081a.733.733,0,0,1-.151-.453.857.857,0,0,1,.016-.122l.407-1.7c-.012-.011-.021-.022-.031-.033a.281.281,0,0,0-.022-.031c-.1-.123-.191-.251-.277-.383l-1.632.044-.112-.009a.537.537,0,0,1-.212-.09.69.69,0,0,1-.217-.279c0-.005-.079-.205-.133-.367a7.923,7.923,0,0,1-.383-2.071l0-.124a.721.721,0,0,1,.234-.41.908.908,0,0,1,.1-.062l1.484-.72c0-.015.007-.029.01-.044q.044-.259.108-.513l-1.048-1.35-.066-.1a.664.664,0,0,1-.065-.234.746.746,0,0,1,.068-.357c0-.005.093-.183.172-.323a7.276,7.276,0,0,1,1.243-1.607l.027-.026.091-.073a.605.605,0,0,1,.442-.06.737.737,0,0,1,.105.045l1.452.806.033-.021a4.887,4.887,0,0,1,.441-.227l.324-1.728.035-.131a.665.665,0,0,1,.38-.345.571.571,0,0,1,.649.315.768.768,0,0,1,.052.4l-.382,2.06a.693.693,0,0,1-.267.408,1.986,1.986,0,0,1-.3.131,3.937,3.937,0,0,0-.646.358l-.1.058a.628.628,0,0,1-.35.017,1,1,0,0,1-.114-.047l-1.368-.762a5.991,5.991,0,0,0-.719.974l0,.007.99,1.272.07.106a.834.834,0,0,1,.058.374,2.268,2.268,0,0,1-.1.364,4.715,4.715,0,0,0-.136.74l-.022.125a.747.747,0,0,1-.208.306.8.8,0,0,1-.1.064l-1.405.68a6.679,6.679,0,0,0,.257,1.216l0,.008,1.537-.045.119.01a.681.681,0,0,1,.312.179,2.407,2.407,0,0,1,.19.3,4.333,4.333,0,0,0,.461.587l.072.1a.783.783,0,0,1,.1.366,1.149,1.149,0,0,1-.02.127l-.383,1.61a5.7,5.7,0,0,0,1.04.542l.009,0,.927-1.328.081-.094a.65.65,0,0,1,.322-.149,2.1,2.1,0,0,1,.349.024,3.639,3.639,0,0,0,.7-.022l.119,0a.665.665,0,0,1,.32.149,1.011,1.011,0,0,1,.083.094l.927,1.328a5.44,5.44,0,0,0,1.037-.54l.008,0-.383-1.61-.016-.127a.8.8,0,0,1,.09-.365,2.32,2.32,0,0,1,.219-.259,4.215,4.215,0,0,0,.439-.625l.071-.1a.681.681,0,0,1,.312-.179.858.858,0,0,1,.115-.01l1.946.056Zm-6.6-4.383a.64.64,0,0,1,.487.885c-.091.2-.3.287-.461.43a1.433,1.433,0,0,0-.406,1.358,1.25,1.25,0,0,0,1.769.849,1.328,1.328,0,0,0,.535-.583.758.758,0,0,1,.177-.232.571.571,0,0,1,.848.227c.17.374-.108.842-.427,1.195a2.293,2.293,0,0,1-2.771.5,2.587,2.587,0,0,1-1.274-1.866,2.693,2.693,0,0,1,1.179-2.663.647.647,0,0,1,.261-.1A.428.428,0,0,1,15201.27,3355.422Zm9.438-5.818a.813.813,0,0,1,.114.068.889.889,0,0,1,.161.173c.08.1.159.207.232.315a5.8,5.8,0,0,1,.729,1.521l.025.139a.977.977,0,0,1,0,.141.61.61,0,0,1-.093.262.826.826,0,0,1-.086.107l-.88.873c0,.01,0,.02,0,.03.006.155.006.31,0,.464l.88.873a.637.637,0,0,1,.149.233,1.089,1.089,0,0,1-.093.711,5.722,5.722,0,0,1-.925,1.62l-.1.095a.92.92,0,0,1-.111.069.545.545,0,0,1-.26.044,1.066,1.066,0,0,1-.13-.027l-1.138-.387-.037.026c-.114.079-.229.15-.349.216l-.01.005-.262,1.26-.042.135a.632.632,0,0,1-.165.219,1.1,1.1,0,0,1-.571.178,4.808,4.808,0,0,1-1.681-.054l-.031-.007-.124-.043a1.124,1.124,0,0,1-.112-.074.572.572,0,0,1-.162-.219c-.02-.043-.03-.09-.047-.135l-.256-1.26c-.013-.007-.028-.014-.041-.022a3.9,3.9,0,0,1-.354-.225l-1.143.387a.525.525,0,0,1-.261.021.941.941,0,0,1-.523-.441,5.735,5.735,0,0,1-.839-1.674l-.025-.138a.979.979,0,0,1,0-.142.676.676,0,0,1,.092-.263c.026-.04.06-.072.087-.107l.881-.873a3.8,3.8,0,0,1,0-.494l-.881-.873a.606.606,0,0,1-.146-.232,1.048,1.048,0,0,1,.093-.712,5.581,5.581,0,0,1,.923-1.62l.1-.095a1.275,1.275,0,0,1,.115-.068.532.532,0,0,1,.258-.044,1.037,1.037,0,0,1,.128.027l1.143.387a3.345,3.345,0,0,1,.385-.242l.011-.005.256-1.26.047-.134a.583.583,0,0,1,.162-.219.735.735,0,0,1,.236-.118s.188-.039.333-.061a4.8,4.8,0,0,1,1.712.061l.127.044a.838.838,0,0,1,.111.074.621.621,0,0,1,.165.219.735.735,0,0,1,.042.134l.262,1.26c.006,0,.017.009.022.013a3.609,3.609,0,0,1,.363.227l.01.007,1.138-.387.13-.027.131.006Zm-3.662-.486a3.665,3.665,0,0,0-.422.025l-.238,1.151-.035.113a.726.726,0,0,1-.208.269,1.919,1.919,0,0,1-.24.123,2.753,2.753,0,0,0-.515.341l-.094.064a.631.631,0,0,1-.319.063c-.035,0-.072-.016-.109-.024l-1.037-.354a4.19,4.19,0,0,0-.321.55c-.043.088-.081.177-.118.268l.8.8.071.088a.777.777,0,0,1,.11.331,2.151,2.151,0,0,1-.023.3,3.332,3.332,0,0,0,.021.639l0,.118a.754.754,0,0,1-.11.331c-.021.032-.048.059-.071.088l-.8.8a4.06,4.06,0,0,0,.439.818l1.037-.353.109-.025a.628.628,0,0,1,.319.063,1.733,1.733,0,0,1,.209.156,2.667,2.667,0,0,0,.54.316l.1.055a.707.707,0,0,1,.208.269.954.954,0,0,1,.035.113l.233,1.151a3.758,3.758,0,0,0,.878,0l.238-1.151.033-.113a.765.765,0,0,1,.21-.269.63.63,0,0,1,.111-.061l.055-.025a2.728,2.728,0,0,0,.587-.379l.095-.063a.64.64,0,0,1,.32-.062.993.993,0,0,1,.106.025l1.042.354a4.208,4.208,0,0,0,.437-.819l-.8-.8-.074-.088a.775.775,0,0,1-.111-.331,2.246,2.246,0,0,1,.026-.323,3.3,3.3,0,0,0-.022-.613l0-.119a.627.627,0,0,1,.186-.42l.8-.8a4.546,4.546,0,0,0-.439-.819l-1.042.353-.106.024a.633.633,0,0,1-.32-.062,2.486,2.486,0,0,1-.267-.2,2.6,2.6,0,0,0-.484-.274l-.1-.055a.732.732,0,0,1-.21-.269c-.013-.036-.022-.075-.033-.113l-.238-1.15A3.635,3.635,0,0,0,15207.045,3349.118Zm.026,2.28a1.94,1.94,0,0,1,1.7,1.152,2.216,2.216,0,0,1-.391,2.378,1.823,1.823,0,0,1-2.047.419,2.078,2.078,0,0,1-1.151-1.6,2.177,2.177,0,0,1,.543-1.759,1.857,1.857,0,0,1,1.313-.593Zm-.016,1.232a.837.837,0,0,0-.683,1.176.763.763,0,0,0,.975.4.873.873,0,0,0,.235-1.354.734.734,0,0,0-.519-.227Z" transform="translate(-15195.213 -3347.886)"/>
  </g>
</svg>
