<svg xmlns="http://www.w3.org/2000/svg" width="196.609" height="204.666" viewBox="0 0 196.609 204.666">
  <defs>
    <style>
      .cls-1 {
        fill: #264df7;
      }

      .cls-13, .cls-2, .cls-4, .cls-8 {
        fill: #fff;
      }

      .cls-2 {
        opacity: 0.7;
      }

      .cls-14, .cls-3 {
        opacity: 0.1;
      }

      .cls-10, .cls-11, .cls-12, .cls-5, .cls-9 {
        fill: none;
      }

      .cls-10, .cls-11, .cls-12, .cls-13, .cls-5, .cls-9 {
        stroke: #263238;
        stroke-linecap: round;
        stroke-linejoin: round;
      }

      .cls-6 {
        fill: #263238;
      }

      .cls-7 {
        opacity: 0.3;
      }

      .cls-8 {
        opacity: 0.8;
      }

      .cls-9 {
        stroke-dasharray: 3.911 3.911;
      }

      .cls-10 {
        stroke-dasharray: 3.882 3.882;
      }

      .cls-11 {
        stroke-dasharray: 4.066 4.066;
      }

      .cls-12 {
        stroke-dasharray: 4 4;
      }
    </style>
  </defs>
  <g id="Wallet-bro_1_" data-name="Wallet-bro (1)" transform="translate(-42.2 -40.077)">
    <g id="freepik--background-simple--inject-2" transform="translate(42.2 40.077)">
      <path id="Path_774" data-name="Path 774" class="cls-1" d="M175.961,40.083c-17.37.3-30.761,14.5-45.63,23.485C107.88,77.135,79.044,79.89,60.079,98.015c-12.981,12.424-19.389,31.129-17.577,49s11.627,34.621,25.821,45.635C77.373,199.665,88,204.4,98.834,208.1c10.985,3.747,22.423,6.526,34.031,6.672,16.086.2,31.889-4.662,46.441-11.528,10.122-4.771,19.88-10.6,27.84-18.469a77.855,77.855,0,0,0,17.237-26.359c9.763-24.235,8.211-52.014-.255-76.736C217.127,61.237,200.008,39.668,175.961,40.083Z" transform="translate(-42.2 -40.077)"/>
      <path id="Path_775" data-name="Path 775" class="cls-2" d="M175.961,40.083c-17.37.3-30.761,14.5-45.63,23.485C107.88,77.135,79.044,79.89,60.079,98.015c-12.981,12.424-19.389,31.129-17.577,49s11.627,34.621,25.821,45.635C77.373,199.665,88,204.4,98.834,208.1c10.985,3.747,22.423,6.526,34.031,6.672,16.086.2,31.889-4.662,46.441-11.528,10.122-4.771,19.88-10.6,27.84-18.469a77.855,77.855,0,0,0,17.237-26.359c9.763-24.235,8.211-52.014-.255-76.736C217.127,61.237,200.008,39.668,175.961,40.083Z" transform="translate(-42.2 -40.077)"/>
    </g>
    <g id="freepik--Wallet--inject-2" transform="translate(51.605 97.816)">
      <path id="Path_776" data-name="Path 776" class="cls-3" d="M201.131,209.535c-.123-3.553-.354-7.342-.736-11.264-.514-7.833-1.5-15.147-3.275-19.748h0c-9.8-2.005-60.687,1.732-60.725,1.732l-.316-1.416-.127-.562-.227-.986-.061-.226c-.33-1.331-.7-2.647-1.137-3.954h0s-38.58-3.445-51.377-.1h0v.335l.038,3.157c.038,6.111-.1,11.844.212,18.139v.047h0a1.027,1.027,0,0,0-.184,0,2.713,2.713,0,0,0-2.2,1.788h0a2.7,2.7,0,0,0-.137,1.142l.17,1.987v.094c.472,5.011.944,9.975.944,9.975h0s.245.024.646.042l2.119.151c-4.511.415-9.437,6.37-9.22,11.49s-4.719,14.76-3.487,20.29c.944,4.322,5.8,11.273,8.163,16.553l-.184,1.048-10.556,21.2c.708-1.038,7.078,26.661,36.664,20.8l21.05-34.3h0a40.608,40.608,0,0,0,6.408-6.026,10.48,10.48,0,0,0,1.987-2.746h0a14.676,14.676,0,0,0,1.7-3.869c.094-.359.193-.713.3-1.076,1.718-4.374,4.011-10.343,5.691-14.477,22.178-.661,45.465-2.015,57.158-4.766h.024A123.32,123.32,0,0,0,201.131,209.535Zm-113.9,19.38a34.061,34.061,0,0,1-.33-3.855c.26,1.359.543,2.713.84,4.072C87.576,229.057,87.406,228.981,87.236,228.915Z" transform="translate(-66.006 -167.251)"/>
      <path id="Path_777" data-name="Path 777" class="cls-4" d="M64.36,313.978s9.475,28.015,39.076,22.15c0,0,6.568-30.837,12.07-35.39,3.548-2.926,11.386-8.173,13.061-11.971s8.4-21.838,9.706-24.009-14.118-27.147-14.118-27.147L91.672,254.371,73.6,286.458S70.131,307.22,64.36,313.978Z" transform="translate(-63.308 -202.139)"/>
      <path id="Path_778" data-name="Path 778" class="cls-5" d="M72.105,346.43S69.788,363.752,62.13,372.8" transform="translate(-62.13 -259.61)"/>
      <path id="Path_779" data-name="Path 779" class="cls-5" d="M147.17,371.285s6.531-29.836,12.07-35.39c0,0,12.514-7.276,14.77-15.841a121.226,121.226,0,0,1,5.762-15.874" transform="translate(-107.042 -237.297)"/>
      <path id="Path_780" data-name="Path 780" class="cls-5" d="M152.728,306.2c-.472-.3,7.574,6.134,7.885,14.93" transform="translate(-109.967 -238.357)"/>
      <path id="Path_781" data-name="Path 781" class="cls-1" d="M204.223,224.887c-26.085,6.134-110.1,5.327-110.1,5.327-.708-1.491-1.562-5.247-2.388-9.6-1.652-8.734-3.195-19.866-3.195-19.866l-2.779-.193s-.472-4.964-.944-9.975,2.359-5.007,2.359-5.007l-.2-17.346-.052-4.332c12.8-3.341,51.377.1,51.377.1l1.2,4.181.67,2.963,60.72-1.713C206.464,183.83,204.223,224.887,204.223,224.887Z" transform="translate(-74.086 -162.439)"/>
      <rect id="Rectangle_165" data-name="Rectangle 165" class="cls-6" width="45.819" height="14.046" rx="6.298" transform="translate(77.255 22.508) rotate(-2.862)"/>
      <path id="Path_782" data-name="Path 782" class="cls-6" d="M272.317,246.54l.127,1.345-45.856,1.774-.038-1.208Z" transform="translate(-148.965 -206.855)"/>
      <path id="Path_783" data-name="Path 783" class="cls-6" d="M272.7,256.45l.042,1.208-45.852,1.694-.042-1.2Z" transform="translate(-149.124 -212.089)"/>
      <path id="Path_784" data-name="Path 784" class="cls-7" d="M262.885,176.593s6.767,32.087,3.336,55.454c0,0-42.789,5.021-57.441,4.209l-.6-7.809,1.227-.189s-5.908-44.573-7.248-49.952C202.16,178.306,253.117,174.583,262.885,176.593Z" transform="translate(-136.084 -169.6)"/>
      <path id="Path_785" data-name="Path 785" class="cls-8" d="M158.4,286.91l.5,5.9s-43.129,1.887-46.923.514.2-3.563,10.235-4.351S158.4,286.91,158.4,286.91Z" transform="translate(-87.711 -228.176)"/>
      <ellipse id="Ellipse_5" data-name="Ellipse 5" class="cls-6" cx="3.94" cy="3.567" rx="3.94" ry="3.567" transform="translate(40.996 26.562)"/>
      <path id="Path_786" data-name="Path 786" class="cls-5" d="M92.77,208.12a152.884,152.884,0,0,0,5.578,29.468c18.294-.156,36.584-.359,54.874-.944a515.7,515.7,0,0,0,55.209-4.384s3.246-28.671-3.336-55.454c-7.276-1.515-60.522,1.7-60.522,1.7" transform="translate(-78.312 -169.813)"/>
      <path id="Path_787" data-name="Path 787" class="cls-5" d="M147.144,221.381l.5,5.9-41.053.944c-1.694.146-4.332.368-5.889-.429a1.625,1.625,0,0,1-.882-1.977,2.344,2.344,0,0,1,1.8-1.024,119.039,119.039,0,0,1,15.256-1.845q16.412-1.217,32.875-1.647c-.231,0-2.907-22.079-3.2-24.117-1.161-7.975-2.265-15.982-3.7-23.914a64.444,64.444,0,0,0-2.213-9.065c-16.912-1.208-34.574-2.326-51.382-.1.156,7.489-.123,14.156.26,21.678" transform="translate(-76.458 -162.647)"/>
      <path id="Path_788" data-name="Path 788" class="cls-5" d="M103.059,300.3a3.658,3.658,0,0,1-.179-.944" transform="translate(-83.651 -234.751)"/>
      <path id="Path_789" data-name="Path 789" class="cls-9" d="M103.46,287.432c.628-1.571,2.51-3.346,7.63-3.912,9.338-1.038,29.695-2.907,41.638-3.36" transform="translate(-83.958 -224.611)"/>
      <path id="Path_790" data-name="Path 790" class="cls-5" d="M209.83,279l.944-.033-.127-.944" transform="translate(-140.135 -223.481)"/>
      <path id="Path_791" data-name="Path 791" class="cls-10" d="M202.888,222.555c-2.147-15.444-4.525-30.775-7.248-46.135" transform="translate(-132.641 -169.823)"/>
      <path id="Path_792" data-name="Path 792" class="cls-5" d="M194.074,173.38l-.17-.944-.944-.066" transform="translate(-131.225 -167.684)"/>
      <path id="Path_793" data-name="Path 793" class="cls-11" d="M138.5,170.778c-7.847-.524-30.162-1.831-45.049-.812" transform="translate(-78.671 -166.215)"/>
      <path id="Path_794" data-name="Path 794" class="cls-5" d="M90.354,170.54l-.944.076" transform="translate(-76.537 -166.718)"/>
      <path id="Path_795" data-name="Path 795" class="cls-5" d="M85.6,225.376l-1.128-12.033a2.7,2.7,0,0,1,2.534-2.949c6.937-.4,24.877-1.345,31.762-.793,3.3.264,6.894,1.326,8.494,4.487,1.331,2.6,1.529,6.512-.7,8.654-3.4,3.256-9.843,3.006-14.222,3.162C104.187,226.215,85.609,225.446,85.6,225.376Z" transform="translate(-73.926 -187.258)"/>
      <path id="Path_796" data-name="Path 796" class="cls-6" d="M132.648,227.617c0-.335,1.718,6.913-4.558,9.305S92.77,238.56,92.77,238.56v-3.4s20.545.434,23.966.34S132.28,236.545,132.648,227.617Z" transform="translate(-78.312 -196.856)"/>
      <path id="Path_797" data-name="Path 797" class="cls-5" d="M164.49,313.43a17.673,17.673,0,0,1,7.054,8.654" transform="translate(-116.189 -242.182)"/>
      <path id="Path_798" data-name="Path 798" class="cls-12" d="M84.79,214.184s25.179-1.184,31.587-.972,9.546,1.623,10.183,5.639-3.246,6.517-6.342,6.988-34.447.609-34.447.609" transform="translate(-74.097 -189.24)"/>
      <path id="Path_799" data-name="Path 799" class="cls-13" d="M91.858,271.732s-3.9-13.538-11.07-16.2c0,0-1.416-9.239,1.642-9.749s11.693-6.2,9.437-13.3-9.027,3.563-13.538,3.973-9.437,6.37-9.235,11.495-4.719,14.765-3.487,20.29,8.824,15.383,9.437,20.512" transform="translate(-63.862 -198.143)"/>
      <path id="Path_800" data-name="Path 800" class="cls-13" d="M101.45,232.387s5.4.981,8.338-2.449-.444-3.648-.444-3.648Z" transform="translate(-82.896 -196.161)"/>
      <path id="Path_801" data-name="Path 801" class="cls-5" d="M81,255.41a5.936,5.936,0,0,1,2.775.911" transform="translate(-72.096 -211.54)"/>
      <path id="Path_802" data-name="Path 802" class="cls-5" d="M80.65,259.57a5.219,5.219,0,0,1,2.7,1.066" transform="translate(-71.911 -213.737)"/>
      <path id="Path_803" data-name="Path 803" class="cls-5" d="M111.56,296.983s23.122-1.194,29.209-.845" transform="translate(-88.235 -233.016)"/>
      <path id="Path_804" data-name="Path 804" class="cls-5" d="M161.53,292.235a57.813,57.813,0,0,1,9.437,0" transform="translate(-114.626 -230.878)"/>
      <line id="Line_237" data-name="Line 237" class="cls-5" x2="9.414" transform="translate(61.645 63.056)"/>
      <path id="Path_805" data-name="Path 805" class="cls-12" d="M204.84,183.987s41.35-3.695,57.965-1.585c0,0,4.483,8.244,3.506,50.49a530.135,530.135,0,0,1-56.285,4.186" transform="translate(-137.499 -172.639)"/>
    </g>
    <g id="freepik--Card--inject-2" transform="translate(126.168 66.506)">
      <g id="Group_8" data-name="Group 8" class="cls-14" transform="translate(0 4.188)">
        <path id="Path_806" data-name="Path 806" d="M324.861,201.9c-1.175-5-2.9-6.875-4.624-8.319a6.052,6.052,0,0,0-2.251-4.445,15,15,0,0,0-1.888-1.416c-2.076-1.557-4.365-3.3-4.365-3.3-1.076-3.114-2.534-6.885-4.11-10.593l.08.845c-1.614-3.94-3.195-7.861-3.638-9.164v-.028c.472,1.255.944,2.468,1.463,3.586l-5.908-20.88c-.142-.84-.288-1.666-.434-2.463-.283-2.359-1.052-6.8-2.907-7.121a1.545,1.545,0,0,0-.208,0s-2.185-.944-2.185,2.93a5.525,5.525,0,0,0-3.855,5.139,6.9,6.9,0,0,0-.047,2.218c.047.854.146,1.727.278,2.6l-8.371-11-.807-1.048-10.325-13.59-13.878-18.309a6.5,6.5,0,0,0-9.107-1.241l-17.228,13.085-6.724,5.106c-5.158,2.685-3.813,7.989-2.383,9.872L251.485,173.9a3.13,3.13,0,0,0-.472-.024,2.873,2.873,0,0,0-2.982-1.7,2.458,2.458,0,0,0-1.265.42,2.269,2.269,0,0,0-.845.769,6.709,6.709,0,0,0-.632.906c-1.081,1.85-.08,6.375,1.482,11.9.1.359.2.7.293,1.024v.052l.4,1.383c1.529,5.3,4.388,15.718,4.917,20.824.038.472.061.977.071,1.449.033,5.88-2.576,15.723-1.453,19.79.146.533.3,1.043.448,1.548a46.278,46.278,0,0,0,2.893,7.842c1.595,3.114,3.5,6.1,5.276,9.117q4.9,8.31,10.136,16.421c1.609,2.482,3.492,4.747,5.313,7.078.835,1.071,2.657,2.68,2.973,4.053,0,0,16.152,1.335,25.193-4.407l-.849-12.854,6.064-34.848c1.732-2.628,7.078-7.762,8.145-9.386.552-.807,1.09-1.609,1.614-2.392,3.987-3.723,5.983-6.606,6.861-9.961A5.427,5.427,0,0,0,324.861,201.9ZM268.3,208.715Zm.646.793-.08-.151a19.093,19.093,0,0,0,5.191,1.51C272.172,210.649,270.044,210.347,268.944,209.507Zm6.814,1.562h0l.868.061a6.5,6.5,0,0,1-.868-.061Zm-6.984-1.916L267.689,207c-1.51-4.332-4.922-14.543-4.936-14.586h0a58.984,58.984,0,0,0-2.671-8.635,5.139,5.139,0,0,0,4.818-.755l8.258-6.271c.854.514,1.727.977,2.581,1.383l7.734,6.045-6.134,25.212Zm31.3-58.068h0c.642,3.011,1.656,7.342,3,11.537a75.636,75.636,0,0,1-3.011-11.537Z" transform="translate(-220.147 -104.96)"/>
        <path id="Path_807" data-name="Path 807" d="M315.25,459.45l.047.227S315.283,459.592,315.25,459.45Z" transform="translate(-270.374 -292.177)"/>
      </g>
      <path id="Path_808" data-name="Path 808" class="cls-4" d="M354.946,195.354c.472-.311,7.389-4.077,10.853,7.215s7.526,30.506,7.526,30.506l-8.229,1.6s-7.625-4.058-14.458-14.222c0,0-9.579-2.482-13.75-8.38-3.775-5.36,7.871-25.042,7.871-25.042Z" transform="translate(-281.403 -144.116)"/>
      <path id="Path_809" data-name="Path 809" class="cls-5" d="M369.73,234.45c2.038,3.058,5.9,9.489,11.108,11.518" transform="translate(-299.146 -169.16)"/>
      <path id="Path_810" data-name="Path 810" class="cls-5" d="M357.51,241.42c.944.382,3.3,1.741,4.417,1.793,0,0,4.808,9.518,12.74,12.608" transform="translate(-292.692 -172.841)"/>
      <path id="Path_811" data-name="Path 811" class="cls-5" d="M348.16,248.85c2.949,2.468,6.465,4.152,8.829,4.247,0,0,4.808,9.518,12.741,12.608" transform="translate(-287.754 -176.765)"/>
      <rect id="Rectangle_166" data-name="Rectangle 166" class="cls-6" width="43.072" height="70.219" rx="10.92" transform="translate(5.39 26.054) rotate(-37.22)"/>
      <path id="Path_812" data-name="Path 812" class="cls-1" d="M306.789,154.94,282.846,173.13a6.488,6.488,0,0,1-9.107-1.246l-34.612-45.564a6.361,6.361,0,0,1-1.161-2.491,6.469,6.469,0,0,1,2.4-6.606l6.729-5.106,17.223-13.09a6.5,6.5,0,0,1,9.107,1.246l13.887,18.28,10.325,13.59,10.381,13.684a6.5,6.5,0,0,1-1.232,9.112Z" transform="translate(-229.471 -96.94)"/>
      <path id="Path_813" data-name="Path 813" class="cls-3" d="M297.683,118.554l-40.213-6.441,17.237-13.085a6.5,6.5,0,0,1,9.107,1.246Z" transform="translate(-239.858 -96.94)"/>
      <path id="Path_814" data-name="Path 814" class="cls-3" d="M306.972,184.18,283.03,202.371a6.488,6.488,0,0,1-9.107-1.246l-34.612-45.564a6.361,6.361,0,0,1-1.161-2.491l60.465,9.4L308.2,175.1a6.5,6.5,0,0,1-1.232,9.083Z" transform="translate(-229.655 -126.18)"/>
      <rect id="Rectangle_167" data-name="Rectangle 167" class="cls-13" width="9.159" height="12.311" rx="4.08" transform="translate(32.487 11.09) rotate(-37.22)"/>
      <line id="Line_238" data-name="Line 238" class="cls-13" x2="7.3" y2="9.919" transform="translate(36.222 8.246)"/>
      <line id="Line_239" data-name="Line 239" class="cls-13" y1="5.535" x2="7.3" transform="translate(36.222 10.473)"/>
      <path id="Path_815" data-name="Path 815" class="cls-6" d="M308.465,228.846l-1.246.915-15.2-20.007,1.236-.934Z" transform="translate(-258.105 -155.624)"/>
      <path id="Path_816" data-name="Path 816" class="cls-6" d="M312.914,225.51l-1.246.925-15.218-20.04,1.227-.934Z" transform="translate(-260.445 -153.849)"/>
      <path id="Path_817" data-name="Path 817" class="cls-6" d="M317.352,222.183l-1.241.915L300.87,203.039l1.232-.939Z" transform="translate(-262.779 -152.075)"/>
      <path id="Path_818" data-name="Path 818" class="cls-6" d="M322.044,219.169l-1.246.915L305.76,200.289l1.227-.939Z" transform="translate(-265.362 -150.622)"/>
      <path id="Path_819" data-name="Path 819" class="cls-6" d="M326.838,215.577l-1.246.92L310.53,196.669l1.232-.939Z" transform="translate(-267.881 -148.71)"/>
      <path id="Path_820" data-name="Path 820" class="cls-6" d="M326.838,166.137l-1.246.915L310.53,147.224l1.232-.934Z" transform="translate(-267.881 -122.6)"/>
      <rect id="Rectangle_168" data-name="Rectangle 168" class="cls-6" width="2.421" height="70.167" transform="translate(24.227 10.209) rotate(-37.22)"/>
      <path id="Path_821" data-name="Path 821" class="cls-5" d="M306.789,154.94,282.846,173.13a6.488,6.488,0,0,1-9.107-1.246l-34.612-45.564a6.361,6.361,0,0,1-1.161-2.491,6.469,6.469,0,0,1,2.4-6.606l6.729-5.106,17.223-13.09a6.5,6.5,0,0,1,9.107,1.246l13.887,18.28,10.325,13.59,10.381,13.684a6.5,6.5,0,0,1-1.232,9.112Z" transform="translate(-229.471 -96.94)"/>
      <path id="Path_822" data-name="Path 822" class="cls-4" d="M314.118,310.416s27.869,9.909,36.3-11.674c0,0-13.189-16.044-5.988-29.152,4.53-8.258,17.058-26.486,17.058-26.486s5.233-4.969,6.861-9.961a18.448,18.448,0,0,0-4.841-9.329,6.066,6.066,0,0,0-2.256-4.445c-2.213-1.614-6.271-4.719-6.271-4.719s-6.672-16.006-7.663-18.9a87.374,87.374,0,0,1-3.978-14.4c-1-6.04-1.916-12.542-4.03-12.523,0,0-2.18-.944-2.18,2.93,0,0-4.577,2.359-3.9,7.352s1.3,7.574,1.118,10.381.722,12.556,2.977,15.614c0,0,.755,13.684,1.888,17.247.038.109.071.208.1.3,1.189,3.015-10.693,14.628-17.124,17.771,0,0-.675,1.255-3.171.911s-6.719-.5-7.446-2.359-5.563-16.322-5.563-16.322-3.912-18.545-11.726-18.54a2.881,2.881,0,0,0-4.247-1.283c-3.062,1.548-1.057,9.985.3,14.6s4.785,16.747,5.342,22.329-2.6,16.766-1.416,21.163,2.51,7.366,6.3,14.567S312.763,304.154,314.118,310.416Z" transform="translate(-256.208 -134.448)"/>
      <path id="Path_823" data-name="Path 823" class="cls-5" d="M313.784,348.128s-5.964-22.452-14.732-36.971-3.61-19.653-3.61-31.738-9.848-32.658-7.191-37.193,6.281-.906,7.8,3.327-.6,6.653-4.851,6.955" transform="translate(-255.874 -172.16)"/>
      <path id="Path_824" data-name="Path 824" class="cls-5" d="M300.84,243.748s5.091-.311,8.22,7.828,8.14,28.784,13.359,35.065" transform="translate(-262.763 -174.069)"/>
      <path id="Path_825" data-name="Path 825" class="cls-5" d="M337.84,318.49c.028.066,7.29,4.115,18.559.566" transform="translate(-282.304 -213.544)"/>
      <path id="Path_826" data-name="Path 826" class="cls-5" d="M302.89,292.284a5.1,5.1,0,0,1,4.766-1.807" transform="translate(-263.846 -198.714)"/>
      <path id="Path_827" data-name="Path 827" class="cls-5" d="M304.94,298.18a4.063,4.063,0,0,1,4.1-1.335" transform="translate(-264.929 -202.048)"/>
      <path id="Path_828" data-name="Path 828" class="cls-5" d="M372.7,175.12c-7.408,2.468-1.887,13.656-2.784,17.738s1.416,11.9,3.195,16.133c0,4.969,1.77,17.025,1.77,17.025-1.095,3.836-10.23,15.142-19.106,18.681" transform="translate(-291.773 -137.826)"/>
      <path id="Path_829" data-name="Path 829" class="cls-5" d="M397.073,177.474s-.552-8.564-3.256-8.564-2.539,5.771-1.416,10.056S397.894,182.637,397.073,177.474Z" transform="translate(-310.715 -134.546)"/>
      <path id="Path_830" data-name="Path 830" class="cls-5" d="M403.16,187.06s2.3,13.462,6.205,21.918" transform="translate(-316.801 -144.132)"/>
      <path id="Path_831" data-name="Path 831" class="cls-5" d="M423.266,270.374a26.444,26.444,0,0,0,3.421-9.631c-.175-2.307-2.831-9.838-5.917-17.134" transform="translate(-326.102 -173.997)"/>
      <path id="Path_832" data-name="Path 832" class="cls-5" d="M430,267.56c3.062,2.3,8.39,4.072,7.776,8.045a33.405,33.405,0,0,1-4.105,11.273" transform="translate(-330.976 -186.646)"/>
      <path id="Path_833" data-name="Path 833" class="cls-5" d="M411.375,360.949s-10.669-14.812-8.531-25.042c1.571-7.526,11.674-20.687,18.922-31.587,3.992-3.723,5.988-6.606,6.861-9.961-1.279-6.3-3.355-8.135-5.351-9.749" transform="translate(-316.485 -195.651)"/>
      <path id="Path_834" data-name="Path 834" class="cls-5" d="M419.311,272.363a9.018,9.018,0,0,0-7.111.967" transform="translate(-321.576 -189.005)"/>
      <path id="Path_835" data-name="Path 835" class="cls-5" d="M421.278,278.025a6.724,6.724,0,0,0-4.218.741" transform="translate(-324.142 -192.133)"/>
    </g>
  </g>
</svg>
